{
.appVersion = "907";
copyright = "Copyright (c) 2011 by vernon adams. All rights reserved.";
date = "2016-07-06 09:50:39 +0000";
designer = "vernon adams";
designerURL = newtypography.co.uk;
familyName = SigmarOne;
fontMaster = (
{
ascender = 1225;
capHeight = 1423;
customParameters = (
{
name = typoDescender;
value = -672;
},
{
name = typoLineGap;
value = 0;
},
{
name = hheaLineGap;
value = 0;
},
{
name = hheaAscender;
value = 2401;
},
{
name = typoAscender;
value = 2401;
},
{
name = hheaDescender;
value = -672;
},
{
name = winDescent;
value = 672;
},
{
name = winAscent;
value = 2401;
}
);
descender = -412;
id = UUID0;
xHeight = 1200;
}
);
glyphs = (
{
glyphname = A;
lastChange = "2016-07-06 09:50:25 +0000";
layers = (
{
layerId = UUID0;
paths = (
{
closed = 1;
nodes = (
"715 1364 LINE",
"716 1364 LINE",
"747 1365 LINE",
"792 1367 LINE",
"844 1369 LINE",
"888 1372 LINE",
"916 1373 LINE",
"915 1374 LINE",
"921 1374 LINE",
"979 1375 LINE",
"1059 1375 LINE",
"1150 1375 LINE",
"1229 1373 LINE",
"1284 1368 LINE",
"1288 1364 LINE",
"1317 1364 LINE",
"1370 1374 LINE",
"1399 1374 LINE",
"1411 1374 LINE",
"1435 1362 LINE",
"1448 1362 LINE",
"1454 1362 LINE",
"1461 1364 LINE",
"1466 1364 LINE",
"1472 1361 LINE",
"1487 1346 LINE",
"1487 1341 LINE",
"1630 694 LINE",
"1662 570 LINE",
"1723 310 LINE",
"1749 186 LINE",
"1751 177 LINE",
"1759 142 LINE",
"1766 100 LINE",
"1770 57 LINE",
"1765 21 LINE",
"1748 -2 LINE",
"1732 -2 LINE",
"1725 -2 LINE",
"1685 -2 LINE",
"1633 -1 LINE",
"1578 0 LINE",
"1530 1 LINE",
"1498 1 LINE",
"1497 2 LINE",
"1368 2 LINE",
"1368 4 LINE",
"1363 10 LINE",
"1347 10 LINE",
"1345 10 LINE",
"1342 2 LINE",
"1339 2 LINE",
"1333 2 LINE",
"1332 2 LINE",
"1299 4 LINE",
"1252 7 LINE",
"1199 10 LINE",
"1179 10 LINE",
"1164 35 LINE",
"1135 163 LINE",
"1118 250 LINE",
"1094 246 LINE",
"1036 243 LINE",
"974 243 LINE",
"910 244 LINE",
"882 244 LINE",
"865 160 LINE",
"837 35 LINE",
"823 10 LINE",
"815 10 LINE",
"794 2 LINE",
"792 2 LINE",
"786 2 LINE",
"775 2 LINE",
"763 10 LINE",
"758 10 LINE",
"705 9 LINE",
"665 7 LINE",
"648 6 LINE",
"615 5 LINE",
"589 3 LINE",
"573 2 LINE",
"573 2 LINE",
"383 2 LINE",
"381 2 LINE",
"350 1 LINE",
"302 0 LINE",
"246 -1 LINE",
"195 -2 LINE",
"155 -2 LINE",
"147 -2 LINE",
"131 -2 LINE",
"115 21 LINE",
"110 57 LINE",
"114 100 LINE",
"122 142 LINE",
"129 177 LINE",
"131 186 LINE",
"157 310 LINE",
"218 570 LINE",
"250 694 LINE",
"393 1341 LINE",
"393 1346 LINE",
"407 1361 LINE",
"414 1364 LINE",
"419 1364 LINE",
"426 1362 LINE",
"432 1362 LINE",
"458 1362 LINE",
"514 1374 LINE",
"543 1374 LINE",
"586 1374 LINE",
"667 1364 LINE"
);
},
{
closed = 1;
nodes = (
"995 1016 LINE",
"995 1015 LINE",
"986 962 LINE",
"971 877 LINE",
"952 769 LINE",
"933 657 LINE",
"914 548 LINE",
"907 506 LINE",
"1012 506 LINE",
"1014 508 LINE",
"1024 512 LINE",
"1026 512 LINE",
"1030 512 LINE",
"1050 512 LINE",
"1081 503 LINE",
"1095 500 LINE",
"1088 542 LINE",
"1070 651 LINE",
"1050 765 LINE",
"1031 875 LINE",
"1016 961 LINE",
"1007 1015 LINE",
"1007 1016 LINE",
"1006 1020 LINE",
"1005 1024 LINE",
"1004 1028 LINE",
"1003 1039 LINE",
"1001 1047 LINE",
"999 1039 LINE",
"997 1028 LINE",
"996 1024 LINE",
"995 1020 LINE"
);
}
);
width = 1880;
}
);
unicode = 0041;
},
{
glyphname = AE;
lastChange = "2016-07-06 09:50:25 +0000";
layers = (
{
layerId = UUID0;
paths = (
{
closed = 1;
nodes = (
"1025 1364 LINE",
"1026 1364 LINE",
"1051 1365 LINE",
"1088 1367 LINE",
"1130 1369 LINE",
"1165 1372 LINE",
"1188 1373 LINE",
"1187 1374 LINE",
"1194 1374 LINE",
"1261 1375 LINE",
"1351 1375 LINE",
"1450 1374 LINE",
"1489 1373 LINE",
"1591 1374 LINE",
"1782 1380 LINE",
"1976 1383 LINE",
"2182 1379 LINE",
"2300 1370 LINE",
"2314 1370 LINE",
"2330 1320 LINE",
"2340 1244 LINE",
"2350 1153 LINE",
"2358 1113 LINE",
"2358 1087 LINE",
"2356 1064 LINE",
"2349 1055 LINE",
"2338 1057 LINE",
"2331 1057 LINE",
"2235 1057 LINE",
"2035 1055 LINE",
"1935 1055 LINE",
"1926 1055 LINE",
"1911 1005 LINE",
"1901 938 LINE",
"1896 872 LINE",
"1896 856 LINE",
"1896 828 LINE",
"1911 813 LINE",
"1928 813 LINE",
"2021 813 LINE",
"2201 814 LINE",
"2291 805 LINE",
"2307 803 LINE",
"2329 801 LINE",
"2345 794 LINE",
"2356 776 LINE",
"2361 758 LINE",
"2369 575 LINE",
"2369 569 LINE",
"2369 551 LINE",
"2329 531 LINE",
"2262 521 LINE",
"2176 518 LINE",
"2131 518 LINE",
"2043 518 LINE",
"1945 522 LINE",
"1899 511 LINE",
"1889 475 LINE",
"1889 436 LINE",
"1889 400 LINE",
"1881 329 LINE",
"1883 291 LINE",
"1982 291 LINE",
"2180 293 LINE",
"2277 293 LINE",
"2280 293 LINE",
"2288 263 LINE",
"2296 215 LINE",
"2304 158 LINE",
"2310 105 LINE",
"2314 62 LINE",
"2314 53 LINE",
"2314 35 LINE",
"2295 10 LINE",
"2273 10 LINE",
"2208 10 LINE",
"2089 2 LINE",
"2023 2 LINE",
"1945 2 LINE",
"1788 1 LINE",
"1708 1 LINE",
"1702 -2 LINE",
"1694 -2 LINE",
"1686 -2 LINE",
"1645 -2 LINE",
"1592 -1 LINE",
"1536 0 LINE",
"1512 0 LINE",
"1375 0 LINE",
"1371 0 LINE",
"1356 1 LINE",
"1347 2 LINE",
"1331 2 LINE",
"1331 4 LINE",
"1308 7 LINE",
"1305 2 LINE",
"1302 2 LINE",
"1296 2 LINE",
"1295 2 LINE",
"1262 4 LINE",
"1216 7 LINE",
"1163 10 LINE",
"1143 10 LINE",
"1134 35 LINE",
"1134 163 LINE",
"1136 250 LINE",
"1091 242 LINE",
"972 244 LINE",
"919 244 LINE",
"884 160 LINE",
"827 35 LINE",
"807 10 LINE",
"799 10 LINE",
"776 2 LINE",
"775 2 LINE",
"769 2 LINE",
"758 2 LINE",
"747 10 LINE",
"742 10 LINE",
"689 9 LINE",
"649 7 LINE",
"631 6 LINE",
"598 5 LINE",
"572 3 LINE",
"556 2 LINE",
"556 2 LINE",
"366 2 LINE",
"364 2 LINE",
"332 1 LINE",
"285 0 LINE",
"229 -1 LINE",
"177 -2 LINE",
"137 -2 LINE",
"130 -2 LINE",
"114 -2 LINE",
"103 21 LINE",
"106 57 LINE",
"120 100 LINE",
"136 142 LINE",
"152 177 LINE",
"155 186 LINE",
"209 310 LINE",
"329 570 LINE",
"389 694 LINE",
"698 1341 LINE",
"699 1346 LINE",
"716 1361 LINE",
"724 1364 LINE",
"729 1364 LINE",
"735 1362 LINE",
"741 1362 LINE",
"767 1362 LINE",
"826 1374 LINE",
"855 1374 LINE",
"898 1374 LINE",
"977 1364 LINE"
);
},
{
closed = 1;
nodes = (
"1186 1016 LINE",
"1186 1015 LINE",
"1167 962 LINE",
"1137 877 LINE",
"1098 769 LINE",
"1058 657 LINE",
"1018 548 LINE",
"1003 506 LINE",
"1088 506 LINE",
"1107 506 LINE",
"1154 505 LINE",
"1170 500 LINE",
"1172 542 LINE",
"1178 651 LINE",
"1185 765 LINE",
"1190 875 LINE",
"1195 961 LINE",
"1198 1015 LINE",
"1198 1016 LINE",
"1198 1024 LINE",
"1198 1028 LINE",
"1199 1039 LINE",
"1199 1047 LINE",
"1196 1039 LINE",
"1191 1028 LINE",
"1189 1024 LINE",
"1187 1020 LINE"
);
}
);
width = 2478;
}
);
unicode = 00C6;
},
{
glyphname = B;
lastChange = "2016-07-06 09:50:25 +0000";
layers = (
{
layerId = UUID0;
paths = (
{
closed = 1;
nodes = (
"118 1075 LINE",
"118 1110 LINE",
"116 1177 LINE",
"116 1208 LINE",
"116 1237 LINE",
"120 1289 LINE",
"125 1313 LINE",
"128 1327 LINE",
"133 1360 LINE",
"147 1387 LINE",
"177 1405 LINE",
"206 1405 LINE",
"243 1405 LINE",
"342 1411 LINE",
"447 1417 LINE",
"548 1423 LINE",
"589 1423 LINE",
"685 1423 LINE",
"887 1403 LINE",
"983 1391 LINE",
"1037 1384 LINE",
"1164 1367 LINE",
"1292 1337 LINE",
"1410 1290 LINE",
"1501 1216 LINE",
"1556 1110 LINE",
"1556 1036 LINE",
"1556 948 LINE",
"1487 821 LINE",
"1415 776 LINE",
"1398 767 LINE",
"1362 753 LINE",
"1329 739 LINE",
"1303 723 LINE",
"1296 713 LINE",
"1298 711 LINE",
"1300 707 LINE",
"1302 705 LINE",
"1381 672 LINE",
"1493 600 LINE",
"1564 525 LINE",
"1597 448 LINE",
"1597 410 LINE",
"1597 350 LINE",
"1524 234 LINE",
"1396 132 LINE",
"1225 48 LINE",
"1126 20 LINE",
"1050 -2 LINE",
"903 -29 LINE",
"768 -44 LINE",
"650 -49 LINE",
"602 -49 LINE",
"467 -49 LINE",
"285 -36 LINE",
"175 6 LINE",
"129 83 LINE",
"129 147 LINE",
"129 167 LINE",
"131 229 LINE",
"133 294 LINE",
"135 352 LINE",
"135 367 LINE",
"135 543 LINE",
"118 898 LINE"
);
},
{
closed = 1;
nodes = (
"817 522 LINE",
"804 522 LINE",
"794 505 LINE",
"794 494 LINE",
"794 330 LINE",
"794 319 LINE",
"806 315 LINE",
"811 315 LINE",
"813 315 LINE",
"817 315 LINE",
"817 317 LINE",
"981 396 LINE",
"1142 469 LINE",
"1146 474 LINE",
"1158 480 LINE",
"1161 483 LINE",
"1115 497 LINE",
"1034 513 LINE",
"953 520 LINE",
"868 522 LINE"
);
},
{
closed = 1;
nodes = (
"829 928 LINE",
"829 917 LINE",
"831 905 LINE",
"845 905 LINE",
"850 905 LINE",
"888 920 LINE",
"940 943 LINE",
"997 970 LINE",
"1046 993 LINE",
"1079 1008 LINE",
"1081 1008 LINE",
"1088 1010 LINE",
"1106 1015 LINE",
"1106 1025 LINE",
"1106 1044 LINE",
"1059 1066 LINE",
"996 1078 LINE",
"933 1081 LINE",
"917 1081 LINE",
"883 1081 LINE",
"847 1056 LINE",
"831 1013 LINE",
"829 958 LINE"
);
}
);
width = 1680;
}
);
unicode = 0042;
},
{
glyphname = C;
lastChange = "2016-07-06 09:50:25 +0000";
layers = (
{
layerId = UUID0;
paths = (
{
closed = 1;
nodes = (
"778 670 LINE",
"778 645 LINE",
"780 599 LINE",
"782 578 LINE",
"788 511 LINE",
"819 418 LINE",
"864 361 LINE",
"921 336 LINE",
"954 336 LINE",
"985 336 LINE",
"1053 355 LINE",
"1125 389 LINE",
"1199 433 LINE",
"1235 459 LINE",
"1253 123 LINE",
"1213 84 LINE",
"1108 20 LINE",
"992 -25 LINE",
"876 -49 LINE",
"825 -49 LINE",
"769 -49 LINE",
"656 -44 LINE",
"545 -29 LINE",
"438 0 LINE",
"389 23 LINE",
"369 32 LINE",
"330 54 LINE",
"311 68 LINE",
"280 94 LINE",
"226 158 LINE",
"203 197 LINE",
"164 241 LINE",
"137 299 LINE",
"112 367 LINE",
"84 535 LINE",
"84 641 LINE",
"84 762 LINE",
"133 965 LINE",
"178 1049 LINE",
"262 1220 LINE",
"545 1409 LINE",
"723 1421 LINE",
"735 1423 LINE",
"760 1423 LINE",
"774 1423 LINE",
"859 1423 LINE",
"948 1405 LINE",
"1033 1388 LINE",
"1205 1321 LINE",
"1292 1270 LINE",
"1255 1004 LINE",
"1196 1018 LINE",
"1072 1049 LINE",
"1012 1049 LINE",
"961 1049 LINE",
"871 1013 LINE",
"839 965 LINE",
"810 921 LINE",
"778 779 LINE"
);
}
);
width = 1384;
}
);
unicode = 0043;
},
{
glyphname = D;
lastChange = "2016-07-06 09:50:25 +0000";
layers = (
{
layerId = UUID0;
paths = (
{
closed = 1;
nodes = (
"767 -2 LINE",
"700 -2 LINE",
"567 -1 LINE",
"426 1 LINE",
"273 2 LINE",
"185 2 LINE",
"166 2 LINE",
"144 26 LINE",
"133 63 LINE",
"130 107 LINE",
"130 127 LINE",
"130 175 LINE",
"127 342 LINE",
"122 546 LINE",
"119 768 LINE",
"119 870 LINE",
"119 1321 LINE",
"119 1340 LINE",
"154 1374 LINE",
"173 1374 LINE",
"310 1374 LINE",
"508 1370 LINE",
"580 1370 LINE",
"692 1370 LINE",
"945 1376 LINE",
"1096 1376 LINE",
"1152 1376 LINE",
"1279 1355 LINE",
"1405 1303 LINE",
"1521 1214 LINE",
"1609 1078 LINE",
"1662 888 LINE",
"1662 762 LINE",
"1662 552 LINE",
"1570 261 LINE",
"1359 80 LINE",
"1017 -2 LINE"
);
},
{
closed = 1;
nodes = (
"783 270 LINE",
"803 269 LINE",
"821 270 LINE",
"836 271 LINE",
"867 277 LINE",
"875 285 LINE",
"888 298 LINE",
"912 361 LINE",
"933 446 LINE",
"950 549 LINE",
"962 656 LINE",
"969 761 LINE",
"969 807 LINE",
"969 814 LINE",
"968 875 LINE",
"963 958 LINE",
"952 1051 LINE",
"931 1130 LINE",
"898 1182 LINE",
"875 1182 LINE",
"858 1182 LINE",
"833 1175 LINE",
"824 1171 LINE",
"813 1167 LINE",
"806 1161 LINE",
"806 1114 LINE",
"804 988 LINE",
"801 845 LINE",
"796 694 LINE",
"794 622 LINE"
);
}
);
width = 1756;
}
);
unicode = 0044;
},
{
glyphname = Eth;
lastChange = "2016-07-06 09:50:25 +0000";
layers = (
{
layerId = UUID0;
paths = (
{
closed = 1;
nodes = (
"842 -2 LINE",
"780 -2 LINE",
"659 -1 LINE",
"530 1 LINE",
"390 2 LINE",
"310 2 LINE",
"291 2 LINE",
"269 26 LINE",
"258 63 LINE",
"255 107 LINE",
"255 127 LINE",
"255 158 LINE",
"253 251 LINE",
"251 366 LINE",
"248 498 LINE",
"247 568 LINE",
"215 568 LINE",
"158 570 LINE",
"116 578 LINE",
"91 591 LINE",
"91 603 LINE",
"91 639 LINE",
"90 694 LINE",
"89 746 LINE",
"88 800 LINE",
"88 835 LINE",
"88 840 LINE",
"99 851 LINE",
"116 860 LINE",
"137 866 LINE",
"146 866 LINE",
"171 866 LINE",
"219 866 LINE",
"244 867 LINE",
"244 870 LINE",
"244 1321 LINE",
"244 1340 LINE",
"279 1374 LINE",
"298 1374 LINE",
"419 1374 LINE",
"590 1370 LINE",
"655 1370 LINE",
"767 1370 LINE",
"1020 1376 LINE",
"1171 1376 LINE",
"1227 1376 LINE",
"1354 1355 LINE",
"1480 1301 LINE",
"1596 1209 LINE",
"1684 1068 LINE",
"1737 872 LINE",
"1737 742 LINE",
"1737 538 LINE",
"1645 254 LINE",
"1434 77 LINE",
"1092 -2 LINE"
);
},
{
closed = 1;
nodes = (
"858 270 LINE",
"883 269 LINE",
"905 270 LINE",
"924 271 LINE",
"961 277 LINE",
"970 285 LINE",
"992 305 LINE",
"1030 373 LINE",
"1058 493 LINE",
"1074 674 LINE",
"1074 807 LINE",
"1074 814 LINE",
"1073 875 LINE",
"1066 958 LINE",
"1051 1051 LINE",
"1023 1130 LINE",
"981 1182 LINE",
"950 1182 LINE",
"927 1182 LINE",
"894 1175 LINE",
"883 1171 LINE",
"870 1167 LINE",
"861 1161 LINE",
"861 1105 LINE",
"861 951 LINE",
"860 865 LINE",
"884 864 LINE",
"930 861 LINE",
"968 855 LINE",
"991 843 LINE",
"991 834 LINE",
"991 797 LINE",
"989 747 LINE",
"987 705 LINE",
"985 664 LINE",
"985 637 LINE",
"985 622 LINE",
"980 599 LINE",
"955 583 LINE",
"904 574 LINE",
"859 573 LINE",
"859 509 LINE",
"858 400 LINE",
"858 358 LINE"
);
}
);
width = 1833;
}
);
unicode = 00D0;
},
{
glyphname = Dcroat;
lastChange = "2016-07-06 09:50:25 +0000";
layers = (
{
layerId = UUID0;
paths = (
{
closed = 1;
nodes = (
"767 -2 LINE",
"700 -2 LINE",
"567 -1 LINE",
"426 1 LINE",
"273 2 LINE",
"185 2 LINE",
"166 2 LINE",
"144 26 LINE",
"133 63 LINE",
"130 107 LINE",
"130 127 LINE",
"130 175 LINE",
"127 342 LINE",
"124 444 LINE",
"123 512 LINE",
"121 583 LINE",
"92 583 LINE",
"61 583 LINE",
"9 590 LINE",
"-23 608 LINE",
"-23 625 LINE",
"-23 657 LINE",
"-24 706 LINE",
"-24 751 LINE",
"-25 800 LINE",
"-25 830 LINE",
"-25 837 LINE",
"-15 850 LINE",
"2 861 LINE",
"21 868 LINE",
"30 868 LINE",
"119 868 LINE",
"119 870 LINE",
"119 1321 LINE",
"119 1340 LINE",
"154 1374 LINE",
"173 1374 LINE",
"310 1374 LINE",
"508 1370 LINE",
"580 1370 LINE",
"692 1370 LINE",
"945 1376 LINE",
"1096 1376 LINE",
"1152 1376 LINE",
"1279 1355 LINE",
"1405 1303 LINE",
"1521 1214 LINE",
"1609 1078 LINE",
"1662 888 LINE",
"1662 762 LINE",
"1662 552 LINE",
"1570 261 LINE",
"1359 80 LINE",
"1017 -2 LINE"
);
},
{
closed = 1;
nodes = (
"723 270 LINE",
"767 269 LINE",
"807 270 LINE",
"841 271 LINE",
"910 277 LINE",
"927 284 LINE",
"956 297 LINE",
"1010 358 LINE",
"1056 440 LINE",
"1094 540 LINE",
"1121 643 LINE",
"1136 744 LINE",
"1136 789 LINE",
"1136 796 LINE",
"1134 854 LINE",
"1123 935 LINE",
"1098 1024 LINE",
"1052 1101 LINE",
"978 1151 LINE",
"927 1151 LINE",
"890 1151 LINE",
"834 1144 LINE",
"814 1140 LINE",
"790 1137 LINE",
"774 1131 LINE",
"774 1085 LINE",
"770 964 LINE",
"766 894 LINE",
"765 878 LINE",
"765 861 LINE",
"771 861 LINE",
"812 861 LINE",
"825 861 LINE",
"846 861 LINE",
"890 859 LINE",
"928 852 LINE",
"953 835 LINE",
"953 822 LINE",
"953 799 LINE",
"955 770 LINE",
"956 749 LINE",
"957 734 LINE",
"958 714 LINE",
"959 687 LINE",
"959 664 LINE",
"959 650 LINE",
"957 620 LINE",
"945 594 LINE",
"923 577 LINE",
"903 577 LINE",
"857 577 LINE",
"790 578 LINE",
"762 579 LINE",
"753 579 LINE",
"745 579 LINE"
);
}
);
width = 1756;
}
);
unicode = 0110;
},
{
glyphname = E;
lastChange = "2016-07-06 09:50:25 +0000";
layers = (
{
layerId = UUID0;
paths = (
{
closed = 1;
nodes = (
"116 805 LINE",
"116 935 LINE",
"120 1192 LINE",
"133 1331 LINE",
"133 1345 LINE",
"161 1361 LINE",
"205 1370 LINE",
"259 1372 LINE",
"284 1372 LINE",
"412 1372 LINE",
"640 1379 LINE",
"865 1383 LINE",
"1103 1380 LINE",
"1241 1370 LINE",
"1260 1370 LINE",
"1282 1326 LINE",
"1296 1259 LINE",
"1309 1179 LINE",
"1319 1143 LINE",
"1320 1117 LINE",
"1315 1094 LINE",
"1304 1085 LINE",
"1285 1087 LINE",
"1272 1087 LINE",
"1221 1087 LINE",
"1115 1079 LINE",
"1007 1069 LINE",
"899 1058 LINE",
"846 1055 LINE",
"837 1055 LINE",
"822 1005 LINE",
"812 938 LINE",
"807 872 LINE",
"807 856 LINE",
"807 828 LINE",
"822 813 LINE",
"839 813 LINE",
"932 813 LINE",
"1112 814 LINE",
"1202 805 LINE",
"1218 803 LINE",
"1240 801 LINE",
"1256 794 LINE",
"1267 776 LINE",
"1272 758 LINE",
"1280 575 LINE",
"1280 569 LINE",
"1280 551 LINE",
"1240 531 LINE",
"1173 521 LINE",
"1087 518 LINE",
"1042 518 LINE",
"954 518 LINE",
"856 522 LINE",
"810 511 LINE",
"800 475 LINE",
"800 436 LINE",
"800 398 LINE",
"792 323 LINE",
"794 281 LINE",
"893 281 LINE",
"1091 293 LINE",
"1188 293 LINE",
"1195 293 LINE",
"1211 263 LINE",
"1228 215 LINE",
"1244 158 LINE",
"1257 105 LINE",
"1265 62 LINE",
"1265 53 LINE",
"1265 35 LINE",
"1246 10 LINE",
"1224 10 LINE",
"1150 10 LINE",
"1011 2 LINE",
"934 2 LINE",
"773 2 LINE",
"448 0 LINE",
"286 0 LINE",
"278 0 LINE",
"231 5 LINE",
"182 13 LINE",
"144 23 LINE",
"145 29 LINE",
"145 51 LINE",
"142 126 LINE",
"137 215 LINE",
"131 312 LINE",
"126 403 LINE",
"123 479 LINE",
"123 504 LINE",
"123 537 LINE",
"121 592 LINE",
"118 657 LINE",
"116 742 LINE"
);
}
);
width = 1419;
}
);
unicode = 0045;
},
{
glyphname = F;
lastChange = "2016-07-06 09:50:25 +0000";
layers = (
{
layerId = UUID0;
paths = (
{
closed = 1;
nodes = (
"116 1341 LINE",
"116 1352 LINE",
"126 1361 LINE",
"139 1364 LINE",
"150 1362 LINE",
"151 1362 LINE",
"223 1362 LINE",
"457 1372 LINE",
"598 1372 LINE",
"601 1372 LINE",
"638 1371 LINE",
"680 1371 LINE",
"716 1370 LINE",
"718 1370 LINE",
"765 1370 LINE",
"862 1368 LINE",
"967 1366 LINE",
"1084 1364 LINE",
"1151 1364 LINE",
"1166 1364 LINE",
"1187 1358 LINE",
"1205 1355 LINE",
"1222 1356 LINE",
"1231 1364 LINE",
"1258 1364 LINE",
"1280 1316 LINE",
"1285 1237 LINE",
"1280 1135 LINE",
"1280 1081 LINE",
"1280 1068 LINE",
"1257 1056 LINE",
"1224 1052 LINE",
"1189 1053 LINE",
"1177 1053 LINE",
"1085 1053 LINE",
"1063 1053 LINE",
"1037 1050 LINE",
"1013 1047 LINE",
"985 1044 LINE",
"960 1044 LINE",
"945 1044 LINE",
"916 1045 LINE",
"911 1047 LINE",
"906 1045 LINE",
"898 1040 LINE",
"895 1038 LINE",
"894 1033 LINE",
"889 1004 LINE",
"884 952 LINE",
"880 874 LINE",
"880 819 LINE",
"881 820 LINE",
"877 806 LINE",
"886 797 LINE",
"927 797 LINE",
"1132 797 LINE",
"1154 797 LINE",
"1179 784 LINE",
"1191 749 LINE",
"1194 687 LINE",
"1194 639 LINE",
"1194 579 LINE",
"1194 507 LINE",
"1189 467 LINE",
"1176 454 LINE",
"1164 454 LINE",
"1153 454 LINE",
"1111 451 LINE",
"1062 448 LINE",
"1014 446 LINE",
"997 446 LINE",
"982 446 LINE",
"966 444 LINE",
"952 441 LINE",
"935 438 LINE",
"919 436 LINE",
"903 434 LINE",
"877 436 LINE",
"855 433 LINE",
"835 422 LINE",
"825 408 LINE",
"825 334 LINE",
"824 205 LINE",
"820 102 LINE",
"809 28 LINE",
"800 10 LINE",
"778 10 LINE",
"720 7 LINE",
"668 4 LINE",
"631 2 LINE",
"630 2 LINE",
"621 1 LINE",
"610 4 LINE",
"603 7 LINE",
"596 10 LINE",
"592 10 LINE",
"590 10 LINE",
"577 4 LINE",
"575 2 LINE",
"405 2 LINE",
"403 0 LINE",
"349 -9 LINE",
"282 -17 LINE",
"221 -23 LINE",
"211 -23 LINE",
"185 -23 LINE",
"160 26 LINE",
"150 90 LINE",
"150 152 LINE",
"149 166 LINE",
"145 230 LINE",
"140 363 LINE",
"134 497 LINE",
"125 630 LINE",
"116 694 LINE"
);
}
);
width = 1355;
}
);
unicode = 0046;
},
{
glyphname = G;
lastChange = "2016-07-06 09:50:25 +0000";
layers = (
{
layerId = UUID0;
paths = (
{
closed = 1;
nodes = (
"1592 291 LINE",
"1592 243 LINE",
"1591 151 LINE",
"1588 75 LINE",
"1581 19 LINE",
"1574 6 LINE",
"1557 6 LINE",
"1515 4 LINE",
"1495 3 LINE",
"1472 1 LINE",
"1449 0 LINE",
"1443 0 LINE",
"1427 0 LINE",
"1423 3 LINE",
"1420 4 LINE",
"1420 6 LINE",
"1414 4 LINE",
"1408 2 LINE",
"1408 0 LINE",
"1205 0 LINE",
"1203 0 LINE",
"1184 -1 LINE",
"1160 -1 LINE",
"1137 -2 LINE",
"1133 -2 LINE",
"1125 -2 LINE",
"1112 23 LINE",
"1103 68 LINE",
"1097 130 LINE",
"1094 168 LINE",
"1083 115 LINE",
"1015 35 LINE",
"913 -19 LINE",
"783 -47 LINE",
"711 -47 LINE",
"642 -47 LINE",
"496 -13 LINE",
"357 60 LINE",
"234 174 LINE",
"141 336 LINE",
"87 548 LINE",
"87 682 LINE",
"87 860 LINE",
"214 1136 LINE",
"438 1325 LINE",
"743 1423 LINE",
"920 1423 LINE",
"1048 1423 LINE",
"1322 1356 LINE",
"1459 1290 LINE",
"1381 942 LINE",
"1343 952 LINE",
"1261 975 LINE",
"1178 995 LINE",
"1095 1008 LINE",
"1056 1008 LINE",
"998 1008 LINE",
"898 979 LINE",
"824 903 LINE",
"781 772 LINE",
"781 670 LINE",
"781 581 LINE",
"807 461 LINE",
"854 388 LINE",
"919 356 LINE",
"957 356 LINE",
"985 356 LINE",
"1048 371 LINE",
"1080 385 LINE",
"1078 458 LINE",
"1073 598 LINE",
"1073 667 LINE",
"1073 704 LINE",
"1074 741 LINE",
"1086 755 LINE",
"1112 754 LINE",
"1137 754 LINE",
"1354 754 LINE",
"1431 754 LINE",
"1526 756 LINE",
"1579 747 LINE",
"1598 720 LINE",
"1598 690 LINE",
"1598 681 LINE",
"1599 667 LINE",
"1599 643 LINE",
"1600 600 LINE",
"1600 561 LINE",
"1600 352 LINE",
"1600 350 LINE",
"1597 332 LINE",
"1594 310 LINE",
"1592 292 LINE"
);
}
);
width = 1694;
}
);
unicode = 0047;
},
{
glyphname = H;
lastChange = "2016-07-06 09:50:25 +0000";
layers = (
{
layerId = UUID0;
paths = (
{
closed = 1;
nodes = (
"1060 954 LINE",
"1061 1032 LINE",
"1063 1094 LINE",
"1064 1121 LINE",
"1065 1173 LINE",
"1066 1216 LINE",
"1067 1245 LINE",
"1067 1248 LINE",
"1067 1284 LINE",
"1069 1329 LINE",
"1086 1353 LINE",
"1125 1362 LINE",
"1163 1362 LINE",
"1176 1362 LINE",
"1259 1363 LINE",
"1371 1366 LINE",
"1497 1368 LINE",
"1609 1371 LINE",
"1692 1372 LINE",
"1704 1372 LINE",
"1727 1372 LINE",
"1761 1368 LINE",
"1783 1351 LINE",
"1793 1320 LINE",
"1793 1293 LINE",
"1793 1231 LINE",
"1789 1127 LINE",
"1784 1028 LINE",
"1780 925 LINE",
"1780 864 LINE",
"1780 853 LINE",
"1785 833 LINE",
"1785 823 LINE",
"1737 47 LINE",
"1737 41 LINE",
"1728 25 LINE",
"1715 10 LINE",
"1698 0 LINE",
"1690 0 LINE",
"1127 0 LINE",
"1119 0 LINE",
"1108 18 LINE",
"1100 49 LINE",
"1095 88 LINE",
"1094 109 LINE",
"1072 485 LINE",
"1071 485 LINE",
"1040 486 LINE",
"993 488 LINE",
"938 491 LINE",
"890 493 LINE",
"855 494 LINE",
"853 494 LINE",
"842 494 LINE",
"838 468 LINE",
"838 459 LINE",
"838 344 LINE",
"837 187 LINE",
"833 84 LINE",
"824 28 LINE",
"807 3 LINE",
"782 -2 LINE",
"763 -2 LINE",
"649 -10 LINE",
"541 -12 LINE",
"495 -13 LINE",
"396 -12 LINE",
"301 -6 LINE",
"213 5 LINE",
"177 14 LINE",
"172 15 LINE",
"163 31 LINE",
"157 50 LINE",
"154 67 LINE",
"154 70 LINE",
"115 815 LINE",
"115 834 LINE",
"115 854 LINE",
"115 871 LINE",
"117 953 LINE",
"120 1057 LINE",
"123 1169 LINE",
"126 1262 LINE",
"130 1323 LINE",
"132 1325 LINE",
"136 1329 LINE",
"153 1345 LINE",
"178 1362 LINE",
"209 1373 LINE",
"226 1372 LINE",
"343 1372 LINE",
"345 1372 LINE",
"407 1371 LINE",
"496 1370 LINE",
"599 1368 LINE",
"688 1367 LINE",
"748 1366 LINE",
"750 1366 LINE",
"774 1366 LINE",
"810 1360 LINE",
"833 1342 LINE",
"845 1308 LINE",
"845 1280 LINE",
"845 1274 LINE",
"842 1244 LINE",
"839 1209 LINE",
"836 1177 LINE",
"836 1169 LINE",
"836 1161 LINE",
"842 1141 LINE",
"842 1130 LINE",
"842 1090 LINE",
"838 1014 LINE",
"838 969 LINE",
"861 969 LINE",
"918 964 LINE",
"977 959 LINE",
"1035 954 LINE"
);
}
);
width = 1905;
}
);
unicode = 0048;
},
{
glyphname = Hbar;
lastChange = "2016-07-06 09:50:25 +0000";
layers = (
{
layerId = UUID0;
paths = (
{
closed = 1;
nodes = (
"35 1063 LINE",
"4 1070 LINE",
"4 1082 LINE",
"4 1102 LINE",
"3 1135 LINE",
"3 1165 LINE",
"0 1197 LINE",
"0 1219 LINE",
"0 1223 LINE",
"21 1231 LINE",
"54 1238 LINE",
"89 1243 LINE",
"107 1243 LINE",
"125 1243 LINE",
"126 1271 LINE",
"128 1292 LINE",
"130 1323 LINE",
"132 1325 LINE",
"136 1329 LINE",
"153 1345 LINE",
"178 1362 LINE",
"209 1373 LINE",
"226 1372 LINE",
"343 1372 LINE",
"345 1372 LINE",
"407 1371 LINE",
"496 1370 LINE",
"599 1368 LINE",
"688 1367 LINE",
"748 1366 LINE",
"750 1366 LINE",
"774 1366 LINE",
"810 1360 LINE",
"833 1342 LINE",
"845 1308 LINE",
"845 1280 LINE",
"845 1274 LINE",
"843 1259 LINE",
"842 1251 LINE",
"841 1242 LINE",
"906 1242 LINE",
"983 1242 LINE",
"1066 1241 LINE",
"1067 1246 LINE",
"1067 1248 LINE",
"1067 1284 LINE",
"1069 1329 LINE",
"1086 1353 LINE",
"1125 1362 LINE",
"1163 1362 LINE",
"1176 1362 LINE",
"1259 1363 LINE",
"1371 1366 LINE",
"1497 1368 LINE",
"1609 1371 LINE",
"1692 1372 LINE",
"1704 1372 LINE",
"1727 1372 LINE",
"1761 1368 LINE",
"1783 1351 LINE",
"1793 1320 LINE",
"1793 1293 LINE",
"1793 1263 LINE",
"1792 1236 LINE",
"1808 1235 LINE",
"1823 1234 LINE",
"1860 1231 LINE",
"1909 1221 LINE",
"1909 1212 LINE",
"1909 1197 LINE",
"1912 1178 LINE",
"1913 1165 LINE",
"1916 1155 LINE",
"1917 1141 LINE",
"1920 1123 LINE",
"1920 1107 LINE",
"1920 1098 LINE",
"1916 1078 LINE",
"1894 1061 LINE",
"1849 1050 LINE",
"1810 1050 LINE",
"1784 1050 LINE",
"1783 1014 LINE",
"1782 976 LINE",
"1780 925 LINE",
"1780 864 LINE",
"1780 853 LINE",
"1785 833 LINE",
"1785 823 LINE",
"1737 47 LINE",
"1737 41 LINE",
"1728 25 LINE",
"1715 10 LINE",
"1698 0 LINE",
"1690 0 LINE",
"1127 0 LINE",
"1119 0 LINE",
"1108 18 LINE",
"1100 49 LINE",
"1095 88 LINE",
"1094 109 LINE",
"1072 485 LINE",
"1071 485 LINE",
"1040 486 LINE",
"993 488 LINE",
"938 491 LINE",
"890 493 LINE",
"855 494 LINE",
"853 494 LINE",
"842 494 LINE",
"838 468 LINE",
"838 459 LINE",
"838 344 LINE",
"837 187 LINE",
"833 84 LINE",
"824 28 LINE",
"807 3 LINE",
"782 -2 LINE",
"763 -2 LINE",
"649 -10 LINE",
"541 -12 LINE",
"495 -13 LINE",
"396 -12 LINE",
"301 -6 LINE",
"213 5 LINE",
"177 14 LINE",
"172 15 LINE",
"163 31 LINE",
"157 50 LINE",
"154 67 LINE",
"154 70 LINE",
"115 815 LINE",
"115 854 LINE",
"115 871 LINE",
"117 953 LINE",
"118 1005 LINE",
"119 1030 LINE",
"120 1055 LINE",
"117 1055 LINE",
"67 1057 LINE"
);
},
{
closed = 1;
nodes = (
"1060 954 LINE",
"1060 1007 LINE",
"1061 1053 LINE",
"1002 1054 LINE",
"951 1054 LINE",
"897 1054 LINE",
"859 1054 LINE",
"840 1054 LINE",
"840 1052 LINE",
"838 1014 LINE",
"838 969 LINE",
"861 969 LINE",
"918 964 LINE",
"977 959 LINE",
"1035 954 LINE"
);
}
);
width = 1905;
}
);
unicode = 0126;
},
{
glyphname = I;
lastChange = "2016-07-06 09:50:25 +0000";
layers = (
{
layerId = UUID0;
paths = (
{
closed = 1;
nodes = (
"857 408 LINE",
"855 340 LINE",
"853 213 LINE",
"850 106 LINE",
"841 28 LINE",
"832 10 LINE",
"809 10 LINE",
"751 7 LINE",
"699 4 LINE",
"663 2 LINE",
"662 2 LINE",
"656 2 LINE",
"644 2 LINE",
"631 10 LINE",
"623 10 LINE",
"619 9 LINE",
"615 7 LINE",
"607 3 LINE",
"607 2 LINE",
"417 2 LINE",
"414 1 LINE",
"349 0 LINE",
"267 -1 LINE",
"193 -2 LINE",
"181 -2 LINE",
"164 -2 LINE",
"142 21 LINE",
"129 57 LINE",
"123 100 LINE",
"120 142 LINE",
"120 177 LINE",
"120 186 LINE",
"122 310 LINE",
"123 570 LINE",
"128 694 LINE",
"128 1341 LINE",
"128 1358 LINE",
"150 1362 LINE",
"163 1362 LINE",
"266 1362 LINE",
"468 1364 LINE",
"572 1364 LINE",
"581 1364 LINE",
"601 1369 LINE",
"637 1372 LINE",
"695 1370 LINE",
"740 1364 LINE",
"749 1356 LINE",
"764 1361 LINE",
"773 1364 LINE",
"801 1364 LINE",
"838 1357 LINE",
"860 1326 LINE",
"869 1265 LINE",
"869 1211 LINE",
"869 811 LINE",
"869 810 LINE",
"867 751 LINE",
"865 662 LINE",
"861 560 LINE",
"859 471 LINE",
"857 410 LINE"
);
}
);
width = 984;
}
);
unicode = 0049;
},
{
glyphname = J;
lastChange = "2016-07-06 09:50:25 +0000";
layers = (
{
layerId = UUID0;
paths = (
{
closed = 1;
nodes = (
"1102 133 LINE",
"1039 75 LINE",
"897 5 LINE",
"835 -15 LINE",
"763 -38 LINE",
"692 -49 LINE",
"552 -68 LINE",
"268 -40 LINE",
"137 14 LINE",
"47 55 LINE",
"45 62 LINE",
"48 92 LINE",
"52 131 LINE",
"57 175 LINE",
"59 197 LINE",
"59 208 LINE",
"63 249 LINE",
"67 287 LINE",
"72 313 LINE",
"74 309 LINE",
"125 291 LINE",
"204 267 LINE",
"278 253 LINE",
"355 247 LINE",
"403 248 LINE",
"427 248 LINE",
"458 283 LINE",
"478 330 LINE",
"489 379 LINE",
"493 393 LINE",
"495 428 LINE",
"500 537 LINE",
"500 621 LINE",
"501 682 LINE",
"502 791 LINE",
"503 832 LINE",
"504 880 LINE",
"504 920 LINE",
"502 1341 LINE",
"502 1358 LINE",
"524 1362 LINE",
"536 1362 LINE",
"639 1362 LINE",
"842 1364 LINE",
"946 1364 LINE",
"1147 1364 LINE",
"1175 1364 LINE",
"1212 1357 LINE",
"1234 1326 LINE",
"1243 1265 LINE",
"1243 1211 LINE",
"1243 811 LINE",
"1243 810 LINE",
"1242 779 LINE",
"1240 734 LINE",
"1238 682 LINE",
"1236 636 LINE",
"1235 604 LINE",
"1235 602 LINE",
"1235 543 LINE",
"1229 414 LINE",
"1203 290 LINE",
"1150 177 LINE"
);
}
);
width = 1344;
}
);
unicode = 004A;
},
{
glyphname = K;
lastChange = "2016-07-06 09:50:25 +0000";
layers = (
{
layerId = UUID0;
paths = (
{
closed = 1;
nodes = (
"823 1376 LINE",
"841 1376 LINE",
"858 1358 LINE",
"863 1330 LINE",
"862 1298 LINE",
"862 1284 LINE",
"863 1206 LINE",
"852 1059 LINE",
"852 1004 LINE",
"870 1004 LINE",
"889 1009 LINE",
"903 1020 LINE",
"918 1036 LINE",
"930 1047 LINE",
"937 1051 LINE",
"998 1110 LINE",
"1085 1192 LINE",
"1186 1287 LINE",
"1278 1367 LINE",
"1348 1421 LINE",
"1362 1423 LINE",
"1366 1423 LINE",
"1382 1408 LINE",
"1398 1389 LINE",
"1413 1371 LINE",
"1417 1368 LINE",
"1419 1364 LINE",
"1442 1343 LINE",
"1469 1317 LINE",
"1493 1294 LINE",
"1497 1288 LINE",
"1510 1267 LINE",
"1544 1223 LINE",
"1579 1178 LINE",
"1611 1132 LINE",
"1622 1108 LINE",
"1622 1104 LINE",
"1622 1084 LINE",
"1588 1036 LINE",
"1543 990 LINE",
"1498 948 LINE",
"1487 934 LINE",
"1483 932 LINE",
"1453 908 LINE",
"1412 873 LINE",
"1366 833 LINE",
"1326 798 LINE",
"1296 774 LINE",
"1292 772 LINE",
"1283 764 LINE",
"1266 757 LINE",
"1254 750 LINE",
"1247 739 LINE",
"1247 727 LINE",
"1247 708 LINE",
"1265 678 LINE",
"1292 652 LINE",
"1323 628 LINE",
"1335 616 LINE",
"1350 601 LINE",
"1412 546 LINE",
"1488 478 LINE",
"1568 404 LINE",
"1635 335 LINE",
"1677 278 LINE",
"1677 262 LINE",
"1677 251 LINE",
"1673 234 LINE",
"1661 223 LINE",
"1627 194 LINE",
"1545 150 LINE",
"1511 121 LINE",
"1485 99 LINE",
"1424 44 LINE",
"1392 27 LINE",
"1376 19 LINE",
"1358 9 LINE",
"1343 0 LINE",
"1323 -13 LINE",
"1305 -24 LINE",
"1272 -44 LINE",
"1221 -43 LINE",
"1185 -26 LINE",
"1164 -3 LINE",
"1162 0 LINE",
"946 248 LINE",
"942 255 LINE",
"916 286 LINE",
"885 319 LINE",
"857 344 LINE",
"852 344 LINE",
"844 344 LINE",
"835 334 LINE",
"835 328 LINE",
"835 318 LINE",
"834 278 LINE",
"833 229 LINE",
"831 174 LINE",
"830 124 LINE",
"829 85 LINE",
"829 76 LINE",
"829 59 LINE",
"831 34 LINE",
"824 17 LINE",
"804 10 LINE",
"782 12 LINE",
"676 6 LINE",
"475 10 LINE",
"368 10 LINE",
"355 10 LINE",
"313 11 LINE",
"272 11 LINE",
"242 12 LINE",
"241 12 LINE",
"149 20 LINE",
"143 37 LINE",
"142 37 LINE",
"141 82 LINE",
"138 154 LINE",
"136 244 LINE",
"133 336 LINE",
"131 421 LINE",
"131 451 LINE",
"126 526 LINE",
"114 682 LINE",
"114 758 LINE",
"114 762 LINE",
"116 796 LINE",
"119 835 LINE",
"121 869 LINE",
"121 874 LINE",
"121 878 LINE",
"119 902 LINE",
"116 928 LINE",
"114 951 LINE",
"114 954 LINE",
"114 959 LINE",
"116 996 LINE",
"119 1038 LINE",
"121 1074 LINE",
"121 1079 LINE",
"121 1089 LINE",
"120 1129 LINE",
"119 1179 LINE",
"117 1232 LINE",
"115 1278 LINE",
"114 1311 LINE",
"114 1315 LINE",
"111 1342 LINE",
"140 1368 LINE",
"185 1378 LINE",
"237 1378 LINE",
"256 1378 LINE",
"386 1378 LINE",
"580 1377 LINE",
"717 1377 LINE",
"802 1376 LINE"
);
}
);
width = 1750;
}
);
unicode = 004B;
},
{
glyphname = L;
lastChange = "2016-07-06 09:50:25 +0000";
layers = (
{
layerId = UUID0;
paths = (
{
closed = 1;
nodes = (
"122 508 LINE",
"122 602 LINE",
"121 808 LINE",
"122 1001 LINE",
"126 1166 LINE",
"132 1221 LINE",
"132 1241 LINE",
"132 1294 LINE",
"141 1342 LINE",
"164 1376 LINE",
"187 1376 LINE",
"275 1376 LINE",
"400 1374 LINE",
"503 1372 LINE",
"602 1370 LINE",
"664 1370 LINE",
"698 1370 LINE",
"753 1369 LINE",
"790 1351 LINE",
"810 1308 LINE",
"810 1266 LINE",
"810 1263 LINE",
"807 1235 LINE",
"802 1203 LINE",
"799 1175 LINE",
"799 1171 LINE",
"799 1165 LINE",
"802 1133 LINE",
"807 1098 LINE",
"810 1070 LINE",
"810 1069 LINE",
"811 991 LINE",
"812 849 LINE",
"812 716 LINE",
"812 588 LINE",
"812 524 LINE",
"812 509 LINE",
"812 491 LINE",
"820 481 LINE",
"837 477 LINE",
"855 477 LINE",
"926 477 LINE",
"1086 479 LINE",
"1174 479 LINE",
"1196 479 LINE",
"1225 452 LINE",
"1225 438 LINE",
"1225 45 LINE",
"1225 40 LINE",
"1221 24 LINE",
"1194 10 LINE",
"1136 0 LINE",
"1082 0 LINE",
"783 0 LINE",
"697 0 LINE",
"549 1 LINE",
"407 3 LINE",
"260 4 LINE",
"175 4 LINE",
"166 4 LINE",
"147 14 LINE",
"132 29 LINE",
"122 48 LINE",
"122 57 LINE"
);
}
);
width = 1281;
}
);
unicode = 004C;
},
{
glyphname = Lslash;
lastChange = "2016-07-06 09:50:25 +0000";
layers = (
{
layerId = UUID0;
paths = (
{
closed = 1;
nodes = (
"206 508 LINE",
"206 542 LINE",
"183 536 LINE",
"143 531 LINE",
"113 536 LINE",
"95 555 LINE",
"95 575 LINE",
"95 621 LINE",
"94 692 LINE",
"93 759 LINE",
"92 830 LINE",
"92 875 LINE",
"92 884 LINE",
"102 905 LINE",
"118 925 LINE",
"137 940 LINE",
"146 942 LINE",
"161 946 LINE",
"191 954 LINE",
"205 959 LINE",
"206 1039 LINE",
"211 1173 LINE",
"216 1221 LINE",
"216 1241 LINE",
"216 1294 LINE",
"225 1342 LINE",
"248 1376 LINE",
"271 1376 LINE",
"359 1376 LINE",
"484 1374 LINE",
"587 1372 LINE",
"686 1370 LINE",
"748 1370 LINE",
"782 1370 LINE",
"837 1369 LINE",
"874 1351 LINE",
"894 1308 LINE",
"894 1266 LINE",
"894 1263 LINE",
"891 1235 LINE",
"886 1203 LINE",
"883 1175 LINE",
"883 1171 LINE",
"883 1168 LINE",
"883 1156 LINE",
"884 1148 LINE",
"923 1156 LINE",
"992 1168 LINE",
"1032 1178 LINE",
"1052 1183 LINE",
"1096 1192 LINE",
"1133 1190 LINE",
"1157 1174 LINE",
"1157 1155 LINE",
"1157 1110 LINE",
"1155 1048 LINE",
"1153 995 LINE",
"1151 945 LINE",
"1151 913 LINE",
"1151 886 LINE",
"1146 843 LINE",
"1126 810 LINE",
"1083 784 LINE",
"1046 775 LINE",
"1038 772 LINE",
"1032 768 LINE",
"1026 765 LINE",
"1015 760 LINE",
"1013 759 LINE",
"911 733 LINE",
"896 729 LINE",
"896 524 LINE",
"896 509 LINE",
"896 491 LINE",
"904 481 LINE",
"921 477 LINE",
"939 477 LINE",
"1010 477 LINE",
"1170 479 LINE",
"1258 479 LINE",
"1280 479 LINE",
"1309 452 LINE",
"1309 438 LINE",
"1309 45 LINE",
"1309 40 LINE",
"1305 24 LINE",
"1278 10 LINE",
"1220 0 LINE",
"1166 0 LINE",
"867 0 LINE",
"781 0 LINE",
"633 1 LINE",
"491 3 LINE",
"344 4 LINE",
"259 4 LINE",
"250 4 LINE",
"231 14 LINE",
"216 29 LINE",
"206 48 LINE",
"206 57 LINE"
);
}
);
width = 1385;
}
);
unicode = 0141;
},
{
glyphname = M;
lastChange = "2016-07-06 09:50:25 +0000";
layers = (
{
layerId = UUID0;
paths = (
{
closed = 1;
nodes = (
"1063 889 LINE",
"1064 893 LINE",
"1090 948 LINE",
"1126 1028 LINE",
"1169 1122 LINE",
"1208 1206 LINE",
"1237 1270 LINE",
"1241 1280 LINE",
"1248 1295 LINE",
"1269 1329 LINE",
"1289 1358 LINE",
"1307 1376 LINE",
"1312 1376 LINE",
"1348 1376 LINE",
"1595 1378 LINE",
"1818 1378 LINE",
"1837 1378 LINE",
"1859 1377 LINE",
"1881 1377 LINE",
"1912 1376 LINE",
"1941 1376 LINE",
"1946 1376 LINE",
"1952 1314 LINE",
"1956 1212 LINE",
"1959 1081 LINE",
"1960 943 LINE",
"1960 811 LINE",
"1960 758 LINE",
"1960 682 LINE",
"1949 526 LINE",
"1943 451 LINE",
"1943 421 LINE",
"1945 336 LINE",
"1946 244 LINE",
"1948 154 LINE",
"1949 82 LINE",
"1950 37 LINE",
"1951 37 LINE",
"1945 20 LINE",
"1853 -2 LINE",
"1852 -2 LINE",
"1822 -3 LINE",
"1782 -3 LINE",
"1739 -4 LINE",
"1726 -4 LINE",
"1685 -4 LINE",
"1608 -1 LINE",
"1533 3 LINE",
"1456 9 LINE",
"1415 12 LINE",
"1413 12 LINE",
"1399 10 LINE",
"1392 10 LINE",
"1385 10 LINE",
"1375 53 LINE",
"1368 125 LINE",
"1365 221 LINE",
"1363 329 LINE",
"1362 440 LINE",
"1362 492 LINE",
"1362 498 LINE",
"1353 508 LINE",
"1345 508 LINE",
"1340 508 LINE",
"1322 467 LINE",
"1300 411 LINE",
"1279 351 LINE",
"1272 332 LINE",
"1269 328 LINE",
"1254 292 LINE",
"1229 244 LINE",
"1198 190 LINE",
"1160 145 LINE",
"1118 115 LINE",
"1095 115 LINE",
"1084 115 LINE",
"1045 115 LINE",
"1001 116 LINE",
"956 117 LINE",
"938 119 LINE",
"880 210 LINE",
"807 354 LINE",
"763 455 LINE",
"742 508 LINE",
"737 508 LINE",
"729 508 LINE",
"721 498 LINE",
"721 492 LINE",
"721 448 LINE",
"721 342 LINE",
"720 235 LINE",
"717 134 LINE",
"710 57 LINE",
"699 10 LINE",
"690 10 LINE",
"684 10 LINE",
"669 12 LINE",
"667 12 LINE",
"586 6 LINE",
"438 -4 LINE",
"356 -4 LINE",
"343 -4 LINE",
"300 -3 LINE",
"260 -3 LINE",
"230 -2 LINE",
"229 -2 LINE",
"137 20 LINE",
"131 37 LINE",
"130 37 LINE",
"128 82 LINE",
"125 154 LINE",
"123 244 LINE",
"121 336 LINE",
"119 421 LINE",
"118 451 LINE",
"120 557 LINE",
"129 761 LINE",
"129 874 LINE",
"129 878 LINE",
"127 902 LINE",
"125 928 LINE",
"123 951 LINE",
"123 954 LINE",
"123 985 LINE",
"126 1034 LINE",
"130 1086 LINE",
"133 1146 LINE",
"133 1188 LINE",
"133 1194 LINE",
"132 1225 LINE",
"130 1261 LINE",
"129 1292 LINE",
"129 1298 LINE",
"127 1300 LINE",
"123 1310 LINE",
"123 1313 LINE",
"123 1335 LINE",
"157 1361 LINE",
"204 1374 LINE",
"251 1378 LINE",
"264 1378 LINE",
"487 1378 LINE",
"735 1376 LINE",
"770 1376 LINE",
"775 1376 LINE",
"793 1358 LINE",
"813 1329 LINE",
"833 1295 LINE",
"841 1280 LINE",
"845 1270 LINE",
"870 1205 LINE",
"903 1120 LINE",
"941 1026 LINE",
"973 946 LINE",
"996 891 LINE",
"999 889 LINE",
"1013 856 LINE",
"1030 856 LINE",
"1041 856 LINE",
"1058 876 LINE"
);
}
);
width = 2078;
}
);
unicode = 004D;
},
{
glyphname = N;
lastChange = "2016-07-06 09:50:25 +0000";
layers = (
{
layerId = UUID0;
paths = (
{
closed = 1;
nodes = (
"1665 459 LINE",
"1665 344 LINE",
"1664 187 LINE",
"1660 84 LINE",
"1651 28 LINE",
"1634 3 LINE",
"1608 -2 LINE",
"1589 -2 LINE",
"1590 -2 LINE",
"1518 -1 LINE",
"1407 -1 LINE",
"1275 0 LINE",
"1216 0 LINE",
"1204 0 LINE",
"1168 -3 LINE",
"1127 2 LINE",
"1083 18 LINE",
"1064 37 LINE",
"856 330 LINE",
"852 337 LINE",
"825 381 LINE",
"795 429 LINE",
"767 466 LINE",
"761 466 LINE",
"753 466 LINE",
"745 456 LINE",
"745 450 LINE",
"745 436 LINE",
"744 376 LINE",
"743 300 LINE",
"741 217 LINE",
"740 144 LINE",
"739 87 LINE",
"739 76 LINE",
"739 59 LINE",
"741 34 LINE",
"734 17 LINE",
"714 10 LINE",
"692 12 LINE",
"610 6 LINE",
"462 -4 LINE",
"380 -4 LINE",
"367 -4 LINE",
"325 -3 LINE",
"285 -3 LINE",
"254 -2 LINE",
"253 -2 LINE",
"161 20 LINE",
"155 37 LINE",
"154 37 LINE",
"152 82 LINE",
"149 154 LINE",
"147 244 LINE",
"145 336 LINE",
"143 421 LINE",
"143 451 LINE",
"131 556 LINE",
"128 768 LINE",
"131 979 LINE",
"136 1191 LINE",
"133 1298 LINE",
"128 1324 LINE",
"143 1356 LINE",
"174 1373 LINE",
"213 1378 LINE",
"232 1378 LINE",
"338 1378 LINE",
"507 1388 LINE",
"629 1395 LINE",
"701 1391 LINE",
"712 1376 LINE",
"718 1368 LINE",
"756 1315 LINE",
"810 1235 LINE",
"876 1136 LINE",
"946 1031 LINE",
"1016 926 LINE",
"1046 881 LINE",
"1047 917 LINE",
"1048 1010 LINE",
"1050 1108 LINE",
"1052 1202 LINE",
"1055 1277 LINE",
"1058 1323 LINE",
"1060 1325 LINE",
"1064 1329 LINE",
"1082 1345 LINE",
"1107 1362 LINE",
"1138 1373 LINE",
"1155 1372 LINE",
"1271 1372 LINE",
"1274 1372 LINE",
"1320 1371 LINE",
"1386 1370 LINE",
"1463 1368 LINE",
"1529 1367 LINE",
"1574 1366 LINE",
"1576 1366 LINE",
"1600 1366 LINE",
"1636 1360 LINE",
"1659 1342 LINE",
"1671 1308 LINE",
"1671 1280 LINE",
"1671 1274 LINE",
"1668 1244 LINE",
"1665 1209 LINE",
"1662 1177 LINE",
"1662 1169 LINE",
"1662 1161 LINE",
"1669 1141 LINE",
"1669 1130 LINE",
"1669 1117 LINE",
"1668 1015 LINE",
"1668 876 LINE",
"1666 718 LINE",
"1666 577 LINE",
"1665 474 LINE"
);
}
);
width = 1787;
}
);
unicode = 004E;
},
{
glyphname = Eng;
lastChange = "2016-07-06 09:50:25 +0000";
layers = (
{
layerId = UUID0;
paths = (
{
closed = 1;
nodes = (
"856 330 LINE",
"852 337 LINE",
"825 381 LINE",
"795 429 LINE",
"767 466 LINE",
"761 466 LINE",
"753 466 LINE",
"745 456 LINE",
"745 450 LINE",
"745 436 LINE",
"744 376 LINE",
"743 300 LINE",
"741 217 LINE",
"740 144 LINE",
"739 87 LINE",
"739 76 LINE",
"739 59 LINE",
"741 34 LINE",
"734 17 LINE",
"714 10 LINE",
"692 12 LINE",
"610 6 LINE",
"462 -4 LINE",
"380 -4 LINE",
"367 -4 LINE",
"325 -3 LINE",
"285 -3 LINE",
"254 -2 LINE",
"253 -2 LINE",
"161 20 LINE",
"155 37 LINE",
"154 37 LINE",
"152 82 LINE",
"149 154 LINE",
"147 244 LINE",
"145 336 LINE",
"143 421 LINE",
"143 451 LINE",
"131 556 LINE",
"128 768 LINE",
"131 979 LINE",
"136 1191 LINE",
"133 1298 LINE",
"128 1324 LINE",
"143 1356 LINE",
"174 1373 LINE",
"213 1378 LINE",
"232 1378 LINE",
"338 1378 LINE",
"507 1388 LINE",
"629 1395 LINE",
"701 1391 LINE",
"712 1376 LINE",
"718 1368 LINE",
"756 1315 LINE",
"810 1235 LINE",
"876 1136 LINE",
"946 1031 LINE",
"1016 926 LINE",
"1046 881 LINE",
"1047 917 LINE",
"1048 1010 LINE",
"1050 1108 LINE",
"1052 1202 LINE",
"1055 1277 LINE",
"1058 1323 LINE",
"1060 1325 LINE",
"1064 1329 LINE",
"1082 1345 LINE",
"1107 1362 LINE",
"1138 1373 LINE",
"1155 1372 LINE",
"1271 1372 LINE",
"1274 1372 LINE",
"1320 1371 LINE",
"1386 1370 LINE",
"1463 1368 LINE",
"1529 1367 LINE",
"1574 1366 LINE",
"1576 1366 LINE",
"1600 1366 LINE",
"1636 1360 LINE",
"1659 1342 LINE",
"1671 1308 LINE",
"1671 1280 LINE",
"1671 1274 LINE",
"1668 1244 LINE",
"1665 1209 LINE",
"1662 1177 LINE",
"1662 1169 LINE",
"1662 1161 LINE",
"1669 1141 LINE",
"1669 1130 LINE",
"1669 1117 LINE",
"1668 1015 LINE",
"1668 876 LINE",
"1666 718 LINE",
"1666 577 LINE",
"1665 474 LINE",
"1665 459 LINE",
"1665 117 LINE",
"1665 55 LINE",
"1663 -85 LINE",
"1646 -221 LINE",
"1609 -345 LINE",
"1574 -391 LINE",
"1528 -464 LINE",
"1411 -547 LINE",
"1358 -569 LINE",
"1296 -595 LINE",
"1234 -603 LINE",
"1094 -622 LINE",
"810 -594 LINE",
"679 -540 LINE",
"589 -499 LINE",
"587 -492 LINE",
"590 -462 LINE",
"594 -423 LINE",
"599 -379 LINE",
"601 -357 LINE",
"601 -346 LINE",
"605 -305 LINE",
"609 -267 LINE",
"614 -241 LINE",
"616 -245 LINE",
"667 -263 LINE",
"746 -287 LINE",
"820 -301 LINE",
"897 -307 LINE",
"945 -306 LINE",
"969 -306 LINE",
"1000 -271 LINE",
"1020 -224 LINE",
"1031 -175 LINE",
"1035 -161 LINE",
"1037 -126 LINE",
"1042 -17 LINE",
"1042 67 LINE"
);
}
);
width = 1787;
}
);
unicode = 014A;
},
{
glyphname = O;
lastChange = "2016-07-06 09:50:25 +0000";
layers = (
{
layerId = UUID0;
paths = (
{
closed = 1;
nodes = (
"897 -49 LINE",
"797 -49 LINE",
"601 -35 LINE",
"423 12 LINE",
"270 102 LINE",
"158 256 LINE",
"94 482 LINE",
"94 641 LINE",
"94 850 LINE",
"187 1146 LINE",
"386 1335 LINE",
"698 1423 LINE",
"917 1423 LINE",
"991 1423 LINE",
"1160 1399 LINE",
"1327 1340 LINE",
"1480 1239 LINE",
"1597 1084 LINE",
"1667 870 LINE",
"1667 727 LINE",
"1667 563 LINE",
"1617 321 LINE",
"1522 148 LINE",
"1386 38 LINE",
"1215 -25 LINE",
"1012 -49 LINE"
);
},
{
closed = 1;
nodes = (
"788 670 LINE",
"788 639 LINE",
"789 537 LINE",
"794 421 LINE",
"805 303 LINE",
"825 207 LINE",
"857 147 LINE",
"880 147 LINE",
"904 147 LINE",
"936 215 LINE",
"957 321 LINE",
"969 452 LINE",
"974 577 LINE",
"975 683 LINE",
"975 711 LINE",
"975 720 LINE",
"974 804 LINE",
"969 919 LINE",
"957 1048 LINE",
"936 1157 LINE",
"904 1229 LINE",
"880 1229 LINE",
"857 1229 LINE",
"825 1181 LINE",
"805 1098 LINE",
"794 988 LINE",
"789 864 LINE",
"788 732 LINE"
);
}
);
width = 1759;
}
);
unicode = 004F;
},
{
glyphname = Oslash;
lastChange = "2016-07-06 09:50:25 +0000";
layers = (
{
layerId = UUID0;
paths = (
{
closed = 1;
nodes = (
"926 -49 LINE",
"858 -49 LINE",
"723 -43 LINE",
"594 -26 LINE",
"472 6 LINE",
"418 33 LINE",
"364 -21 LINE",
"279 -98 LINE",
"251 -109 LINE",
"231 -104 LINE",
"207 -94 LINE",
"197 -90 LINE",
"177 -72 LINE",
"157 -58 LINE",
"155 -56 LINE",
"132 -44 LINE",
"119 -21 LINE",
"124 2 LINE",
"142 24 LINE",
"151 35 LINE",
"171 55 LINE",
"228 116 LINE",
"263 152 LINE",
"198 229 LINE",
"123 467 LINE",
"123 641 LINE",
"123 850 LINE",
"216 1146 LINE",
"415 1335 LINE",
"727 1423 LINE",
"946 1423 LINE",
"1003 1423 LINE",
"1130 1409 LINE",
"1259 1376 LINE",
"1386 1322 LINE",
"1443 1281 LINE",
"1579 1404 LINE",
"1593 1412 LINE",
"1614 1408 LINE",
"1623 1403 LINE",
"1634 1398 LINE",
"1669 1375 LINE",
"1685 1372 LINE",
"1709 1358 LINE",
"1737 1340 LINE",
"1736 1313 LINE",
"1703 1268 LINE",
"1666 1227 LINE",
"1655 1217 LINE",
"1642 1205 LINE",
"1631 1194 LINE",
"1598 1165 LINE",
"1578 1147 LINE",
"1632 1070 LINE",
"1696 864 LINE",
"1696 727 LINE",
"1696 563 LINE",
"1646 321 LINE",
"1551 148 LINE",
"1415 38 LINE",
"1244 -25 LINE",
"1041 -49 LINE"
);
},
{
closed = 1;
nodes = (
"909 1229 LINE",
"887 1229 LINE",
"857 1186 LINE",
"836 1112 LINE",
"824 1012 LINE",
"819 897 LINE",
"817 774 LINE",
"817 714 LINE",
"999 879 LINE",
"996 936 LINE",
"984 1060 LINE",
"963 1162 LINE",
"932 1229 LINE"
);
},
{
closed = 1;
nodes = (
"822 438 LINE",
"825 384 LINE",
"838 280 LINE",
"858 197 LINE",
"888 147 LINE",
"909 147 LINE",
"928 147 LINE",
"957 192 LINE",
"977 267 LINE",
"990 365 LINE",
"998 468 LINE",
"1002 571 LINE",
"1003 614 LINE"
);
}
);
width = 1846;
}
);
unicode = 00D8;
},
{
glyphname = OE;
lastChange = "2016-07-06 09:50:25 +0000";
layers = (
{
layerId = UUID0;
paths = (
{
closed = 1;
nodes = (
"905 -49 LINE",
"806 -49 LINE",
"610 -35 LINE",
"431 12 LINE",
"278 102 LINE",
"166 256 LINE",
"102 482 LINE",
"102 641 LINE",
"102 850 LINE",
"195 1146 LINE",
"394 1335 LINE",
"706 1423 LINE",
"926 1423 LINE",
"1001 1423 LINE",
"1172 1399 LINE",
"1257 1368 LINE",
"1279 1371 LINE",
"1324 1372 LINE",
"1347 1372 LINE",
"1475 1372 LINE",
"1703 1379 LINE",
"1928 1383 LINE",
"2166 1380 LINE",
"2304 1370 LINE",
"2323 1370 LINE",
"2345 1326 LINE",
"2359 1259 LINE",
"2372 1179 LINE",
"2382 1143 LINE",
"2383 1117 LINE",
"2378 1094 LINE",
"2367 1085 LINE",
"2348 1087 LINE",
"2335 1087 LINE",
"2284 1087 LINE",
"2178 1079 LINE",
"2070 1069 LINE",
"1962 1058 LINE",
"1909 1055 LINE",
"1900 1055 LINE",
"1885 1005 LINE",
"1875 938 LINE",
"1870 872 LINE",
"1870 856 LINE",
"1870 828 LINE",
"1885 813 LINE",
"1902 813 LINE",
"1995 813 LINE",
"2175 814 LINE",
"2265 805 LINE",
"2281 803 LINE",
"2303 801 LINE",
"2319 794 LINE",
"2330 776 LINE",
"2335 758 LINE",
"2343 575 LINE",
"2343 569 LINE",
"2343 551 LINE",
"2303 531 LINE",
"2236 521 LINE",
"2150 518 LINE",
"2105 518 LINE",
"2017 518 LINE",
"1919 522 LINE",
"1873 511 LINE",
"1863 475 LINE",
"1863 436 LINE",
"1863 398 LINE",
"1855 323 LINE",
"1857 281 LINE",
"1956 281 LINE",
"2154 293 LINE",
"2251 293 LINE",
"2257 293 LINE",
"2274 263 LINE",
"2291 215 LINE",
"2307 158 LINE",
"2320 105 LINE",
"2328 62 LINE",
"2328 53 LINE",
"2328 35 LINE",
"2309 10 LINE",
"2287 10 LINE",
"2213 10 LINE",
"2074 2 LINE",
"1997 2 LINE",
"1836 2 LINE",
"1511 0 LINE",
"1349 0 LINE",
"1343 0 LINE",
"1318 1 LINE",
"1302 4 LINE",
"1217 -25 LINE",
"1018 -49 LINE"
);
},
{
closed = 1;
nodes = (
"796 670 LINE",
"796 639 LINE",
"797 537 LINE",
"802 421 LINE",
"813 303 LINE",
"834 207 LINE",
"866 147 LINE",
"889 147 LINE",
"913 147 LINE",
"945 215 LINE",
"966 321 LINE",
"977 452 LINE",
"982 577 LINE",
"983 683 LINE",
"983 711 LINE",
"983 720 LINE",
"982 804 LINE",
"977 919 LINE",
"966 1048 LINE",
"945 1157 LINE",
"912 1229 LINE",
"889 1229 LINE",
"866 1229 LINE",
"834 1181 LINE",
"813 1098 LINE",
"802 988 LINE",
"797 864 LINE",
"796 732 LINE"
);
}
);
width = 2478;
}
);
unicode = 0152;
},
{
glyphname = P;
lastChange = "2016-07-06 09:50:25 +0000";
layers = (
{
layerId = UUID0;
paths = (
{
closed = 1;
nodes = (
"119 1321 LINE",
"119 1340 LINE",
"153 1374 LINE",
"172 1374 LINE",
"309 1374 LINE",
"507 1370 LINE",
"579 1370 LINE",
"691 1370 LINE",
"944 1376 LINE",
"1095 1376 LINE",
"1151 1376 LINE",
"1278 1361 LINE",
"1404 1321 LINE",
"1520 1253 LINE",
"1608 1149 LINE",
"1661 1003 LINE",
"1661 905 LINE",
"1661 744 LINE",
"1579 522 LINE",
"1429 386 LINE",
"1217 326 LINE",
"1087 326 LINE",
"807 326 LINE",
"808 290 LINE",
"809 246 LINE",
"808 204 LINE",
"807 154 LINE",
"807 113 LINE",
"807 76 LINE",
"792 34 LINE",
"763 13 LINE",
"721 8 LINE",
"694 8 LINE",
"623 8 LINE",
"516 6 LINE",
"407 4 LINE",
"278 2 LINE",
"184 2 LINE",
"165 2 LINE",
"143 26 LINE",
"132 63 LINE",
"129 107 LINE",
"129 127 LINE",
"129 175 LINE",
"126 342 LINE",
"122 546 LINE",
"119 768 LINE",
"119 870 LINE"
);
},
{
closed = 1;
nodes = (
"823 578 LINE",
"823 576 LINE",
"834 574 LINE",
"842 572 LINE",
"880 571 LINE",
"915 571 LINE",
"939 571 LINE",
"971 617 LINE",
"992 688 LINE",
"1003 776 LINE",
"1008 860 LINE",
"1009 931 LINE",
"1009 950 LINE",
"1009 953 LINE",
"1008 990 LINE",
"1003 1042 LINE",
"992 1100 LINE",
"971 1149 LINE",
"938 1182 LINE",
"915 1182 LINE",
"898 1182 LINE",
"871 1130 LINE",
"852 1045 LINE",
"838 937 LINE",
"834 880 LINE",
"823 747 LINE"
);
}
);
width = 1719;
}
);
unicode = 0050;
},
{
glyphname = Thorn;
lastChange = "2016-07-06 09:50:25 +0000";
layers = (
{
layerId = UUID0;
paths = (
{
closed = 1;
nodes = (
"118 827 LINE",
"119 904 LINE",
"122 1064 LINE",
"125 1206 LINE",
"128 1322 LINE",
"128 1355 LINE",
"128 1375 LINE",
"131 1419 LINE",
"142 1456 LINE",
"164 1480 LINE",
"183 1480 LINE",
"277 1480 LINE",
"406 1478 LINE",
"515 1476 LINE",
"622 1474 LINE",
"693 1474 LINE",
"720 1474 LINE",
"762 1469 LINE",
"791 1448 LINE",
"806 1406 LINE",
"806 1369 LINE",
"806 1346 LINE",
"807 1314 LINE",
"807 1289 LINE",
"808 1266 LINE",
"808 1253 LINE",
"874 1254 LINE",
"1016 1256 LINE",
"1094 1256 LINE",
"1150 1256 LINE",
"1277 1243 LINE",
"1403 1210 LINE",
"1519 1152 LINE",
"1607 1063 LINE",
"1660 939 LINE",
"1660 855 LINE",
"1660 707 LINE",
"1578 505 LINE",
"1428 380 LINE",
"1216 326 LINE",
"1086 326 LINE",
"806 326 LINE",
"807 284 LINE",
"808 231 LINE",
"807 181 LINE",
"806 121 LINE",
"806 73 LINE",
"806 36 LINE",
"791 -6 LINE",
"762 -27 LINE",
"720 -32 LINE",
"693 -32 LINE",
"622 -32 LINE",
"515 -34 LINE",
"406 -36 LINE",
"277 -38 LINE",
"183 -38 LINE",
"164 -38 LINE",
"142 -14 LINE",
"131 23 LINE",
"128 67 LINE",
"128 87 LINE",
"128 128 LINE",
"125 267 LINE",
"122 438 LINE",
"119 629 LINE",
"118 722 LINE",
"118 784 LINE",
"118 820 LINE"
);
},
{
closed = 1;
nodes = (
"822 528 LINE",
"822 526 LINE",
"833 524 LINE",
"841 522 LINE",
"879 521 LINE",
"914 521 LINE",
"937 521 LINE",
"970 567 LINE",
"991 638 LINE",
"1002 726 LINE",
"1007 810 LINE",
"1008 881 LINE",
"1008 900 LINE",
"1008 902 LINE",
"1007 928 LINE",
"999 964 LINE",
"981 1005 LINE",
"949 1039 LINE",
"900 1062 LINE",
"864 1062 LINE",
"856 1062 LINE",
"844 1016 LINE",
"835 941 LINE",
"829 845 LINE",
"827 795 LINE",
"823 677 LINE"
);
}
);
width = 1696;
}
);
unicode = 00DE;
},
{
glyphname = Q;
lastChange = "2016-07-06 09:50:25 +0000";
layers = (
{
layerId = UUID0;
paths = (
{
closed = 1;
nodes = (
"1636 727 LINE",
"1636 560 LINE",
"1584 315 LINE",
"1486 142 LINE",
"1347 33 LINE",
"1259 2 LINE",
"1283 -29 LINE",
"1331 -96 LINE",
"1370 -158 LINE",
"1395 -209 LINE",
"1395 -223 LINE",
"1394 -244 LINE",
"1353 -281 LINE",
"1297 -315 LINE",
"1239 -346 LINE",
"1220 -360 LINE",
"1202 -365 LINE",
"1164 -378 LINE",
"1143 -383 LINE",
"1139 -386 LINE",
"1093 -401 LINE",
"1039 -416 LINE",
"993 -427 LINE",
"989 -426 LINE",
"987 -435 LINE",
"973 -435 LINE",
"973 -436 LINE",
"972 -436 LINE",
"963 -434 LINE",
"946 -425 LINE",
"921 -405 LINE",
"903 -387 LINE",
"898 -376 LINE",
"893 -375 LINE",
"891 -375 LINE",
"888 -373 LINE",
"883 -370 LINE",
"878 -362 LINE",
"717 -96 LINE",
"714 -90 LINE",
"697 -60 LINE",
"686 -43 LINE",
"603 -37 LINE",
"446 -6 LINE",
"308 56 LINE",
"192 155 LINE",
"109 303 LINE",
"63 506 LINE",
"63 641 LINE",
"63 850 LINE",
"156 1146 LINE",
"355 1335 LINE",
"667 1423 LINE",
"887 1423 LINE",
"961 1423 LINE",
"1130 1399 LINE",
"1296 1340 LINE",
"1449 1239 LINE",
"1566 1084 LINE",
"1636 870 LINE"
);
},
{
closed = 1;
nodes = (
"758 670 LINE",
"758 639 LINE",
"759 537 LINE",
"764 421 LINE",
"775 303 LINE",
"795 207 LINE",
"827 147 LINE",
"850 147 LINE",
"873 147 LINE",
"906 215 LINE",
"927 321 LINE",
"938 452 LINE",
"943 577 LINE",
"944 683 LINE",
"944 711 LINE",
"944 720 LINE",
"943 804 LINE",
"938 919 LINE",
"927 1048 LINE",
"906 1157 LINE",
"873 1229 LINE",
"850 1229 LINE",
"827 1229 LINE",
"795 1181 LINE",
"775 1098 LINE",
"764 988 LINE",
"759 864 LINE",
"758 732 LINE"
);
}
);
width = 1718;
}
);
unicode = 0051;
},
{
glyphname = R;
lastChange = "2016-07-06 09:50:25 +0000";
layers = (
{
layerId = UUID0;
paths = (
{
closed = 1;
nodes = (
"1150 -27 LINE",
"1147 -16 LINE",
"1141 -12 LINE",
"1139 -12 LINE",
"1137 -12 LINE",
"1132 -8 LINE",
"1127 -2 LINE",
"953 256 LINE",
"949 263 LINE",
"928 296 LINE",
"903 330 LINE",
"880 356 LINE",
"875 356 LINE",
"866 356 LINE",
"859 305 LINE",
"856 229 LINE",
"855 139 LINE",
"850 63 LINE",
"839 12 LINE",
"828 12 LINE",
"820 12 LINE",
"806 14 LINE",
"804 14 LINE",
"694 8 LINE",
"485 -4 LINE",
"376 -4 LINE",
"363 -4 LINE",
"319 -3 LINE",
"277 -3 LINE",
"245 -2 LINE",
"244 -2 LINE",
"171 23 LINE",
"163 39 LINE",
"163 39 LINE",
"158 86 LINE",
"152 160 LINE",
"145 254 LINE",
"138 348 LINE",
"132 436 LINE",
"130 467 LINE",
"125 545 LINE",
"113 706 LINE",
"113 784 LINE",
"113 789 LINE",
"116 825 LINE",
"119 865 LINE",
"122 900 LINE",
"122 905 LINE",
"122 972 LINE",
"111 1092 LINE",
"111 1161 LINE",
"111 1209 LINE",
"116 1297 LINE",
"133 1364 LINE",
"163 1405 LINE",
"187 1405 LINE",
"298 1405 LINE",
"537 1402 LINE",
"778 1396 LINE",
"1016 1389 LINE",
"1125 1386 LINE",
"1263 1382 LINE",
"1460 1312 LINE",
"1586 1200 LINE",
"1645 1057 LINE",
"1645 979 LINE",
"1645 926 LINE",
"1625 839 LINE",
"1592 767 LINE",
"1550 710 LINE",
"1528 688 LINE",
"1477 637 LINE",
"1412 606 LINE",
"1428 592 LINE",
"1444 578 LINE",
"1458 566 LINE",
"1487 540 LINE",
"1500 532 LINE",
"1510 519 LINE",
"1551 469 LINE",
"1601 407 LINE",
"1655 339 LINE",
"1699 277 LINE",
"1727 225 LINE",
"1727 211 LINE",
"1727 190 LINE",
"1688 151 LINE",
"1633 115 LINE",
"1575 81 LINE",
"1557 66 LINE",
"1520 47 LINE",
"1440 2 LINE",
"1393 -12 LINE",
"1390 -13 LINE",
"1364 -23 LINE",
"1330 -35 LINE",
"1291 -47 LINE",
"1259 -57 LINE",
"1239 -61 LINE",
"1240 -59 LINE",
"1235 -70 LINE",
"1225 -70 LINE",
"1223 -70 LINE",
"1222 -70 LINE",
"1214 -70 LINE",
"1196 -62 LINE",
"1169 -45 LINE"
);
},
{
closed = 1;
nodes = (
"831 659 LINE",
"832 657 LINE",
"837 656 LINE",
"842 654 LINE",
"862 653 LINE",
"882 653 LINE",
"918 653 LINE",
"968 689 LINE",
"1000 745 LINE",
"1018 814 LINE",
"1026 880 LINE",
"1027 935 LINE",
"1027 950 LINE",
"1027 953 LINE",
"1026 990 LINE",
"1018 1042 LINE",
"1000 1100 LINE",
"968 1149 LINE",
"918 1182 LINE",
"882 1182 LINE",
"872 1182 LINE",
"857 1137 LINE",
"847 1063 LINE",
"839 969 LINE",
"837 920 LINE",
"832 805 LINE"
);
}
);
width = 1787;
}
);
unicode = 0052;
},
{
glyphname = S;
lastChange = "2016-07-06 09:50:25 +0000";
layers = (
{
layerId = UUID0;
paths = (
{
closed = 1;
nodes = (
"1372 412 LINE",
"1364 329 LINE",
"1301 196 LINE",
"1204 94 LINE",
"1076 20 LINE",
"930 -27 LINE",
"769 -49 LINE",
"688 -49 LINE",
"613 -49 LINE",
"465 -32 LINE",
"327 -1 LINE",
"204 46 LINE",
"155 76 LINE",
"128 162 LINE",
"100 343 LINE",
"88 436 LINE",
"88 442 LINE",
"90 452 LINE",
"103 473 LINE",
"114 479 LINE",
"188 433 LINE",
"333 385 LINE",
"422 385 LINE",
"440 385 LINE",
"504 381 LINE",
"570 387 LINE",
"627 409 LINE",
"637 434 LINE",
"584 462 LINE",
"467 517 LINE",
"355 580 LINE",
"253 654 LINE",
"176 749 LINE",
"131 869 LINE",
"131 946 LINE",
"131 1045 LINE",
"191 1193 LINE",
"294 1299 LINE",
"432 1368 LINE",
"587 1407 LINE",
"751 1423 LINE",
"829 1423 LINE",
"911 1423 LINE",
"1051 1409 LINE",
"1172 1390 LINE",
"1277 1371 LINE",
"1325 1366 LINE",
"1330 1365 LINE",
"1339 1356 LINE",
"1347 1345 LINE",
"1355 1336 LINE",
"1360 1335 LINE",
"1362 1335 LINE",
"1362 1337 LINE",
"1364 1337 LINE",
"1367 1282 LINE",
"1380 1174 LINE",
"1380 1118 LINE",
"1380 1100 LINE",
"1378 1062 LINE",
"1369 1026 LINE",
"1351 995 LINE",
"1335 985 LINE",
"1147 1008 LINE",
"1139 1008 LINE",
"1115 1010 LINE",
"1098 1010 LINE",
"1065 1010 LINE",
"977 1001 LINE",
"898 988 LINE",
"844 976 LINE",
"844 973 LINE",
"844 943 LINE",
"883 897 LINE",
"937 864 LINE",
"992 843 LINE",
"1007 838 LINE",
"1085 816 LINE",
"1222 737 LINE",
"1322 638 LINE",
"1380 528 LINE",
"1380 477 LINE",
"1380 460 LINE",
"1377 432 LINE"
);
}
);
width = 1476;
}
);
unicode = 0053;
},
{
glyphname = T;
lastChange = "2016-07-06 09:50:25 +0000";
layers = (
{
layerId = UUID0;
paths = (
{
closed = 1;
nodes = (
"388 899 LINE",
"388 901 LINE",
"380 905 LINE",
"154 905 LINE",
"125 905 LINE",
"94 972 LINE",
"79 1066 LINE",
"77 1164 LINE",
"77 1196 LINE",
"77 1204 LINE",
"78 1239 LINE",
"79 1275 LINE",
"80 1303 LINE",
"80 1304 LINE",
"80 1319 LINE",
"103 1336 LINE",
"136 1345 LINE",
"171 1348 LINE",
"183 1348 LINE",
"258 1348 LINE",
"416 1344 LINE",
"491 1344 LINE",
"1228 1344 LINE",
"1296 1344 LINE",
"1370 1337 LINE",
"1404 1322 LINE",
"1410 1300 LINE",
"1410 1285 LINE",
"1410 946 LINE",
"1410 934 LINE",
"1398 921 LINE",
"1381 915 LINE",
"1362 914 LINE",
"1355 914 LINE",
"1327 914 LINE",
"1259 914 LINE",
"1188 914 LINE",
"1119 915 LINE",
"1090 915 LINE",
"1082 915 LINE",
"1073 914 LINE",
"1068 905 LINE",
"1066 885 LINE",
"1066 866 LINE",
"1066 851 LINE",
"1065 741 LINE",
"1060 583 LINE",
"1051 395 LINE",
"1044 303 LINE",
"1044 106 LINE",
"1044 68 LINE",
"1029 29 LINE",
"1000 11 LINE",
"955 7 LINE",
"925 4 LINE",
"863 4 LINE",
"764 2 LINE",
"659 0 LINE",
"536 -2 LINE",
"452 -2 LINE",
"424 -2 LINE",
"394 69 LINE",
"379 195 LINE",
"378 366 LINE",
"382 566 LINE",
"388 787 LINE"
);
}
);
width = 1479;
}
);
unicode = 0054;
},
{
glyphname = Tbar;
lastChange = "2016-07-06 09:50:25 +0000";
layers = (
{
layerId = UUID0;
paths = (
{
closed = 1;
nodes = (
"388 899 LINE",
"388 901 LINE",
"380 905 LINE",
"154 905 LINE",
"125 905 LINE",
"94 972 LINE",
"79 1066 LINE",
"77 1164 LINE",
"77 1196 LINE",
"77 1204 LINE",
"78 1239 LINE",
"79 1275 LINE",
"80 1303 LINE",
"80 1304 LINE",
"80 1319 LINE",
"103 1336 LINE",
"136 1345 LINE",
"171 1348 LINE",
"183 1348 LINE",
"258 1348 LINE",
"416 1344 LINE",
"491 1344 LINE",
"1228 1344 LINE",
"1296 1344 LINE",
"1370 1337 LINE",
"1404 1322 LINE",
"1410 1300 LINE",
"1410 1285 LINE",
"1410 946 LINE",
"1410 934 LINE",
"1398 921 LINE",
"1381 915 LINE",
"1362 914 LINE",
"1355 914 LINE",
"1223 914 LINE",
"1188 914 LINE",
"1119 915 LINE",
"1090 915 LINE",
"1082 915 LINE",
"1073 914 LINE",
"1068 905 LINE",
"1066 885 LINE",
"1066 866 LINE",
"1066 851 LINE",
"1065 741 LINE",
"1062 664 LINE",
"1103 664 LINE",
"1124 664 LINE",
"1172 662 LINE",
"1213 654 LINE",
"1240 639 LINE",
"1240 625 LINE",
"1240 602 LINE",
"1241 574 LINE",
"1242 554 LINE",
"1243 539 LINE",
"1244 520 LINE",
"1246 493 LINE",
"1246 471 LINE",
"1246 457 LINE",
"1243 427 LINE",
"1231 402 LINE",
"1207 385 LINE",
"1186 385 LINE",
"1137 385 LINE",
"1100 386 LINE",
"1073 386 LINE",
"1050 387 LINE",
"1044 303 LINE",
"1044 106 LINE",
"1044 68 LINE",
"1029 29 LINE",
"1000 11 LINE",
"955 7 LINE",
"925 4 LINE",
"863 4 LINE",
"764 2 LINE",
"659 0 LINE",
"536 -2 LINE",
"452 -2 LINE",
"424 -2 LINE",
"394 69 LINE",
"379 195 LINE",
"378 280 LINE",
"378 333 LINE",
"378 392 LINE",
"347 392 LINE",
"316 391 LINE",
"282 391 LINE",
"227 397 LINE",
"193 415 LINE",
"193 432 LINE",
"193 464 LINE",
"192 512 LINE",
"192 556 LINE",
"191 603 LINE",
"191 635 LINE",
"191 641 LINE",
"202 654 LINE",
"220 664 LINE",
"240 671 LINE",
"250 671 LINE",
"385 671 LINE",
"385 676 LINE",
"388 787 LINE"
);
}
);
width = 1479;
}
);
unicode = 0166;
},
{
glyphname = U;
lastChange = "2016-07-06 09:50:25 +0000";
layers = (
{
layerId = UUID0;
paths = (
{
closed = 1;
nodes = (
"1029 72 LINE",
"977 46 LINE",
"859 2 LINE",
"735 -30 LINE",
"606 -47 LINE",
"543 -47 LINE",
"440 -47 LINE",
"296 0 LINE",
"200 85 LINE",
"146 202 LINE",
"119 343 LINE",
"113 502 LINE",
"113 586 LINE",
"113 667 LINE",
"121 832 LINE",
"132 1000 LINE",
"140 1172 LINE",
"140 1260 LINE",
"140 1283 LINE",
"132 1323 LINE",
"132 1346 LINE",
"132 1368 LINE",
"175 1380 LINE",
"201 1380 LINE",
"261 1380 LINE",
"384 1382 LINE",
"510 1379 LINE",
"639 1367 LINE",
"705 1354 LINE",
"733 1346 LINE",
"768 1327 LINE",
"787 1296 LINE",
"793 1245 LINE",
"793 1206 LINE",
"793 1124 LINE",
"789 953 LINE",
"783 761 LINE",
"779 543 LINE",
"779 414 LINE",
"779 339 LINE",
"790 270 LINE",
"818 270 LINE",
"850 270 LINE",
"912 289 LINE",
"938 300 LINE",
"968 313 LINE",
"996 330 LINE",
"996 1153 LINE",
"992 1176 LINE",
"988 1224 LINE",
"986 1265 LINE",
"986 1294 LINE",
"986 1298 LINE",
"986 1317 LINE",
"991 1341 LINE",
"1008 1356 LINE",
"1040 1362 LINE",
"1068 1362 LINE",
"1089 1362 LINE",
"1174 1365 LINE",
"1268 1370 LINE",
"1352 1374 LINE",
"1371 1376 LINE",
"1375 1376 LINE",
"1416 1374 LINE",
"1440 1373 LINE",
"1467 1371 LINE",
"1502 1370 LINE",
"1572 1362 LINE",
"1651 1345 LINE",
"1690 1329 LINE",
"1699 1312 LINE",
"1699 1303 LINE",
"1699 1148 LINE",
"1691 845 LINE",
"1682 544 LINE",
"1674 242 LINE",
"1674 88 LINE",
"1674 46 LINE",
"1638 6 LINE",
"1598 6 LINE",
"1583 6 LINE",
"1528 5 LINE",
"1459 2 LINE",
"1381 -1 LINE",
"1343 -2 LINE",
"1253 -6 LINE",
"1150 -10 LINE",
"1099 -10 LINE",
"1041 28 LINE"
);
}
);
width = 1813;
}
);
unicode = 0055;
},
{
glyphname = V;
lastChange = "2016-07-06 09:50:25 +0000";
layers = (
{
layerId = UUID0;
paths = (
{
closed = 1;
nodes = (
"1288 10 LINE",
"1098 2 LINE",
"719 0 LINE",
"543 0 LINE",
"514 0 LINE",
"458 12 LINE",
"432 12 LINE",
"426 12 LINE",
"419 10 LINE",
"414 10 LINE",
"407 13 LINE",
"393 28 LINE",
"393 33 LINE",
"250 680 LINE",
"218 804 LINE",
"157 1064 LINE",
"131 1188 LINE",
"129 1202 LINE",
"115 1264 LINE",
"110 1328 LINE",
"123 1376 LINE",
"147 1376 LINE",
"155 1376 LINE",
"195 1376 LINE",
"246 1375 LINE",
"302 1374 LINE",
"350 1373 LINE",
"381 1372 LINE",
"383 1372 LINE",
"573 1372 LINE",
"573 1371 LINE",
"583 1367 LINE",
"587 1365 LINE",
"594 1364 LINE",
"602 1364 LINE",
"610 1372 LINE",
"622 1372 LINE",
"629 1372 LINE",
"630 1372 LINE",
"671 1369 LINE",
"730 1366 LINE",
"797 1364 LINE",
"823 1364 LINE",
"834 1346 LINE",
"854 1268 LINE",
"876 1162 LINE",
"900 1034 LINE",
"915 967 LINE",
"915 965 LINE",
"927 904 LINE",
"945 815 LINE",
"965 712 LINE",
"983 623 LINE",
"995 564 LINE",
"995 563 LINE",
"995 559 LINE",
"996 555 LINE",
"997 551 LINE",
"999 539 LINE",
"1001 532 LINE",
"1003 539 LINE",
"1004 551 LINE",
"1005 555 LINE",
"1006 559 LINE",
"1007 563 LINE",
"1007 564 LINE",
"1019 623 LINE",
"1037 712 LINE",
"1057 815 LINE",
"1075 904 LINE",
"1087 965 LINE",
"1087 967 LINE",
"1102 1034 LINE",
"1126 1162 LINE",
"1148 1268 LINE",
"1168 1346 LINE",
"1179 1364 LINE",
"1199 1364 LINE",
"1252 1366 LINE",
"1299 1369 LINE",
"1332 1372 LINE",
"1333 1372 LINE",
"1339 1372 LINE",
"1342 1372 LINE",
"1345 1364 LINE",
"1347 1364 LINE",
"1363 1364 LINE",
"1368 1370 LINE",
"1368 1372 LINE",
"1497 1372 LINE",
"1498 1373 LINE",
"1530 1373 LINE",
"1578 1374 LINE",
"1633 1375 LINE",
"1685 1376 LINE",
"1724 1376 LINE",
"1732 1376 LINE",
"1757 1376 LINE",
"1770 1328 LINE",
"1766 1264 LINE",
"1752 1202 LINE",
"1749 1188 LINE",
"1723 1064 LINE",
"1662 804 LINE",
"1630 680 LINE",
"1487 33 LINE",
"1487 28 LINE",
"1472 13 LINE",
"1466 10 LINE",
"1461 10 LINE",
"1454 12 LINE",
"1448 12 LINE",
"1435 12 LINE",
"1411 0 LINE",
"1399 0 LINE",
"1370 0 LINE",
"1317 10 LINE"
);
}
);
width = 1880;
}
);
unicode = 0056;
},
{
glyphname = W;
lastChange = "2016-07-06 09:50:25 +0000";
layers = (
{
layerId = UUID0;
paths = (
{
closed = 1;
nodes = (
"1474 10 LINE",
"1445 10 LINE",
"1384 12 LINE",
"1356 12 LINE",
"1337 10 LINE",
"1322 13 LINE",
"1317 28 LINE",
"1317 33 LINE",
"1179 709 LINE",
"1044 33 LINE",
"1039 12 LINE",
"1000 0 LINE",
"977 0 LINE",
"924 0 LINE",
"841 -2 LINE",
"788 -2 LINE",
"733 -2 LINE",
"656 -1 LINE",
"588 -1 LINE",
"518 0 LINE",
"469 0 LINE",
"452 0 LINE",
"416 12 LINE",
"399 12 LINE",
"381 10 LINE",
"365 13 LINE",
"360 28 LINE",
"360 33 LINE",
"217 680 LINE",
"192 804 LINE",
"140 1064 LINE",
"119 1188 LINE",
"111 1195 LINE",
"103 1224 LINE",
"99 1260 LINE",
"98 1298 LINE",
"98 1315 LINE",
"98 1341 LINE",
"113 1376 LINE",
"135 1376 LINE",
"143 1376 LINE",
"183 1376 LINE",
"234 1375 LINE",
"290 1374 LINE",
"337 1373 LINE",
"368 1372 LINE",
"370 1372 LINE",
"459 1372 LINE",
"467 1371 LINE",
"474 1369 LINE",
"476 1367 LINE",
"479 1364 LINE",
"484 1364 LINE",
"497 1372 LINE",
"508 1372 LINE",
"514 1372 LINE",
"515 1372 LINE",
"548 1369 LINE",
"595 1366 LINE",
"647 1364 LINE",
"667 1364 LINE",
"678 1344 LINE",
"699 1259 LINE",
"721 1142 LINE",
"745 1001 LINE",
"760 926 LINE",
"760 924 LINE",
"766 891 LINE",
"774 843 LINE",
"784 787 LINE",
"792 740 LINE",
"798 708 LINE",
"798 707 LINE",
"799 702 LINE",
"800 698 LINE",
"801 693 LINE",
"803 683 LINE",
"805 676 LINE",
"807 683 LINE",
"808 693 LINE",
"809 698 LINE",
"810 702 LINE",
"811 707 LINE",
"811 708 LINE",
"817 740 LINE",
"825 787 LINE",
"836 843 LINE",
"844 891 LINE",
"850 924 LINE",
"850 926 LINE",
"879 1077 LINE",
"918 1266 LINE",
"933 1320 LINE",
"936 1332 LINE",
"945 1353 LINE",
"967 1368 LINE",
"1011 1376 LINE",
"1050 1376 LINE",
"1059 1376 LINE",
"1112 1376 LINE",
"1176 1376 LINE",
"1239 1375 LINE",
"1259 1374 LINE",
"1261 1374 LINE",
"1268 1376 LINE",
"1270 1376 LINE",
"1276 1376 LINE",
"1286 1374 LINE",
"1286 1372 LINE",
"1342 1371 LINE",
"1402 1369 LINE",
"1416 1367 LINE",
"1433 1365 LINE",
"1435 1364 LINE",
"1440 1364 LINE",
"1455 1372 LINE",
"1470 1372 LINE",
"1471 1372 LINE",
"1494 1373 LINE",
"1521 1373 LINE",
"1544 1369 LINE",
"1546 1363 LINE",
"1553 1340 LINE",
"1566 1261 LINE",
"1580 1158 LINE",
"1599 1034 LINE",
"1614 967 LINE",
"1614 965 LINE",
"1620 922 LINE",
"1628 860 LINE",
"1638 789 LINE",
"1646 728 LINE",
"1652 687 LINE",
"1652 686 LINE",
"1653 682 LINE",
"1654 678 LINE",
"1655 674 LINE",
"1657 662 LINE",
"1659 655 LINE",
"1661 662 LINE",
"1662 674 LINE",
"1663 678 LINE",
"1664 682 LINE",
"1665 686 LINE",
"1665 687 LINE",
"1671 728 LINE",
"1679 789 LINE",
"1690 860 LINE",
"1698 922 LINE",
"1704 965 LINE",
"1704 967 LINE",
"1719 1034 LINE",
"1743 1162 LINE",
"1765 1268 LINE",
"1785 1346 LINE",
"1796 1364 LINE",
"1808 1364 LINE",
"1840 1366 LINE",
"1854 1368 LINE",
"1871 1370 LINE",
"1888 1372 LINE",
"1894 1372 LINE",
"1897 1372 LINE",
"1900 1364 LINE",
"1902 1364 LINE",
"1918 1364 LINE",
"1923 1370 LINE",
"1923 1372 LINE",
"2031 1372 LINE",
"2031 1373 LINE",
"2062 1373 LINE",
"2109 1374 LINE",
"2166 1375 LINE",
"2218 1376 LINE",
"2259 1376 LINE",
"2267 1376 LINE",
"2287 1376 LINE",
"2304 1340 LINE",
"2304 1315 LINE",
"2296 1297 LINE",
"2288 1259 LINE",
"2284 1224 LINE",
"2283 1195 LINE",
"2283 1188 LINE",
"2254 1051 LINE",
"2182 756 LINE",
"2144 618 LINE",
"2001 33 LINE",
"1985 28 LINE",
"1980 13 LINE",
"1980 10 LINE",
"1962 12 LINE",
"1948 12 LINE",
"1927 9 LINE",
"1913 9 LINE",
"1868 9 LINE",
"1751 9 LINE",
"1631 10 LINE",
"1517 10 LINE"
);
}
);
width = 2397;
}
);
unicode = 0057;
},
{
glyphname = X;
lastChange = "2016-07-06 09:50:25 +0000";
layers = (
{
layerId = UUID0;
paths = (
{
closed = 1;
nodes = (
"809 115 LINE",
"768 47 LINE",
"719 2 LINE",
"719 3 LINE",
"712 5 LINE",
"708 6 LINE",
"698 8 LINE",
"697 8 LINE",
"681 1 LINE",
"659 -8 LINE",
"637 -14 LINE",
"631 -12 LINE",
"617 -9 LINE",
"557 -6 LINE",
"477 -4 LINE",
"384 -4 LINE",
"291 -2 LINE",
"204 3 LINE",
"170 8 LINE",
"162 8 LINE",
"153 8 LINE",
"145 16 LINE",
"143 27 LINE",
"145 40 LINE",
"145 45 LINE",
"145 56 LINE",
"163 103 LINE",
"191 162 LINE",
"227 228 LINE",
"261 288 LINE",
"292 338 LINE",
"301 352 LINE",
"307 361 LINE",
"329 402 LINE",
"357 458 LINE",
"390 523 LINE",
"406 555 LINE",
"444 631 LINE",
"487 721 LINE",
"466 756 LINE",
"457 771 LINE",
"436 808 LINE",
"426 827 LINE",
"423 830 LINE",
"387 886 LINE",
"338 967 LINE",
"281 1059 LINE",
"231 1140 LINE",
"197 1195 LINE",
"194 1198 LINE",
"185 1211 LINE",
"154 1256 LINE",
"124 1308 LINE",
"102 1361 LINE",
"102 1382 LINE",
"117 1384 LINE",
"129 1386 LINE",
"140 1388 LINE",
"157 1390 LINE",
"157 1391 LINE",
"159 1391 LINE",
"206 1389 LINE",
"281 1386 LINE",
"377 1382 LINE",
"476 1377 LINE",
"572 1373 LINE",
"648 1370 LINE",
"696 1368 LINE",
"698 1368 LINE",
"706 1368 LINE",
"742 1324 LINE",
"787 1256 LINE",
"836 1176 LINE",
"877 1105 LINE",
"905 1054 LINE",
"907 1049 LINE",
"907 1043 LINE",
"913 1029 LINE",
"920 1017 LINE",
"927 1008 LINE",
"928 1008 LINE",
"934 1013 LINE",
"940 1019 LINE",
"945 1024 LINE",
"958 1039 LINE",
"964 1049 LINE",
"966 1054 LINE",
"995 1105 LINE",
"1036 1176 LINE",
"1085 1256 LINE",
"1130 1324 LINE",
"1165 1368 LINE",
"1173 1368 LINE",
"1176 1368 LINE",
"1258 1371 LINE",
"1377 1377 LINE",
"1514 1382 LINE",
"1632 1388 LINE",
"1712 1391 LINE",
"1714 1391 LINE",
"1714 1390 LINE",
"1730 1388 LINE",
"1741 1386 LINE",
"1769 1382 LINE",
"1769 1363 LINE",
"1747 1315 LINE",
"1717 1269 LINE",
"1686 1229 LINE",
"1677 1219 LINE",
"1674 1216 LINE",
"1640 1157 LINE",
"1591 1072 LINE",
"1534 974 LINE",
"1484 889 LINE",
"1449 830 LINE",
"1446 827 LINE",
"1433 808 LINE",
"1405 771 LINE",
"1393 756 LINE",
"1379 738 LINE",
"1364 721 LINE",
"1398 657 LINE",
"1428 602 LINE",
"1441 579 LINE",
"1466 532 LINE",
"1489 491 LINE",
"1506 460 LINE",
"1511 453 LINE",
"1523 433 LINE",
"1564 363 LINE",
"1612 278 LINE",
"1661 186 LINE",
"1701 104 LINE",
"1726 40 LINE",
"1726 25 LINE",
"1726 20 LINE",
"1728 7 LINE",
"1726 -4 LINE",
"1719 -12 LINE",
"1710 -12 LINE",
"1702 -12 LINE",
"1670 -12 LINE",
"1587 -10 LINE",
"1498 -8 LINE",
"1409 -6 LINE",
"1332 -6 LINE",
"1274 -9 LINE",
"1261 -12 LINE",
"1255 -14 LINE",
"1233 -8 LINE",
"1211 1 LINE",
"1195 8 LINE",
"1194 8 LINE",
"1192 8 LINE",
"1173 4 LINE",
"1171 2 LINE",
"1124 47 LINE",
"1124 63 LINE",
"1124 66 LINE",
"1121 66 LINE",
"1115 65 LINE",
"1107 66 LINE",
"1102 72 LINE",
"999 256 LINE",
"994 267 LINE",
"975 305 LINE",
"953 342 LINE",
"933 369 LINE",
"928 369 LINE",
"872 256 LINE"
);
}
);
width = 1871;
}
);
unicode = 0058;
},
{
glyphname = Y;
lastChange = "2016-07-06 09:50:25 +0000";
layers = (
{
layerId = UUID0;
paths = (
{
closed = 1;
nodes = (
"939 -182 LINE",
"933 -182 LINE",
"925 -186 LINE",
"923 -186 LINE",
"918 -186 LINE",
"912 -180 LINE",
"906 -168 LINE",
"855 -162 LINE",
"773 -138 LINE",
"742 -129 LINE",
"740 -128 LINE",
"725 -126 LINE",
"706 -124 LINE",
"689 -122 LINE",
"687 -121 LINE",
"670 -117 LINE",
"611 -99 LINE",
"542 -75 LINE",
"472 -48 LINE",
"414 -21 LINE",
"378 4 LINE",
"378 14 LINE",
"378 33 LINE",
"389 76 LINE",
"406 118 LINE",
"426 160 LINE",
"435 178 LINE",
"443 196 LINE",
"472 240 LINE",
"500 286 LINE",
"521 330 LINE",
"521 348 LINE",
"521 368 LINE",
"500 397 LINE",
"475 424 LINE",
"454 452 LINE",
"454 471 LINE",
"447 471 LINE",
"445 469 LINE",
"443 469 LINE",
"441 469 LINE",
"438 471 LINE",
"435 477 LINE",
"408 512 LINE",
"339 615 LINE",
"265 734 LINE",
"193 862 LINE",
"163 922 LINE",
"156 935 LINE",
"135 980 LINE",
"112 1035 LINE",
"89 1095 LINE",
"70 1149 LINE",
"58 1193 LINE",
"58 1204 LINE",
"58 1217 LINE",
"83 1244 LINE",
"121 1270 LINE",
"165 1292 LINE",
"183 1300 LINE",
"208 1303 LINE",
"251 1316 LINE",
"284 1329 LINE",
"308 1339 LINE",
"316 1339 LINE",
"324 1339 LINE",
"380 1351 LINE",
"454 1369 LINE",
"535 1392 LINE",
"568 1403 LINE",
"571 1403 LINE",
"574 1404 LINE",
"576 1404 LINE",
"581 1405 LINE",
"583 1405 LINE",
"603 1405 LINE",
"631 1394 LINE",
"652 1373 LINE",
"670 1343 LINE",
"679 1325 LINE",
"685 1314 LINE",
"703 1289 LINE",
"722 1265 LINE",
"738 1245 LINE",
"742 1239 LINE",
"757 1217 LINE",
"799 1144 LINE",
"841 1075 LINE",
"878 1024 LINE",
"890 1024 LINE",
"897 1024 LINE",
"924 1068 LINE",
"958 1136 LINE",
"995 1219 LINE",
"1029 1296 LINE",
"1056 1358 LINE",
"1062 1372 LINE",
"1066 1386 LINE",
"1074 1409 LINE",
"1085 1426 LINE",
"1104 1436 LINE",
"1119 1436 LINE",
"1151 1436 LINE",
"1241 1420 LINE",
"1340 1391 LINE",
"1443 1351 LINE",
"1533 1306 LINE",
"1604 1256 LINE",
"1623 1231 LINE",
"1623 1202 LINE",
"1609 1150 LINE",
"1598 1128 LINE",
"1502 918 LINE",
"1317 503 LINE",
"1222 295 LINE",
"1220 293 LINE",
"1213 291 LINE",
"1211 289 LINE",
"1149 168 LINE",
"1025 -68 LINE",
"963 -186 LINE",
"960 -193 LINE",
"945 -195 LINE",
"939 -195 LINE"
);
}
);
width = 1678;
}
);
unicode = 0059;
},
{
glyphname = Z;
lastChange = "2016-07-06 09:50:25 +0000";
layers = (
{
layerId = UUID0;
paths = (
{
closed = 1;
nodes = (
"146 434 LINE",
"269 556 LINE",
"367 659 LINE",
"409 702 LINE",
"488 790 LINE",
"551 864 LINE",
"589 920 LINE",
"589 932 LINE",
"589 940 LINE",
"578 940 LINE",
"189 946 LINE",
"170 946 LINE",
"143 973 LINE",
"125 1016 LINE",
"116 1071 LINE",
"112 1126 LINE",
"111 1177 LINE",
"111 1196 LINE",
"111 1204 LINE",
"113 1251 LINE",
"115 1301 LINE",
"117 1340 LINE",
"117 1341 LINE",
"128 1352 LINE",
"142 1366 LINE",
"169 1366 LINE",
"181 1366 LINE",
"207 1362 LINE",
"218 1362 LINE",
"293 1362 LINE",
"442 1374 LINE",
"517 1374 LINE",
"665 1374 LINE",
"952 1380 LINE",
"1105 1380 LINE",
"1174 1380 LINE",
"1259 1372 LINE",
"1306 1360 LINE",
"1322 1344 LINE",
"1322 1335 LINE",
"1322 1008 LINE",
"1322 984 LINE",
"1293 904 LINE",
"1202 767 LINE",
"1030 563 LINE",
"888 416 LINE",
"955 416 LINE",
"1022 417 LINE",
"1079 417 LINE",
"1207 418 LINE",
"1260 418 LINE",
"1280 418 LINE",
"1311 389 LINE",
"1311 377 LINE",
"1311 45 LINE",
"1311 40 LINE",
"1307 24 LINE",
"1280 10 LINE",
"1222 0 LINE",
"1168 0 LINE",
"808 0 LINE",
"722 0 LINE",
"574 1 LINE",
"431 3 LINE",
"284 4 LINE",
"199 4 LINE",
"190 4 LINE",
"171 14 LINE",
"156 29 LINE",
"146 48 LINE",
"146 57 LINE"
);
}
);
width = 1439;
}
);
unicode = 005A;
},
{
glyphname = R.alt;
lastChange = "2016-07-06 09:50:25 +0000";
layers = (
{
layerId = UUID0;
paths = (
{
closed = 1;
nodes = (
"1150 -27 LINE",
"1147 -16 LINE",
"1141 -12 LINE",
"1139 -12 LINE",
"1137 -12 LINE",
"1132 -8 LINE",
"1127 -2 LINE",
"953 256 LINE",
"949 263 LINE",
"928 296 LINE",
"903 330 LINE",
"880 356 LINE",
"875 356 LINE",
"866 356 LINE",
"859 305 LINE",
"856 229 LINE",
"855 139 LINE",
"850 63 LINE",
"839 12 LINE",
"828 12 LINE",
"820 12 LINE",
"806 14 LINE",
"804 14 LINE",
"694 8 LINE",
"485 -4 LINE",
"376 -4 LINE",
"363 -4 LINE",
"319 -3 LINE",
"277 -3 LINE",
"245 -2 LINE",
"244 -2 LINE",
"171 23 LINE",
"163 39 LINE",
"163 39 LINE",
"158 86 LINE",
"152 160 LINE",
"145 254 LINE",
"138 348 LINE",
"132 436 LINE",
"130 467 LINE",
"125 545 LINE",
"113 706 LINE",
"113 784 LINE",
"113 789 LINE",
"116 825 LINE",
"119 865 LINE",
"122 900 LINE",
"122 905 LINE",
"122 972 LINE",
"111 1092 LINE",
"111 1161 LINE",
"111 1209 LINE",
"116 1297 LINE",
"133 1364 LINE",
"163 1405 LINE",
"187 1405 LINE",
"298 1405 LINE",
"537 1402 LINE",
"778 1396 LINE",
"1016 1389 LINE",
"1125 1386 LINE",
"1263 1382 LINE",
"1460 1312 LINE",
"1586 1200 LINE",
"1645 1057 LINE",
"1645 979 LINE",
"1645 926 LINE",
"1625 839 LINE",
"1592 767 LINE",
"1550 710 LINE",
"1528 688 LINE",
"1477 637 LINE",
"1412 606 LINE",
"1428 592 LINE",
"1444 578 LINE",
"1458 566 LINE",
"1487 540 LINE",
"1500 532 LINE",
"1510 519 LINE",
"1551 469 LINE",
"1601 407 LINE",
"1655 339 LINE",
"1699 277 LINE",
"1727 225 LINE",
"1727 211 LINE",
"1727 190 LINE",
"1688 151 LINE",
"1633 115 LINE",
"1575 81 LINE",
"1557 66 LINE",
"1520 47 LINE",
"1440 2 LINE",
"1393 -12 LINE",
"1390 -13 LINE",
"1364 -23 LINE",
"1330 -35 LINE",
"1291 -47 LINE",
"1259 -57 LINE",
"1239 -61 LINE",
"1240 -59 LINE",
"1235 -70 LINE",
"1225 -70 LINE",
"1223 -70 LINE",
"1222 -70 LINE",
"1214 -70 LINE",
"1196 -62 LINE",
"1169 -45 LINE"
);
},
{
closed = 1;
nodes = (
"861 659 LINE",
"862 657 LINE",
"867 656 LINE",
"872 654 LINE",
"892 653 LINE",
"912 653 LINE",
"941 653 LINE",
"980 689 LINE",
"1006 745 LINE",
"1020 814 LINE",
"1026 880 LINE",
"1027 935 LINE",
"1027 950 LINE",
"1027 953 LINE",
"1026 990 LINE",
"1020 1042 LINE",
"1006 1100 LINE",
"980 1149 LINE",
"941 1182 LINE",
"912 1182 LINE",
"902 1182 LINE",
"887 1137 LINE",
"877 1063 LINE",
"869 969 LINE",
"867 920 LINE",
"862 805 LINE"
);
}
);
width = 1810;
}
);
},
{
glyphname = a;
lastChange = "2016-07-06 09:50:25 +0000";
layers = (
{
layerId = UUID0;
paths = (
{
closed = 1;
nodes = (
"631 1167 LINE",
"667 1167 LINE",
"718 1169 LINE",
"758 1171 LINE",
"793 1174 LINE",
"836 1176 LINE",
"893 1178 LINE",
"934 1178 LINE",
"941 1178 LINE",
"982 1177 LINE",
"1036 1175 LINE",
"1098 1174 LINE",
"1153 1172 LINE",
"1196 1171 LINE",
"1204 1171 LINE",
"1216 1171 LINE",
"1235 1163 LINE",
"1247 1163 LINE",
"1263 1163 LINE",
"1270 1161 LINE",
"1280 1148 LINE",
"1280 1143 LINE",
"1425 602 LINE",
"1453 496 LINE",
"1507 270 LINE",
"1530 162 LINE",
"1532 150 LINE",
"1544 95 LINE",
"1547 40 LINE",
"1535 -2 LINE",
"1513 -2 LINE",
"1507 -2 LINE",
"1472 -2 LINE",
"1428 -1 LINE",
"1381 0 LINE",
"1340 1 LINE",
"1312 1 LINE",
"1311 2 LINE",
"1198 2 LINE",
"1198 4 LINE",
"1194 10 LINE",
"1182 10 LINE",
"1180 10 LINE",
"1176 2 LINE",
"1173 2 LINE",
"1167 2 LINE",
"1166 2 LINE",
"1137 4 LINE",
"1096 7 LINE",
"1051 10 LINE",
"1034 10 LINE",
"1022 32 LINE",
"995 143 LINE",
"981 217 LINE",
"960 213 LINE",
"910 210 LINE",
"856 210 LINE",
"802 211 LINE",
"778 211 LINE",
"763 140 LINE",
"737 32 LINE",
"725 10 LINE",
"719 10 LINE",
"700 2 LINE",
"698 2 LINE",
"694 2 LINE",
"683 2 LINE",
"672 10 LINE",
"667 10 LINE",
"622 9 LINE",
"587 7 LINE",
"557 5 LINE",
"508 3 LINE",
"508 2 LINE",
"342 2 LINE",
"341 2 LINE",
"314 1 LINE",
"273 0 LINE",
"225 -1 LINE",
"181 -2 LINE",
"146 -2 LINE",
"139 -2 LINE",
"118 -2 LINE",
"106 40 LINE",
"110 95 LINE",
"121 150 LINE",
"123 162 LINE",
"146 270 LINE",
"199 496 LINE",
"227 602 LINE",
"366 1147 LINE",
"366 1152 LINE",
"378 1165 LINE",
"383 1167 LINE",
"399 1167 LINE",
"422 1167 LINE",
"456 1176 LINE",
"481 1176 LINE",
"519 1176 LINE",
"589 1167 LINE"
);
},
{
closed = 1;
nodes = (
"874 883 LINE",
"874 882 LINE",
"866 836 LINE",
"854 762 LINE",
"837 667 LINE",
"821 569 LINE",
"805 475 LINE",
"799 438 LINE",
"889 438 LINE",
"891 440 LINE",
"899 444 LINE",
"901 444 LINE",
"905 444 LINE",
"922 444 LINE",
"948 437 LINE",
"962 434 LINE",
"956 471 LINE",
"940 566 LINE",
"924 665 LINE",
"907 760 LINE",
"895 835 LINE",
"887 882 LINE",
"887 883 LINE",
"886 885 LINE",
"885 889 LINE",
"884 892 LINE",
"882 902 LINE",
"880 909 LINE",
"878 902 LINE",
"876 892 LINE",
"875 889 LINE",
"874 885 LINE"
);
}
);
width = 1652;
}
);
unicode = 0061;
},
{
glyphname = ae;
lastChange = "2016-07-06 09:50:25 +0000";
layers = (
{
layerId = UUID0;
paths = (
{
closed = 1;
nodes = (
"868 1167 LINE",
"916 1167 LINE",
"975 1170 LINE",
"1026 1173 LINE",
"1080 1176 LINE",
"1124 1177 LINE",
"1155 1183 LINE",
"1231 1184 LINE",
"1257 1184 LINE",
"1336 1184 LINE",
"1486 1174 LINE",
"1565 1174 LINE",
"1658 1174 LINE",
"1857 1190 LINE",
"1950 1190 LINE",
"1958 1190 LINE",
"1960 1187 LINE",
"1960 1182 LINE",
"2024 1182 LINE",
"2042 1182 LINE",
"2061 1143 LINE",
"2075 1083 LINE",
"2085 1011 LINE",
"2094 979 LINE",
"2094 960 LINE",
"2087 922 LINE",
"2073 922 LINE",
"2071 922 LINE",
"2061 930 LINE",
"2059 930 LINE",
"2045 932 LINE",
"2024 922 LINE",
"2010 922 LINE",
"1997 922 LINE",
"1982 930 LINE",
"1971 930 LINE",
"1952 930 LINE",
"1901 917 LINE",
"1883 915 LINE",
"1869 913 LINE",
"1811 912 LINE",
"1747 912 LINE",
"1687 913 LINE",
"1672 913 LINE",
"1663 913 LINE",
"1650 870 LINE",
"1641 813 LINE",
"1637 756 LINE",
"1637 743 LINE",
"1637 722 LINE",
"1657 711 LINE",
"1686 711 LINE",
"1967 711 LINE",
"1980 714 LINE",
"2013 686 LINE",
"2016 655 LINE",
"2019 520 LINE",
"2022 502 LINE",
"1995 482 LINE",
"1946 472 LINE",
"1882 469 LINE",
"1848 469 LINE",
"1758 469 LINE",
"1722 469 LINE",
"1672 469 LINE",
"1642 461 LINE",
"1629 439 LINE",
"1629 418 LINE",
"1629 413 LINE",
"1629 405 LINE",
"1630 402 LINE",
"1630 398 LINE",
"1631 395 LINE",
"1631 386 LINE",
"1629 362 LINE",
"1628 351 LINE",
"1626 339 LINE",
"1625 326 LINE",
"1625 317 LINE",
"1626 296 LINE",
"1626 276 LINE",
"1627 260 LINE",
"1627 256 LINE",
"1720 256 LINE",
"1909 268 LINE",
"2001 268 LINE",
"2008 268 LINE",
"2015 250 LINE",
"2020 225 LINE",
"2022 197 LINE",
"2024 188 LINE",
"2029 168 LINE",
"2037 140 LINE",
"2043 112 LINE",
"2046 78 LINE",
"2046 53 LINE",
"2046 51 LINE",
"2045 44 LINE",
"2045 40 LINE",
"2044 36 LINE",
"2044 31 LINE",
"2030 16 LINE",
"2026 15 LINE",
"2022 15 LINE",
"2019 14 LINE",
"2012 14 LINE",
"2010 14 LINE",
"1975 14 LINE",
"1919 12 LINE",
"1860 8 LINE",
"1790 4 LINE",
"1690 0 LINE",
"1553 -2 LINE",
"1457 -2 LINE",
"1450 -2 LINE",
"1416 -2 LINE",
"1373 -1 LINE",
"1325 0 LINE",
"1284 1 LINE",
"1257 1 LINE",
"1256 2 LINE",
"1143 2 LINE",
"1143 6 LINE",
"1140 8 LINE",
"1138 8 LINE",
"1138 9 LINE",
"1136 9 LINE",
"1132 10 LINE",
"1129 10 LINE",
"1127 10 LINE",
"1121 2 LINE",
"1118 2 LINE",
"1112 2 LINE",
"1111 2 LINE",
"1083 4 LINE",
"1042 7 LINE",
"998 10 LINE",
"981 10 LINE",
"974 32 LINE",
"975 143 LINE",
"980 217 LINE",
"958 213 LINE",
"907 210 LINE",
"853 210 LINE",
"799 211 LINE",
"775 211 LINE",
"743 140 LINE",
"689 32 LINE",
"672 10 LINE",
"666 10 LINE",
"645 2 LINE",
"643 2 LINE",
"639 2 LINE",
"628 2 LINE",
"619 10 LINE",
"614 10 LINE",
"568 9 LINE",
"533 7 LINE",
"503 5 LINE",
"453 3 LINE",
"453 2 LINE",
"327 2 LINE",
"325 1 LINE",
"269 0 LINE",
"198 -1 LINE",
"134 -2 LINE",
"124 -2 LINE",
"103 -2 LINE",
"102 40 LINE",
"119 95 LINE",
"144 150 LINE",
"148 162 LINE",
"193 270 LINE",
"292 496 LINE",
"342 602 LINE",
"598 1147 LINE",
"599 1152 LINE",
"615 1165 LINE",
"620 1167 LINE",
"636 1167 LINE",
"659 1167 LINE",
"695 1176 LINE",
"720 1176 LINE",
"758 1176 LINE",
"826 1167 LINE"
);
},
{
closed = 1;
nodes = (
"1039 883 LINE",
"1039 882 LINE",
"1019 836 LINE",
"988 762 LINE",
"949 667 LINE",
"908 569 LINE",
"868 475 LINE",
"853 438 LINE",
"943 438 LINE",
"945 440 LINE",
"954 444 LINE",
"956 444 LINE",
"960 444 LINE",
"977 444 LINE",
"1002 437 LINE",
"1015 434 LINE",
"1018 471 LINE",
"1026 566 LINE",
"1034 665 LINE",
"1042 760 LINE",
"1048 835 LINE",
"1052 882 LINE",
"1052 883 LINE",
"1052 909 LINE"
);
}
);
width = 2205;
}
);
unicode = 00E6;
},
{
glyphname = b;
lastChange = "2016-07-06 09:50:25 +0000";
layers = (
{
layerId = UUID0;
paths = (
{
closed = 1;
nodes = (
"117 900 LINE",
"117 930 LINE",
"117 977 LINE",
"119 1022 LINE",
"121 1070 LINE",
"124 1101 LINE",
"127 1103 LINE",
"141 1120 LINE",
"144 1122 LINE",
"148 1126 LINE",
"168 1143 LINE",
"192 1162 LINE",
"212 1178 LINE",
"216 1181 LINE",
"288 1178 LINE",
"436 1195 LINE",
"509 1195 LINE",
"590 1195 LINE",
"757 1178 LINE",
"838 1169 LINE",
"883 1163 LINE",
"989 1149 LINE",
"1095 1123 LINE",
"1194 1083 LINE",
"1270 1022 LINE",
"1316 934 LINE",
"1316 874 LINE",
"1316 868 LINE",
"1314 842 LINE",
"1311 812 LINE",
"1308 785 LINE",
"1307 780 LINE",
"1301 762 LINE",
"1277 724 LINE",
"1247 690 LINE",
"1213 662 LINE",
"1197 655 LINE",
"1195 653 LINE",
"1173 642 LINE",
"1147 631 LINE",
"1125 621 LINE",
"1123 620 LINE",
"1118 618 LINE",
"1101 606 LINE",
"1096 601 LINE",
"1103 593 LINE",
"1160 569 LINE",
"1253 518 LINE",
"1319 447 LINE",
"1356 351 LINE",
"1356 284 LINE",
"1356 278 LINE",
"1356 255 LINE",
"1354 253 LINE",
"1348 241 LINE",
"1347 239 LINE",
"1327 216 LINE",
"1300 188 LINE",
"1271 160 LINE",
"1262 153 LINE",
"1231 125 LINE",
"1167 100 LINE",
"1129 87 LINE",
"1119 83 LINE",
"1071 64 LINE",
"1016 42 LINE",
"967 23 LINE",
"957 20 LINE",
"944 18 LINE",
"873 11 LINE",
"792 2 LINE",
"720 -6 LINE",
"705 -7 LINE",
"700 -8 LINE",
"677 -10 LINE",
"650 -12 LINE",
"625 -13 LINE",
"619 -13 LINE",
"617 -13 LINE",
"607 -20 LINE",
"605 -20 LINE",
"556 -20 LINE",
"463 -20 LINE",
"373 -16 LINE",
"286 -6 LINE",
"242 5 LINE",
"177 34 LINE",
"168 37 LINE",
"160 37 LINE",
"154 41 LINE",
"149 52 LINE",
"144 67 LINE",
"133 96 LINE",
"127 164 LINE",
"129 234 LINE",
"133 303 LINE",
"132 333 LINE",
"126 476 LINE",
"117 758 LINE"
);
},
{
closed = 1;
nodes = (
"699 442 LINE",
"688 442 LINE",
"679 422 LINE",
"679 413 LINE",
"679 274 LINE",
"679 268 LINE",
"690 266 LINE",
"693 266 LINE",
"695 266 LINE",
"699 266 LINE",
"699 268 LINE",
"971 395 LINE",
"986 407 LINE",
"977 410 LINE",
"959 414 LINE",
"953 419 LINE",
"900 425 LINE",
"814 442 LINE",
"765 442 LINE"
);
},
{
closed = 1;
nodes = (
"705 780 LINE",
"705 773 LINE",
"706 761 LINE",
"715 761 LINE",
"720 761 LINE",
"722 761 LINE",
"738 765 LINE",
"740 765 LINE",
"759 774 LINE",
"819 802 LINE",
"876 828 LINE",
"917 847 LINE",
"918 847 LINE",
"939 859 LINE",
"930 871 LINE",
"889 889 LINE",
"842 901 LINE",
"797 907 LINE",
"783 907 LINE",
"753 907 LINE",
"721 887 LINE",
"707 852 LINE",
"705 806 LINE"
);
}
);
width = 1439;
}
);
unicode = 0062;
},
{
glyphname = c;
lastChange = "2016-07-06 09:50:25 +0000";
layers = (
{
layerId = UUID0;
paths = (
{
closed = 1;
nodes = (
"683 573 LINE",
"683 492 LINE",
"705 382 LINE",
"746 315 LINE",
"801 285 LINE",
"834 285 LINE",
"860 285 LINE",
"919 302 LINE",
"980 331 LINE",
"1043 368 LINE",
"1074 389 LINE",
"1094 98 LINE",
"1059 64 LINE",
"968 10 LINE",
"868 -28 LINE",
"767 -49 LINE",
"722 -49 LINE",
"648 -49 LINE",
"496 -37 LINE",
"354 4 LINE",
"230 83 LINE",
"138 216 LINE",
"85 411 LINE",
"85 549 LINE",
"85 712 LINE",
"177 965 LINE",
"337 1139 LINE",
"554 1229 LINE",
"679 1229 LINE",
"785 1229 LINE",
"1011 1162 LINE",
"1125 1096 LINE",
"1097 864 LINE",
"1046 877 LINE",
"936 903 LINE",
"884 903 LINE",
"842 903 LINE",
"769 875 LINE",
"715 801 LINE",
"683 673 LINE"
);
}
);
width = 1217;
}
);
unicode = 0063;
},
{
glyphname = d;
lastChange = "2016-07-06 09:50:25 +0000";
layers = (
{
layerId = UUID0;
paths = (
{
closed = 1;
nodes = (
"674 -1 LINE",
"617 -1 LINE",
"503 0 LINE",
"382 2 LINE",
"249 3 LINE",
"174 3 LINE",
"158 3 LINE",
"139 23 LINE",
"130 55 LINE",
"127 93 LINE",
"127 110 LINE",
"127 137 LINE",
"126 220 LINE",
"124 323 LINE",
"122 441 LINE",
"120 565 LINE",
"119 690 LINE",
"119 749 LINE",
"119 1136 LINE",
"119 1151 LINE",
"148 1181 LINE",
"164 1181 LINE",
"282 1181 LINE",
"452 1177 LINE",
"514 1177 LINE",
"610 1177 LINE",
"827 1183 LINE",
"958 1183 LINE",
"1006 1183 LINE",
"1115 1165 LINE",
"1223 1120 LINE",
"1322 1043 LINE",
"1399 925 LINE",
"1444 762 LINE",
"1444 654 LINE",
"1444 474 LINE",
"1365 225 LINE",
"1183 69 LINE",
"889 -1 LINE"
);
},
{
closed = 1;
nodes = (
"688 232 LINE",
"705 231 LINE",
"721 232 LINE",
"735 233 LINE",
"760 238 LINE",
"768 245 LINE",
"785 263 LINE",
"814 363 LINE",
"836 494 LINE",
"848 635 LINE",
"848 693 LINE",
"848 699 LINE",
"847 751 LINE",
"843 822 LINE",
"833 903 LINE",
"815 970 LINE",
"788 1015 LINE",
"768 1015 LINE",
"753 1015 LINE",
"731 1009 LINE",
"723 1006 LINE",
"714 1002 LINE",
"708 998 LINE",
"708 957 LINE",
"706 849 LINE",
"703 726 LINE",
"700 596 LINE",
"698 534 LINE",
"694 389 LINE"
);
}
);
width = 1538;
}
);
unicode = 0064;
},
{
glyphname = eth;
lastChange = "2016-07-06 09:50:25 +0000";
layers = (
{
layerId = UUID0;
paths = (
{
closed = 1;
nodes = (
"733 931 LINE",
"712 920 LINE",
"669 896 LINE",
"632 882 LINE",
"604 882 LINE",
"598 894 LINE",
"589 912 LINE",
"574 940 LINE",
"559 965 LINE",
"544 991 LINE",
"535 1009 LINE",
"532 1016 LINE",
"533 1034 LINE",
"537 1036 LINE",
"563 1050 LINE",
"611 1078 LINE",
"637 1093 LINE",
"609 1098 LINE",
"580 1098 LINE",
"502 1098 LINE",
"358 1053 LINE",
"295 1024 LINE",
"262 1016 LINE",
"224 1024 LINE",
"197 1061 LINE",
"173 1129 LINE",
"154 1182 LINE",
"131 1235 LINE",
"126 1290 LINE",
"142 1316 LINE",
"169 1324 LINE",
"177 1330 LINE",
"209 1353 LINE",
"282 1382 LINE",
"317 1396 LINE",
"488 1463 LINE",
"646 1463 LINE",
"912 1463 LINE",
"1108 1350 LINE",
"1138 1365 LINE",
"1201 1397 LINE",
"1258 1425 LINE",
"1304 1449 LINE",
"1318 1456 LINE",
"1336 1465 LINE",
"1375 1485 LINE",
"1411 1497 LINE",
"1437 1499 LINE",
"1441 1492 LINE",
"1453 1469 LINE",
"1460 1443 LINE",
"1468 1427 LINE",
"1486 1392 LINE",
"1502 1352 LINE",
"1492 1347 LINE",
"1468 1332 LINE",
"1447 1320 LINE",
"1429 1309 LINE",
"1395 1288 LINE",
"1387 1284 LINE",
"1271 1223 LINE",
"1319 1174 LINE",
"1399 1058 LINE",
"1425 992 LINE",
"1451 923 LINE",
"1467 769 LINE",
"1467 682 LINE",
"1467 563 LINE",
"1408 366 LINE",
"1305 209 LINE",
"1165 92 LINE",
"1003 14 LINE",
"826 -24 LINE",
"738 -24 LINE",
"610 -24 LINE",
"372 38 LINE",
"189 162 LINE",
"79 348 LINE",
"79 472 LINE",
"79 569 LINE",
"163 716 LINE",
"236 759 LINE",
"383 827 LINE",
"583 827 LINE",
"641 827 LINE",
"765 796 LINE",
"830 762 LINE",
"829 779 LINE",
"827 826 LINE",
"821 879 LINE",
"808 936 LINE",
"796 963 LINE"
);
},
{
closed = 1;
nodes = (
"699 316 LINE",
"752 316 LINE",
"834 387 LINE",
"855 472 LINE",
"830 482 LINE",
"802 490 LINE",
"778 497 LINE",
"717 508 LINE",
"685 508 LINE",
"642 508 LINE",
"583 471 LINE",
"583 424 LINE",
"583 366 LINE",
"649 316 LINE"
);
}
);
width = 1591;
}
);
unicode = 00F0;
},
{
glyphname = dslash;
lastChange = "2016-07-06 09:50:25 +0000";
layers = (
{
layerId = UUID0;
paths = (
{
closed = 1;
nodes = (
"674 -1 LINE",
"617 -1 LINE",
"503 0 LINE",
"382 2 LINE",
"249 3 LINE",
"174 3 LINE",
"158 3 LINE",
"139 23 LINE",
"130 55 LINE",
"127 93 LINE",
"127 110 LINE",
"127 137 LINE",
"126 220 LINE",
"124 323 LINE",
"123 382 LINE",
"122 412 LINE",
"121 443 LINE",
"120 443 LINE",
"88 443 LINE",
"36 451 LINE",
"3 474 LINE",
"3 496 LINE",
"3 538 LINE",
"2 601 LINE",
"1 661 LINE",
"0 723 LINE",
"0 763 LINE",
"0 771 LINE",
"10 788 LINE",
"27 801 LINE",
"47 810 LINE",
"56 810 LINE",
"89 810 LINE",
"119 811 LINE",
"119 1136 LINE",
"119 1151 LINE",
"148 1181 LINE",
"164 1181 LINE",
"282 1181 LINE",
"452 1177 LINE",
"514 1177 LINE",
"610 1177 LINE",
"827 1183 LINE",
"958 1183 LINE",
"1006 1183 LINE",
"1115 1165 LINE",
"1223 1120 LINE",
"1322 1043 LINE",
"1399 925 LINE",
"1444 762 LINE",
"1444 654 LINE",
"1444 474 LINE",
"1365 225 LINE",
"1183 69 LINE",
"889 -1 LINE"
);
},
{
closed = 1;
nodes = (
"646 232 LINE",
"675 231 LINE",
"702 232 LINE",
"726 233 LINE",
"769 238 LINE",
"783 245 LINE",
"812 263 LINE",
"862 361 LINE",
"899 490 LINE",
"920 629 LINE",
"920 686 LINE",
"920 692 LINE",
"918 743 LINE",
"911 813 LINE",
"894 893 LINE",
"863 959 LINE",
"817 1003 LINE",
"783 1003 LINE",
"757 1003 LINE",
"720 997 LINE",
"706 994 LINE",
"690 990 LINE",
"680 986 LINE",
"680 946 LINE",
"678 893 LINE",
"677 853 LINE",
"676 809 LINE",
"678 808 LINE",
"681 808 LINE",
"704 807 LINE",
"742 797 LINE",
"767 778 LINE",
"767 762 LINE",
"767 721 LINE",
"765 667 LINE",
"763 621 LINE",
"761 578 LINE",
"761 549 LINE",
"761 525 LINE",
"756 488 LINE",
"735 463 LINE",
"712 456 LINE",
"692 450 LINE",
"659 450 LINE",
"653 344 LINE"
);
}
);
width = 1538;
}
);
unicode = 0111;
},
{
glyphname = e;
lastChange = "2016-07-06 09:50:25 +0000";
layers = (
{
layerId = UUID0;
paths = (
{
closed = 1;
nodes = (
"116 698 LINE",
"116 810 LINE",
"120 1029 LINE",
"131 1147 LINE",
"131 1162 LINE",
"172 1178 LINE",
"229 1184 LINE",
"292 1184 LINE",
"313 1184 LINE",
"401 1184 LINE",
"573 1174 LINE",
"661 1174 LINE",
"677 1174 LINE",
"705 1176 LINE",
"721 1176 LINE",
"733 1167 LINE",
"810 1184 LINE",
"971 1190 LINE",
"1046 1190 LINE",
"1051 1190 LINE",
"1056 1182 LINE",
"1120 1182 LINE",
"1138 1182 LINE",
"1157 1143 LINE",
"1171 1083 LINE",
"1181 1011 LINE",
"1190 979 LINE",
"1190 960 LINE",
"1183 922 LINE",
"1169 922 LINE",
"1167 922 LINE",
"1157 930 LINE",
"1155 930 LINE",
"1141 932 LINE",
"1120 922 LINE",
"1106 922 LINE",
"1093 922 LINE",
"1078 930 LINE",
"1067 930 LINE",
"1048 930 LINE",
"997 917 LINE",
"979 915 LINE",
"965 913 LINE",
"906 914 LINE",
"840 913 LINE",
"781 905 LINE",
"768 895 LINE",
"768 901 LINE",
"759 901 LINE",
"746 861 LINE",
"737 809 LINE",
"733 756 LINE",
"733 743 LINE",
"733 719 LINE",
"746 705 LINE",
"762 705 LINE",
"767 705 LINE",
"779 708 LINE",
"782 711 LINE",
"785 711 LINE",
"801 707 LINE",
"805 705 LINE",
"979 705 LINE",
"981 707 LINE",
"991 711 LINE",
"993 711 LINE",
"1010 713 LINE",
"1036 700 LINE",
"1048 698 LINE",
"1063 696 LINE",
"1083 694 LINE",
"1097 688 LINE",
"1107 672 LINE",
"1112 655 LINE",
"1155 520 LINE",
"1158 502 LINE",
"1124 482 LINE",
"1064 472 LINE",
"985 469 LINE",
"944 469 LINE",
"854 469 LINE",
"818 469 LINE",
"768 469 LINE",
"738 461 LINE",
"725 439 LINE",
"725 418 LINE",
"725 413 LINE",
"725 405 LINE",
"726 402 LINE",
"726 398 LINE",
"727 395 LINE",
"727 386 LINE",
"725 362 LINE",
"724 351 LINE",
"722 339 LINE",
"721 326 LINE",
"721 317 LINE",
"722 296 LINE",
"722 276 LINE",
"723 260 LINE",
"723 256 LINE",
"816 256 LINE",
"1005 268 LINE",
"1097 268 LINE",
"1103 268 LINE",
"1110 250 LINE",
"1115 225 LINE",
"1118 197 LINE",
"1120 188 LINE",
"1124 168 LINE",
"1132 140 LINE",
"1138 112 LINE",
"1142 78 LINE",
"1142 53 LINE",
"1142 51 LINE",
"1141 44 LINE",
"1141 40 LINE",
"1140 36 LINE",
"1140 31 LINE",
"1126 16 LINE",
"1122 15 LINE",
"1118 15 LINE",
"1115 14 LINE",
"1108 14 LINE",
"1106 14 LINE",
"1086 14 LINE",
"1069 23 LINE",
"1063 23 LINE",
"1060 23 LINE",
"1038 11 LINE",
"1036 8 LINE",
"1036 18 LINE",
"1030 18 LINE",
"993 16 LINE",
"981 16 LINE",
"975 16 LINE",
"958 23 LINE",
"952 23 LINE",
"929 23 LINE",
"869 19 LINE",
"846 8 LINE",
"809 8 LINE",
"196 8 LINE",
"194 8 LINE",
"184 24 LINE",
"172 48 LINE",
"162 75 LINE",
"159 86 LINE",
"150 101 LINE",
"138 156 LINE",
"130 226 LINE",
"125 303 LINE",
"123 376 LINE",
"123 437 LINE",
"123 457 LINE",
"123 484 LINE",
"121 527 LINE",
"118 578 LINE",
"116 647 LINE"
);
}
);
width = 1295;
}
);
unicode = 0065;
},
{
glyphname = f;
lastChange = "2016-07-06 09:50:25 +0000";
layers = (
{
layerId = UUID0;
paths = (
{
closed = 1;
nodes = (
"116 1159 LINE",
"116 1162 LINE",
"126 1177 LINE",
"131 1180 LINE",
"136 1180 LINE",
"142 1178 LINE",
"147 1178 LINE",
"172 1178 LINE",
"217 1188 LINE",
"243 1188 LINE",
"282 1188 LINE",
"360 1180 LINE",
"403 1180 LINE",
"411 1186 LINE",
"501 1186 LINE",
"503 1184 LINE",
"514 1180 LINE",
"516 1180 LINE",
"517 1180 LINE",
"528 1182 LINE",
"540 1184 LINE",
"550 1186 LINE",
"551 1186 LINE",
"556 1186 LINE",
"576 1182 LINE",
"579 1180 LINE",
"1048 1180 LINE",
"1050 1178 LINE",
"1061 1174 LINE",
"1063 1174 LINE",
"1065 1174 LINE",
"1075 1180 LINE",
"1077 1180 LINE",
"1101 1180 LINE",
"1134 1136 LINE",
"1154 1064 LINE",
"1163 972 LINE",
"1163 924 LINE",
"1163 912 LINE",
"1142 902 LINE",
"1113 898 LINE",
"1081 899 LINE",
"1071 899 LINE",
"989 899 LINE",
"969 899 LINE",
"946 896 LINE",
"925 893 LINE",
"898 891 LINE",
"876 891 LINE",
"862 891 LINE",
"836 891 LINE",
"831 893 LINE",
"817 885 LINE",
"816 880 LINE",
"812 854 LINE",
"808 807 LINE",
"805 737 LINE",
"805 688 LINE",
"806 689 LINE",
"801 677 LINE",
"811 668 LINE",
"848 668 LINE",
"875 668 LINE",
"943 663 LINE",
"1008 651 LINE",
"1060 629 LINE",
"1071 612 LINE",
"1082 595 LINE",
"1087 549 LINE",
"1087 526 LINE",
"1087 486 LINE",
"1085 425 LINE",
"1085 387 LINE",
"1071 379 LINE",
"1024 366 LINE",
"973 357 LINE",
"924 352 LINE",
"909 352 LINE",
"904 352 LINE",
"901 360 LINE",
"895 360 LINE",
"887 360 LINE",
"882 352 LINE",
"874 352 LINE",
"868 352 LINE",
"860 358 LINE",
"854 358 LINE",
"852 358 LINE",
"841 346 LINE",
"839 344 LINE",
"827 342 LINE",
"804 343 LINE",
"783 340 LINE",
"764 330 LINE",
"755 317 LINE",
"755 259 LINE",
"754 157 LINE",
"750 75 LINE",
"741 15 LINE",
"733 0 LINE",
"713 0 LINE",
"661 -2 LINE",
"613 -4 LINE",
"580 -6 LINE",
"579 -6 LINE",
"571 -7 LINE",
"561 -5 LINE",
"554 -2 LINE",
"548 0 LINE",
"544 0 LINE",
"542 0 LINE",
"532 -4 LINE",
"530 -6 LINE",
"377 -6 LINE",
"375 -6 LINE",
"351 -6 LINE",
"316 -7 LINE",
"275 -7 LINE",
"236 -8 LINE",
"206 -8 LINE",
"200 -8 LINE",
"178 -8 LINE",
"156 36 LINE",
"147 93 LINE",
"146 150 LINE",
"145 162 LINE",
"139 264 LINE",
"116 472 LINE",
"116 575 LINE"
);
},
{
closed = 1;
nodes = (
"874 362 LINE",
"870 362 LINE",
"870 358 LINE",
"870 357 LINE",
"871 357 LINE",
"872 356 LINE",
"874 356 LINE",
"876 356 LINE",
"876 357 LINE",
"876 358 LINE",
"876 362 LINE"
);
}
);
width = 1222;
}
);
unicode = 0066;
},
{
glyphname = g;
lastChange = "2016-07-06 09:50:25 +0000";
layers = (
{
layerId = UUID0;
paths = (
{
closed = 1;
nodes = (
"1387 244 LINE",
"1387 202 LINE",
"1386 124 LINE",
"1383 58 LINE",
"1377 10 LINE",
"1371 -2 LINE",
"1356 -2 LINE",
"1319 -3 LINE",
"1302 -4 LINE",
"1283 -5 LINE",
"1262 -6 LINE",
"1258 -6 LINE",
"1244 -6 LINE",
"1240 -4 LINE",
"1237 -3 LINE",
"1238 -2 LINE",
"1235 -2 LINE",
"1233 -3 LINE",
"1228 -5 LINE",
"1228 -6 LINE",
"1051 -6 LINE",
"1050 -6 LINE",
"1034 -7 LINE",
"1013 -7 LINE",
"994 -8 LINE",
"990 -8 LINE",
"976 -8 LINE",
"960 73 LINE",
"957 139 LINE",
"948 93 LINE",
"889 23 LINE",
"801 -23 LINE",
"688 -47 LINE",
"625 -47 LINE",
"566 -47 LINE",
"440 -18 LINE",
"320 45 LINE",
"214 144 LINE",
"134 284 LINE",
"87 467 LINE",
"87 582 LINE",
"87 736 LINE",
"197 975 LINE",
"390 1138 LINE",
"653 1223 LINE",
"806 1223 LINE",
"917 1223 LINE",
"1154 1165 LINE",
"1273 1108 LINE",
"1205 807 LINE",
"1172 815 LINE",
"1101 835 LINE",
"1028 852 LINE",
"956 864 LINE",
"922 864 LINE",
"873 864 LINE",
"787 839 LINE",
"724 773 LINE",
"687 659 LINE",
"687 571 LINE",
"687 495 LINE",
"709 392 LINE",
"750 329 LINE",
"805 301 LINE",
"838 301 LINE",
"863 301 LINE",
"917 313 LINE",
"945 326 LINE",
"940 383 LINE",
"932 492 LINE",
"922 543 LINE",
"922 623 LINE",
"922 637 LINE",
"933 637 LINE",
"945 637 LINE",
"957 637 LINE",
"980 645 LINE",
"994 645 LINE",
"1014 645 LINE",
"1050 637 LINE",
"1070 637 LINE",
"1076 642 LINE",
"1105 645 LINE",
"1123 645 LINE",
"1148 645 LINE",
"1194 651 LINE",
"1205 651 LINE",
"1228 657 LINE",
"1258 656 LINE",
"1283 655 LINE",
"1303 654 LINE",
"1338 653 LINE",
"1338 651 LINE",
"1383 651 LINE",
"1391 647 LINE",
"1391 590 LINE",
"1392 582 LINE",
"1393 570 LINE",
"1393 549 LINE",
"1393 511 LINE",
"1393 477 LINE",
"1393 297 LINE",
"1393 296 LINE",
"1391 280 LINE",
"1389 261 LINE",
"1387 245 LINE"
);
}
);
width = 1487;
}
);
unicode = 0067;
},
{
glyphname = h;
lastChange = "2016-07-06 09:50:25 +0000";
layers = (
{
layerId = UUID0;
paths = (
{
closed = 1;
nodes = (
"1366 0 LINE",
"1287 0 LINE",
"1135 10 LINE",
"1056 8 LINE",
"1022 8 LINE",
"1005 8 LINE",
"987 17 LINE",
"978 38 LINE",
"974 72 LINE",
"973 98 LINE",
"952 436 LINE",
"947 435 LINE",
"915 435 LINE",
"877 437 LINE",
"844 440 LINE",
"839 442 LINE",
"755 442 LINE",
"744 442 LINE",
"741 420 LINE",
"741 412 LINE",
"741 401 LINE",
"741 72 LINE",
"741 46 LINE",
"741 19 LINE",
"736 7 LINE",
"724 4 LINE",
"712 0 LINE",
"638 -2 LINE",
"496 -6 LINE",
"424 -6 LINE",
"362 -6 LINE",
"229 -1 LINE",
"172 14 LINE",
"164 15 LINE",
"156 29 LINE",
"152 46 LINE",
"151 61 LINE",
"151 63 LINE",
"142 221 LINE",
"116 547 LINE",
"116 721 LINE",
"117 737 LINE",
"119 807 LINE",
"122 896 LINE",
"125 994 LINE",
"128 1083 LINE",
"130 1153 LINE",
"131 1169 LINE",
"131 1171 LINE",
"135 1176 LINE",
"137 1176 LINE",
"157 1176 LINE",
"189 1186 LINE",
"215 1184 LINE",
"252 1182 LINE",
"311 1182 LINE",
"365 1183 LINE",
"418 1184 LINE",
"450 1184 LINE",
"507 1184 LINE",
"622 1180 LINE",
"682 1180 LINE",
"703 1180 LINE",
"728 1173 LINE",
"740 1155 LINE",
"743 1123 LINE",
"743 1098 LINE",
"743 1092 LINE",
"744 1066 LINE",
"744 1037 LINE",
"745 1011 LINE",
"745 1004 LINE",
"745 996 LINE",
"747 978 LINE",
"747 969 LINE",
"747 934 LINE",
"743 876 LINE",
"743 848 LINE",
"743 825 LINE",
"753 808 LINE",
"772 806 LINE",
"802 813 LINE",
"823 813 LINE",
"825 813 LINE",
"861 812 LINE",
"903 812 LINE",
"937 815 LINE",
"938 819 LINE",
"938 903 LINE",
"938 913 LINE",
"939 955 LINE",
"940 1010 LINE",
"942 1069 LINE",
"943 1124 LINE",
"944 1166 LINE",
"944 1176 LINE",
"946 1176 LINE",
"955 1175 LINE",
"964 1175 LINE",
"972 1179 LINE",
"973 1184 LINE",
"1071 1184 LINE",
"1117 1184 LINE",
"1204 1176 LINE",
"1249 1176 LINE",
"1266 1176 LINE",
"1339 1178 LINE",
"1419 1181 LINE",
"1491 1184 LINE",
"1507 1184 LINE",
"1544 1184 LINE",
"1577 1169 LINE",
"1577 1135 LINE",
"1577 973 LINE",
"1577 943 LINE",
"1573 871 LINE",
"1569 797 LINE",
"1566 723 LINE",
"1568 692 LINE",
"1548 43 LINE",
"1548 38 LINE",
"1541 23 LINE",
"1530 9 LINE",
"1516 0 LINE",
"1509 0 LINE"
);
}
);
width = 1693;
}
);
unicode = 0068;
},
{
glyphname = hbar;
lastChange = "2016-07-06 09:50:25 +0000";
layers = (
{
layerId = UUID0;
paths = (
{
closed = 1;
nodes = (
"1366 0 LINE",
"1287 0 LINE",
"1135 10 LINE",
"1056 8 LINE",
"1022 8 LINE",
"1005 8 LINE",
"987 17 LINE",
"978 38 LINE",
"974 72 LINE",
"973 98 LINE",
"952 436 LINE",
"947 435 LINE",
"915 435 LINE",
"877 437 LINE",
"844 440 LINE",
"839 442 LINE",
"755 442 LINE",
"744 442 LINE",
"741 420 LINE",
"741 412 LINE",
"741 32 LINE",
"741 19 LINE",
"736 7 LINE",
"724 4 LINE",
"712 0 LINE",
"638 -2 LINE",
"496 -6 LINE",
"424 -6 LINE",
"362 -6 LINE",
"229 -1 LINE",
"172 14 LINE",
"164 15 LINE",
"156 29 LINE",
"152 46 LINE",
"151 61 LINE",
"151 63 LINE",
"142 221 LINE",
"116 547 LINE",
"116 721 LINE",
"117 737 LINE",
"119 807 LINE",
"120 851 LINE",
"121 878 LINE",
"122 906 LINE",
"105 907 LINE",
"89 907 LINE",
"44 909 LINE",
"-12 917 LINE",
"-12 925 LINE",
"-12 942 LINE",
"-13 965 LINE",
"-13 988 LINE",
"-16 1013 LINE",
"-16 1028 LINE",
"-16 1031 LINE",
"2 1038 LINE",
"32 1043 LINE",
"64 1046 LINE",
"80 1046 LINE",
"127 1046 LINE",
"128 1086 LINE",
"129 1118 LINE",
"130 1153 LINE",
"131 1169 LINE",
"131 1171 LINE",
"135 1176 LINE",
"137 1176 LINE",
"157 1176 LINE",
"189 1186 LINE",
"215 1184 LINE",
"252 1182 LINE",
"311 1182 LINE",
"365 1183 LINE",
"418 1184 LINE",
"450 1184 LINE",
"507 1184 LINE",
"622 1180 LINE",
"682 1180 LINE",
"703 1180 LINE",
"728 1173 LINE",
"740 1155 LINE",
"743 1123 LINE",
"743 1098 LINE",
"743 1092 LINE",
"744 1066 LINE",
"744 1051 LINE",
"744 1045 LINE",
"770 1045 LINE",
"800 1045 LINE",
"867 1044 LINE",
"941 1044 LINE",
"942 1071 LINE",
"942 1096 LINE",
"943 1124 LINE",
"944 1166 LINE",
"944 1176 LINE",
"946 1176 LINE",
"955 1175 LINE",
"964 1175 LINE",
"972 1179 LINE",
"973 1184 LINE",
"1071 1184 LINE",
"1117 1184 LINE",
"1204 1176 LINE",
"1249 1176 LINE",
"1266 1176 LINE",
"1339 1178 LINE",
"1419 1181 LINE",
"1491 1184 LINE",
"1507 1184 LINE",
"1544 1184 LINE",
"1577 1169 LINE",
"1577 1135 LINE",
"1577 1041 LINE",
"1602 1040 LINE",
"1625 1039 LINE",
"1658 1038 LINE",
"1703 1029 LINE",
"1703 1023 LINE",
"1703 1011 LINE",
"1704 998 LINE",
"1706 988 LINE",
"1707 984 LINE",
"1709 974 LINE",
"1711 968 LINE",
"1712 955 LINE",
"1712 945 LINE",
"1712 937 LINE",
"1708 924 LINE",
"1688 911 LINE",
"1648 902 LINE",
"1613 902 LINE",
"1574 902 LINE",
"1573 868 LINE",
"1571 834 LINE",
"1569 797 LINE",
"1566 723 LINE",
"1568 692 LINE",
"1548 43 LINE",
"1548 38 LINE",
"1541 23 LINE",
"1530 9 LINE",
"1516 0 LINE",
"1509 0 LINE"
);
},
{
closed = 1;
nodes = (
"840 906 LINE",
"745 906 LINE",
"745 905 LINE",
"743 876 LINE",
"743 848 LINE",
"743 825 LINE",
"753 808 LINE",
"772 806 LINE",
"802 813 LINE",
"823 813 LINE",
"825 813 LINE",
"861 812 LINE",
"903 812 LINE",
"937 815 LINE",
"938 819 LINE",
"938 903 LINE",
"938 905 LINE",
"886 906 LINE"
);
}
);
width = 1693;
}
);
unicode = 0127;
},
{
glyphname = i;
lastChange = "2016-07-06 09:50:25 +0000";
layers = (
{
layerId = UUID0;
paths = (
{
closed = 1;
nodes = (
"711 205 LINE",
"707 158 LINE",
"708 82 LINE",
"702 28 LINE",
"680 -2 LINE",
"654 -2 LINE",
"652 -2 LINE",
"648 2 LINE",
"646 2 LINE",
"643 2 LINE",
"633 0 LINE",
"628 -1 LINE",
"623 -3 LINE",
"617 -4 LINE",
"599 -5 LINE",
"578 -3 LINE",
"562 0 LINE",
"550 2 LINE",
"541 2 LINE",
"539 2 LINE",
"529 -2 LINE",
"527 -4 LINE",
"373 -4 LINE",
"370 -4 LINE",
"321 -11 LINE",
"261 -20 LINE",
"206 -27 LINE",
"197 -27 LINE",
"175 -27 LINE",
"153 17 LINE",
"144 75 LINE",
"143 131 LINE",
"142 143 LINE",
"136 273 LINE",
"113 545 LINE",
"113 676 LINE",
"113 1173 LINE",
"113 1184 LINE",
"135 1196 LINE",
"165 1201 LINE",
"197 1202 LINE",
"207 1202 LINE",
"255 1202 LINE",
"347 1194 LINE",
"400 1194 LINE",
"408 1200 LINE",
"498 1200 LINE",
"500 1198 LINE",
"511 1194 LINE",
"513 1194 LINE",
"514 1194 LINE",
"525 1196 LINE",
"537 1198 LINE",
"546 1200 LINE",
"547 1200 LINE",
"552 1200 LINE",
"573 1195 LINE",
"576 1194 LINE",
"728 1194 LINE",
"732 842 LINE",
"730 836 LINE",
"719 760 LINE",
"719 682 LINE",
"719 283 LINE"
);
}
);
width = 842;
}
);
unicode = 0069;
},
{
glyphname = dotlessi;
lastChange = "2016-07-06 09:50:25 +0000";
layers = (
{
layerId = UUID0;
paths = (
{
closed = 1;
nodes = (
"711 205 LINE",
"707 158 LINE",
"708 82 LINE",
"702 28 LINE",
"680 -2 LINE",
"654 -2 LINE",
"652 -2 LINE",
"648 2 LINE",
"646 2 LINE",
"643 2 LINE",
"633 0 LINE",
"628 -1 LINE",
"623 -3 LINE",
"617 -4 LINE",
"599 -5 LINE",
"578 -3 LINE",
"562 0 LINE",
"550 2 LINE",
"541 2 LINE",
"539 2 LINE",
"529 -2 LINE",
"527 -4 LINE",
"373 -4 LINE",
"370 -4 LINE",
"321 -11 LINE",
"261 -20 LINE",
"206 -27 LINE",
"197 -27 LINE",
"175 -27 LINE",
"153 17 LINE",
"144 75 LINE",
"143 131 LINE",
"142 143 LINE",
"136 273 LINE",
"113 545 LINE",
"113 676 LINE",
"113 1116 LINE",
"113 1127 LINE",
"135 1139 LINE",
"165 1144 LINE",
"197 1145 LINE",
"207 1145 LINE",
"255 1145 LINE",
"347 1137 LINE",
"400 1137 LINE",
"408 1143 LINE",
"498 1143 LINE",
"500 1141 LINE",
"511 1137 LINE",
"513 1137 LINE",
"514 1137 LINE",
"525 1139 LINE",
"537 1141 LINE",
"546 1143 LINE",
"547 1143 LINE",
"552 1143 LINE",
"573 1139 LINE",
"576 1137 LINE",
"728 1137 LINE",
"732 842 LINE",
"730 836 LINE",
"719 760 LINE",
"719 682 LINE",
"719 283 LINE"
);
}
);
width = 843;
}
);
unicode = 0131;
},
{
glyphname = j;
lastChange = "2016-07-06 09:50:25 +0000";
layers = (
{
layerId = UUID0;
paths = (
{
closed = 1;
nodes = (
"828 54 LINE",
"774 4 LINE",
"649 -58 LINE",
"596 -75 LINE",
"534 -95 LINE",
"473 -104 LINE",
"381 -113 LINE",
"204 -98 LINE",
"119 -69 LINE",
"41 -34 LINE",
"39 -28 LINE",
"41 -2 LINE",
"45 32 LINE",
"50 71 LINE",
"52 89 LINE",
"52 99 LINE",
"55 134 LINE",
"58 166 LINE",
"62 188 LINE",
"64 185 LINE",
"89 176 LINE",
"128 163 LINE",
"164 155 LINE",
"202 151 LINE",
"226 152 LINE",
"246 152 LINE",
"272 183 LINE",
"289 224 LINE",
"299 267 LINE",
"303 279 LINE",
"303 308 LINE",
"308 403 LINE",
"308 474 LINE",
"309 543 LINE",
"310 665 LINE",
"311 712 LINE",
"312 767 LINE",
"312 814 LINE",
"310 1178 LINE",
"312 1183 LINE",
"315 1187 LINE",
"317 1191 LINE",
"322 1197 LINE",
"324 1197 LINE",
"329 1197 LINE",
"334 1195 LINE",
"340 1195 LINE",
"362 1195 LINE",
"406 1205 LINE",
"432 1205 LINE",
"470 1205 LINE",
"542 1197 LINE",
"584 1197 LINE",
"589 1202 LINE",
"613 1206 LINE",
"640 1206 LINE",
"668 1205 LINE",
"678 1205 LINE",
"680 1203 LINE",
"689 1197 LINE",
"693 1197 LINE",
"694 1197 LINE",
"704 1199 LINE",
"715 1202 LINE",
"724 1205 LINE",
"725 1205 LINE",
"730 1205 LINE",
"750 1200 LINE",
"752 1197 LINE",
"838 1197 LINE",
"838 1196 LINE",
"845 1194 LINE",
"848 1193 LINE",
"852 1193 LINE",
"867 1197 LINE",
"891 1197 LINE",
"922 1155 LINE",
"941 1087 LINE",
"949 999 LINE",
"949 953 LINE",
"949 638 LINE",
"949 637 LINE",
"947 583 LINE",
"944 517 LINE",
"942 461 LINE",
"942 458 LINE",
"942 407 LINE",
"937 296 LINE",
"914 189 LINE",
"868 91 LINE"
);
}
);
width = 1050;
}
);
unicode = 006A;
},
{
glyphname = k;
lastChange = "2016-07-06 09:50:25 +0000";
layers = (
{
layerId = UUID0;
paths = (
{
closed = 1;
nodes = (
"738 1184 LINE",
"742 1184 LINE",
"749 1168 LINE",
"753 1144 LINE",
"755 1116 LINE",
"755 1104 LINE",
"757 1036 LINE",
"746 910 LINE",
"746 862 LINE",
"761 862 LINE",
"778 867 LINE",
"791 876 LINE",
"803 890 LINE",
"814 899 LINE",
"819 903 LINE",
"873 954 LINE",
"948 1025 LINE",
"1035 1106 LINE",
"1114 1176 LINE",
"1175 1223 LINE",
"1187 1225 LINE",
"1191 1225 LINE",
"1204 1212 LINE",
"1218 1195 LINE",
"1231 1180 LINE",
"1234 1178 LINE",
"1252 1147 LINE",
"1301 1096 LINE",
"1351 1044 LINE",
"1397 988 LINE",
"1412 952 LINE",
"1412 948 LINE",
"1412 931 LINE",
"1383 890 LINE",
"1344 850 LINE",
"1305 815 LINE",
"1295 803 LINE",
"1291 801 LINE",
"1266 780 LINE",
"1231 750 LINE",
"1191 715 LINE",
"1156 685 LINE",
"1130 664 LINE",
"1127 662 LINE",
"1119 655 LINE",
"1104 649 LINE",
"1094 643 LINE",
"1088 633 LINE",
"1088 623 LINE",
"1088 607 LINE",
"1104 581 LINE",
"1127 558 LINE",
"1153 538 LINE",
"1164 528 LINE",
"1177 515 LINE",
"1230 467 LINE",
"1296 408 LINE",
"1365 344 LINE",
"1422 285 LINE",
"1459 235 LINE",
"1459 221 LINE",
"1459 212 LINE",
"1456 198 LINE",
"1445 188 LINE",
"1416 162 LINE",
"1355 123 LINE",
"1326 98 LINE",
"1303 80 LINE",
"1241 32 LINE",
"1213 18 LINE",
"1208 16 LINE",
"1176 1 LINE",
"1140 -16 LINE",
"1110 -30 LINE",
"1107 -31 LINE",
"1067 -50 LINE",
"1052 -35 LINE",
"1011 6 LINE",
"1008 11 LINE",
"1004 15 LINE",
"1000 18 LINE",
"994 22 LINE",
"990 27 LINE",
"828 209 LINE",
"824 215 LINE",
"801 243 LINE",
"775 271 LINE",
"751 293 LINE",
"746 293 LINE",
"738 293 LINE",
"732 284 LINE",
"732 279 LINE",
"732 266 LINE",
"730 203 LINE",
"728 134 LINE",
"726 73 LINE",
"726 61 LINE",
"724 56 LINE",
"725 37 LINE",
"725 18 LINE",
"722 1 LINE",
"718 0 LINE",
"718 -1 LINE",
"708 -1 LINE",
"696 -1 LINE",
"686 0 LINE",
"685 0 LINE",
"594 -6 LINE",
"421 -4 LINE",
"329 -4 LINE",
"317 -4 LINE",
"280 -5 LINE",
"245 -5 LINE",
"219 -6 LINE",
"218 -6 LINE",
"140 12 LINE",
"134 27 LINE",
"133 27 LINE",
"132 66 LINE",
"130 129 LINE",
"128 207 LINE",
"126 286 LINE",
"124 359 LINE",
"124 385 LINE",
"122 540 LINE",
"118 858 LINE",
"118 1022 LINE",
"118 1027 LINE",
"117 1054 LINE",
"115 1084 LINE",
"114 1111 LINE",
"114 1116 LINE",
"114 1117 LINE",
"114 1130 LINE",
"114 1145 LINE",
"115 1158 LINE",
"116 1159 LINE",
"123 1177 LINE",
"148 1190 LINE",
"179 1191 LINE",
"214 1186 LINE",
"230 1186 LINE",
"454 1186 LINE",
"703 1184 LINE"
);
}
);
width = 1538;
}
);
unicode = 006B;
},
{
glyphname = l;
lastChange = "2016-07-06 09:50:25 +0000";
layers = (
{
layerId = UUID0;
paths = (
{
closed = 1;
nodes = (
"123 518 LINE",
"127 639 LINE",
"131 867 LINE",
"145 1049 LINE",
"175 1171 LINE",
"207 1188 LINE",
"286 1188 LINE",
"397 1186 LINE",
"490 1184 LINE",
"577 1182 LINE",
"633 1182 LINE",
"660 1180 LINE",
"699 1177 LINE",
"725 1161 LINE",
"736 1125 LINE",
"735 1090 LINE",
"735 1087 LINE",
"732 1062 LINE",
"729 1033 LINE",
"724 1009 LINE",
"723 1006 LINE",
"723 1001 LINE",
"725 973 LINE",
"727 942 LINE",
"729 916 LINE",
"729 913 LINE",
"730 896 LINE",
"730 835 LINE",
"732 770 LINE",
"736 715 LINE",
"741 705 LINE",
"741 675 LINE",
"737 604 LINE",
"736 531 LINE",
"741 460 LINE",
"749 430 LINE",
"765 424 LINE",
"782 422 LINE",
"796 422 LINE",
"862 422 LINE",
"1001 424 LINE",
"1067 436 LINE",
"1079 433 LINE",
"1102 406 LINE",
"1102 393 LINE",
"1087 43 LINE",
"1086 33 LINE",
"1054 18 LINE",
"1004 8 LINE",
"944 0 LINE",
"888 -4 LINE",
"842 -6 LINE",
"831 -6 LINE",
"800 -6 LINE",
"740 -12 LINE",
"712 -12 LINE",
"709 -12 LINE",
"693 -11 LINE",
"676 -9 LINE",
"660 -7 LINE",
"657 -6 LINE",
"647 -6 LINE",
"603 -3 LINE",
"547 0 LINE",
"487 3 LINE",
"435 6 LINE",
"397 8 LINE",
"393 8 LINE",
"345 10 LINE",
"252 2 LINE",
"202 2 LINE",
"181 2 LINE",
"143 2 LINE",
"125 0 LINE",
"116 8 LINE",
"117 9 LINE",
"117 53 LINE",
"117 109 LINE",
"117 160 LINE",
"118 168 LINE",
"119 197 LINE",
"118 273 LINE",
"116 347 LINE",
"114 412 LINE",
"114 430 LINE"
);
}
);
width = 1157;
}
);
unicode = 006C;
},
{
glyphname = lslash;
lastChange = "2016-07-06 09:50:25 +0000";
layers = (
{
layerId = UUID0;
paths = (
{
closed = 1;
nodes = (
"239 1188 LINE",
"327 1188 LINE",
"453 1186 LINE",
"556 1184 LINE",
"654 1182 LINE",
"715 1182 LINE",
"739 1180 LINE",
"775 1177 LINE",
"798 1161 LINE",
"808 1125 LINE",
"807 1090 LINE",
"807 1087 LINE",
"807 1066 LINE",
"806 1040 LINE",
"806 1015 LINE",
"806 1009 LINE",
"837 1015 LINE",
"895 1026 LINE",
"928 1034 LINE",
"948 1039 LINE",
"992 1048 LINE",
"1029 1046 LINE",
"1053 1030 LINE",
"1053 1011 LINE",
"1053 966 LINE",
"1051 904 LINE",
"1049 851 LINE",
"1047 801 LINE",
"1047 769 LINE",
"1047 742 LINE",
"1042 699 LINE",
"1022 666 LINE",
"979 640 LINE",
"942 631 LINE",
"934 628 LINE",
"928 624 LINE",
"922 621 LINE",
"911 616 LINE",
"909 615 LINE",
"819 592 LINE",
"819 546 LINE",
"819 457 LINE",
"821 420 LINE",
"840 422 LINE",
"861 422 LINE",
"878 422 LINE",
"944 422 LINE",
"1083 424 LINE",
"1149 436 LINE",
"1161 433 LINE",
"1184 406 LINE",
"1184 393 LINE",
"1169 43 LINE",
"1168 33 LINE",
"1136 18 LINE",
"1086 8 LINE",
"1026 0 LINE",
"970 -4 LINE",
"924 -6 LINE",
"913 -6 LINE",
"794 -6 LINE",
"791 -6 LINE",
"775 -6 LINE",
"758 -6 LINE",
"742 -6 LINE",
"739 -6 LINE",
"729 -6 LINE",
"685 -3 LINE",
"629 0 LINE",
"569 3 LINE",
"517 6 LINE",
"479 8 LINE",
"475 8 LINE",
"427 10 LINE",
"334 2 LINE",
"284 2 LINE",
"263 2 LINE",
"225 2 LINE",
"207 0 LINE",
"198 8 LINE",
"199 9 LINE",
"199 53 LINE",
"199 109 LINE",
"199 160 LINE",
"200 168 LINE",
"201 188 LINE",
"201 241 LINE",
"199 293 LINE",
"198 338 LINE",
"198 350 LINE",
"197 445 LINE",
"176 440 LINE",
"138 435 LINE",
"109 441 LINE",
"93 460 LINE",
"93 479 LINE",
"93 525 LINE",
"92 596 LINE",
"91 663 LINE",
"90 734 LINE",
"90 779 LINE",
"90 788 LINE",
"100 809 LINE",
"116 829 LINE",
"135 844 LINE",
"144 846 LINE",
"162 851 LINE",
"198 861 LINE",
"215 866 LINE",
"216 929 LINE",
"219 1037 LINE",
"224 1121 LINE",
"233 1177 LINE"
);
}
);
width = 1263;
}
);
unicode = 0142;
},
{
glyphname = m;
lastChange = "2016-07-06 09:50:25 +0000";
layers = (
{
layerId = UUID0;
paths = (
{
closed = 1;
nodes = (
"932 764 LINE",
"933 767 LINE",
"955 815 LINE",
"987 885 LINE",
"1024 966 LINE",
"1057 1038 LINE",
"1081 1093 LINE",
"1085 1102 LINE",
"1091 1115 LINE",
"1109 1144 LINE",
"1126 1168 LINE",
"1142 1184 LINE",
"1147 1184 LINE",
"1178 1184 LINE",
"1390 1186 LINE",
"1583 1186 LINE",
"1599 1186 LINE",
"1617 1185 LINE",
"1636 1185 LINE",
"1663 1184 LINE",
"1687 1184 LINE",
"1691 1184 LINE",
"1697 1130 LINE",
"1701 1043 LINE",
"1703 930 LINE",
"1704 811 LINE",
"1704 697 LINE",
"1704 651 LINE",
"1704 586 LINE",
"1696 452 LINE",
"1689 387 LINE",
"1689 361 LINE",
"1691 288 LINE",
"1692 210 LINE",
"1694 132 LINE",
"1696 70 LINE",
"1697 31 LINE",
"1698 31 LINE",
"1691 16 LINE",
"1611 -2 LINE",
"1610 -2 LINE",
"1585 -3 LINE",
"1551 -3 LINE",
"1515 -4 LINE",
"1503 -4 LINE",
"1431 -4 LINE",
"1307 4 LINE",
"1235 10 LINE",
"1233 10 LINE",
"1221 8 LINE",
"1216 8 LINE",
"1207 8 LINE",
"1197 87 LINE",
"1191 209 LINE",
"1190 355 LINE",
"1190 422 LINE",
"1190 428 LINE",
"1181 436 LINE",
"1175 436 LINE",
"1171 436 LINE",
"1155 401 LINE",
"1136 353 LINE",
"1118 302 LINE",
"1112 285 LINE",
"1108 279 LINE",
"1082 220 LINE",
"1041 152 LINE",
"989 98 LINE",
"960 98 LINE",
"950 98 LINE",
"917 98 LINE",
"878 99 LINE",
"838 100 LINE",
"823 102 LINE",
"774 180 LINE",
"711 304 LINE",
"674 390 LINE",
"655 436 LINE",
"651 436 LINE",
"637 436 LINE",
"637 422 LINE",
"637 384 LINE",
"637 293 LINE",
"636 201 LINE",
"634 115 LINE",
"628 48 LINE",
"618 8 LINE",
"610 8 LINE",
"605 8 LINE",
"594 10 LINE",
"592 10 LINE",
"520 4 LINE",
"395 -4 LINE",
"323 -4 LINE",
"312 -4 LINE",
"275 -3 LINE",
"240 -3 LINE",
"214 -2 LINE",
"213 -2 LINE",
"135 16 LINE",
"129 31 LINE",
"128 31 LINE",
"126 70 LINE",
"124 132 LINE",
"122 210 LINE",
"120 288 LINE",
"119 361 LINE",
"118 387 LINE",
"120 480 LINE",
"127 655 LINE",
"127 752 LINE",
"127 756 LINE",
"126 777 LINE",
"124 799 LINE",
"123 819 LINE",
"123 821 LINE",
"123 847 LINE",
"125 890 LINE",
"128 935 LINE",
"131 987 LINE",
"131 1022 LINE",
"131 1027 LINE",
"130 1055 LINE",
"128 1085 LINE",
"127 1113 LINE",
"127 1118 LINE",
"123 1122 LINE",
"123 1130 LINE",
"123 1149 LINE",
"152 1172 LINE",
"191 1183 LINE",
"232 1186 LINE",
"243 1186 LINE",
"436 1186 LINE",
"649 1184 LINE",
"680 1184 LINE",
"684 1184 LINE",
"700 1168 LINE",
"717 1144 LINE",
"734 1115 LINE",
"741 1102 LINE",
"744 1093 LINE",
"765 1038 LINE",
"794 964 LINE",
"826 883 LINE",
"854 814 LINE",
"874 766 LINE",
"876 764 LINE",
"890 737 LINE",
"903 737 LINE",
"912 737 LINE",
"927 755 LINE"
);
}
);
width = 1822;
}
);
unicode = 006D;
},
{
glyphname = n;
lastChange = "2016-07-06 09:50:25 +0000";
layers = (
{
layerId = UUID0;
paths = (
{
closed = 1;
nodes = (
"1437 393 LINE",
"1437 294 LINE",
"1436 159 LINE",
"1433 70 LINE",
"1425 22 LINE",
"1411 0 LINE",
"1390 -4 LINE",
"1374 -4 LINE",
"1319 -4 LINE",
"1264 -3 LINE",
"1216 -3 LINE",
"1103 -2 LINE",
"1052 -2 LINE",
"1041 -2 LINE",
"1011 -4 LINE",
"976 -1 LINE",
"939 13 LINE",
"923 29 LINE",
"743 281 LINE",
"740 287 LINE",
"717 315 LINE",
"690 343 LINE",
"666 365 LINE",
"661 365 LINE",
"655 365 LINE",
"647 355 LINE",
"647 350 LINE",
"647 338 LINE",
"646 292 LINE",
"646 235 LINE",
"644 172 LINE",
"644 116 LINE",
"643 73 LINE",
"643 63 LINE",
"641 59 LINE",
"639 43 LINE",
"636 25 LINE",
"632 10 LINE",
"628 8 LINE",
"626 6 LINE",
"604 8 LINE",
"602 8 LINE",
"533 3 LINE",
"405 -6 LINE",
"334 -6 LINE",
"323 -6 LINE",
"287 -5 LINE",
"252 -5 LINE",
"226 -4 LINE",
"225 -4 LINE",
"145 16 LINE",
"141 29 LINE",
"140 29 LINE",
"138 68 LINE",
"136 130 LINE",
"134 208 LINE",
"133 286 LINE",
"131 359 LINE",
"131 385 LINE",
"125 450 LINE",
"116 584 LINE",
"116 649 LINE",
"116 653 LINE",
"118 682 LINE",
"119 716 LINE",
"121 746 LINE",
"121 750 LINE",
"121 753 LINE",
"119 773 LINE",
"118 796 LINE",
"116 816 LINE",
"116 819 LINE",
"116 823 LINE",
"118 854 LINE",
"119 890 LINE",
"121 922 LINE",
"121 926 LINE",
"121 927 LINE",
"122 950 LINE",
"124 980 LINE",
"125 1011 LINE",
"125 1020 LINE",
"125 1024 LINE",
"124 1051 LINE",
"122 1081 LINE",
"121 1109 LINE",
"121 1114 LINE",
"121 1116 LINE",
"114 1126 LINE",
"116 1128 LINE",
"123 1147 LINE",
"151 1169 LINE",
"184 1181 LINE",
"221 1184 LINE",
"237 1184 LINE",
"329 1184 LINE",
"465 1192 LINE",
"558 1198 LINE",
"611 1194 LINE",
"620 1182 LINE",
"625 1175 LINE",
"657 1128 LINE",
"704 1060 LINE",
"761 974 LINE",
"821 884 LINE",
"881 795 LINE",
"907 756 LINE",
"907 787 LINE",
"909 867 LINE",
"910 951 LINE",
"912 1032 LINE",
"914 1096 LINE",
"917 1136 LINE",
"919 1137 LINE",
"922 1140 LINE",
"937 1155 LINE",
"958 1169 LINE",
"984 1179 LINE",
"999 1178 LINE",
"1100 1178 LINE",
"1102 1178 LINE",
"1142 1177 LINE",
"1200 1175 LINE",
"1265 1174 LINE",
"1322 1172 LINE",
"1360 1171 LINE",
"1362 1171 LINE",
"1383 1171 LINE",
"1413 1166 LINE",
"1434 1151 LINE",
"1444 1122 LINE",
"1444 1098 LINE",
"1444 1092 LINE",
"1442 1066 LINE",
"1439 1037 LINE",
"1437 1010 LINE",
"1437 1004 LINE",
"1437 997 LINE",
"1442 980 LINE",
"1442 971 LINE",
"1442 959 LINE",
"1441 871 LINE",
"1440 751 LINE",
"1439 614 LINE",
"1438 494 LINE",
"1437 405 LINE"
);
}
);
width = 1560;
}
);
unicode = 006E;
},
{
glyphname = eng;
lastChange = "2016-07-06 09:50:25 +0000";
layers = (
{
layerId = UUID0;
paths = (
{
closed = 1;
nodes = (
"1339 -328 LINE",
"1294 -370 LINE",
"1193 -420 LINE",
"1149 -434 LINE",
"1098 -451 LINE",
"1047 -458 LINE",
"972 -466 LINE",
"827 -453 LINE",
"757 -429 LINE",
"693 -401 LINE",
"692 -396 LINE",
"693 -374 LINE",
"696 -346 LINE",
"700 -315 LINE",
"702 -300 LINE",
"702 -291 LINE",
"704 -263 LINE",
"707 -236 LINE",
"711 -218 LINE",
"712 -221 LINE",
"733 -229 LINE",
"764 -239 LINE",
"794 -246 LINE",
"825 -249 LINE",
"845 -248 LINE",
"861 -248 LINE",
"883 -223 LINE",
"897 -189 LINE",
"905 -154 LINE",
"908 -144 LINE",
"908 -120 LINE",
"912 -35 LINE",
"912 43 LINE",
"743 281 LINE",
"740 287 LINE",
"717 315 LINE",
"690 343 LINE",
"666 365 LINE",
"661 365 LINE",
"655 365 LINE",
"647 355 LINE",
"647 350 LINE",
"647 338 LINE",
"646 292 LINE",
"646 235 LINE",
"644 172 LINE",
"644 116 LINE",
"643 73 LINE",
"643 63 LINE",
"641 59 LINE",
"639 43 LINE",
"636 25 LINE",
"632 10 LINE",
"628 8 LINE",
"626 6 LINE",
"604 8 LINE",
"602 8 LINE",
"533 3 LINE",
"405 -6 LINE",
"334 -6 LINE",
"323 -6 LINE",
"287 -5 LINE",
"252 -5 LINE",
"226 -4 LINE",
"225 -4 LINE",
"145 16 LINE",
"141 29 LINE",
"140 29 LINE",
"138 68 LINE",
"136 130 LINE",
"134 208 LINE",
"133 286 LINE",
"131 359 LINE",
"131 385 LINE",
"125 450 LINE",
"116 584 LINE",
"116 649 LINE",
"116 653 LINE",
"118 682 LINE",
"119 716 LINE",
"121 746 LINE",
"121 750 LINE",
"121 753 LINE",
"119 773 LINE",
"118 796 LINE",
"116 816 LINE",
"116 819 LINE",
"116 823 LINE",
"118 854 LINE",
"119 890 LINE",
"121 922 LINE",
"121 926 LINE",
"121 927 LINE",
"122 950 LINE",
"124 980 LINE",
"125 1011 LINE",
"125 1020 LINE",
"125 1024 LINE",
"124 1051 LINE",
"122 1081 LINE",
"121 1109 LINE",
"121 1114 LINE",
"121 1116 LINE",
"114 1126 LINE",
"116 1128 LINE",
"123 1147 LINE",
"151 1169 LINE",
"184 1181 LINE",
"221 1184 LINE",
"237 1184 LINE",
"329 1184 LINE",
"465 1192 LINE",
"558 1198 LINE",
"611 1194 LINE",
"620 1182 LINE",
"625 1175 LINE",
"657 1128 LINE",
"704 1060 LINE",
"761 974 LINE",
"821 884 LINE",
"881 795 LINE",
"907 756 LINE",
"907 787 LINE",
"909 867 LINE",
"910 951 LINE",
"912 1032 LINE",
"914 1096 LINE",
"917 1136 LINE",
"919 1137 LINE",
"922 1140 LINE",
"937 1155 LINE",
"958 1169 LINE",
"984 1179 LINE",
"999 1178 LINE",
"1100 1178 LINE",
"1102 1178 LINE",
"1142 1177 LINE",
"1200 1175 LINE",
"1265 1174 LINE",
"1322 1172 LINE",
"1360 1171 LINE",
"1362 1171 LINE",
"1383 1171 LINE",
"1413 1166 LINE",
"1434 1151 LINE",
"1444 1122 LINE",
"1444 1098 LINE",
"1444 1092 LINE",
"1442 1066 LINE",
"1439 1037 LINE",
"1437 1010 LINE",
"1437 1004 LINE",
"1437 997 LINE",
"1442 980 LINE",
"1442 971 LINE",
"1442 961 LINE",
"1441 895 LINE",
"1440 802 LINE",
"1439 691 LINE",
"1438 582 LINE",
"1437 483 LINE",
"1437 448 LINE",
"1437 438 LINE",
"1438 419 LINE",
"1438 409 LINE",
"1438 151 LINE",
"1438 150 LINE",
"1436 106 LINE",
"1434 52 LINE",
"1432 6 LINE",
"1432 3 LINE",
"1432 -39 LINE",
"1428 -129 LINE",
"1409 -217 LINE",
"1372 -297 LINE"
);
}
);
width = 1560;
}
);
unicode = 014B;
},
{
glyphname = o;
lastChange = "2016-07-06 09:50:25 +0000";
layers = (
{
layerId = UUID0;
paths = (
{
closed = 1;
nodes = (
"635 -43 LINE",
"588 -43 LINE",
"492 -24 LINE",
"442 -8 LINE",
"428 -8 LINE",
"419 -8 LINE",
"406 -5 LINE",
"387 6 LINE",
"357 25 LINE",
"330 41 LINE",
"264 78 LINE",
"173 204 LINE",
"116 349 LINE",
"90 499 LINE",
"90 561 LINE",
"90 639 LINE",
"124 798 LINE",
"188 945 LINE",
"282 1074 LINE",
"402 1170 LINE",
"546 1225 LINE",
"629 1225 LINE",
"647 1225 LINE",
"684 1224 LINE",
"702 1221 LINE",
"705 1223 LINE",
"714 1223 LINE",
"717 1223 LINE",
"798 1223 LINE",
"922 1219 LINE",
"1023 1205 LINE",
"1109 1178 LINE",
"1151 1155 LINE",
"1232 1101 LINE",
"1348 984 LINE",
"1424 845 LINE",
"1460 680 LINE",
"1460 580 LINE",
"1460 484 LINE",
"1414 299 LINE",
"1368 215 LINE",
"1365 209 LINE",
"1354 190 LINE",
"1343 173 LINE",
"1334 160 LINE",
"1333 160 LINE",
"1319 152 LINE",
"1269 77 LINE",
"1129 -6 LINE",
"970 -44 LINE",
"801 -51 LINE",
"723 -51 LINE",
"700 -51 LINE",
"658 -43 LINE"
);
},
{
closed = 1;
nodes = (
"688 475 LINE",
"688 470 LINE",
"690 429 LINE",
"693 371 LINE",
"697 305 LINE",
"701 246 LINE",
"706 202 LINE",
"708 195 LINE",
"731 117 LINE",
"733 109 LINE",
"752 102 LINE",
"760 102 LINE",
"776 102 LINE",
"802 146 LINE",
"822 220 LINE",
"836 316 LINE",
"846 419 LINE",
"853 521 LINE",
"857 609 LINE",
"858 674 LINE",
"858 688 LINE",
"858 684 LINE",
"858 725 LINE",
"855 792 LINE",
"848 871 LINE",
"835 940 LINE",
"814 987 LINE",
"799 987 LINE",
"780 987 LINE",
"740 924 LINE",
"731 846 LINE",
"688 516 LINE"
);
}
);
width = 1549;
}
);
unicode = 006F;
},
{
glyphname = oslash;
lastChange = "2016-07-06 09:50:25 +0000";
layers = (
{
layerId = UUID0;
paths = (
{
closed = 1;
nodes = (
"761 -43 LINE",
"714 -43 LINE",
"618 -24 LINE",
"568 -8 LINE",
"554 -8 LINE",
"545 -8 LINE",
"532 -5 LINE",
"513 6 LINE",
"483 25 LINE",
"456 41 LINE",
"404 71 LINE",
"363 118 LINE",
"313 85 LINE",
"236 42 LINE",
"211 38 LINE",
"193 47 LINE",
"171 61 LINE",
"162 67 LINE",
"146 89 LINE",
"130 106 LINE",
"128 108 LINE",
"108 124 LINE",
"99 150 LINE",
"108 171 LINE",
"130 190 LINE",
"141 199 LINE",
"267 286 LINE",
"240 357 LINE",
"216 500 LINE",
"216 561 LINE",
"216 639 LINE",
"250 798 LINE",
"314 945 LINE",
"408 1074 LINE",
"528 1170 LINE",
"672 1225 LINE",
"755 1225 LINE",
"773 1225 LINE",
"810 1224 LINE",
"828 1221 LINE",
"831 1223 LINE",
"840 1223 LINE",
"843 1223 LINE",
"924 1223 LINE",
"1048 1219 LINE",
"1149 1205 LINE",
"1235 1178 LINE",
"1277 1155 LINE",
"1322 1125 LINE",
"1398 1062 LINE",
"1430 1027 LINE",
"1589 1120 LINE",
"1603 1126 LINE",
"1624 1118 LINE",
"1632 1111 LINE",
"1641 1103 LINE",
"1671 1074 LINE",
"1686 1068 LINE",
"1707 1050 LINE",
"1731 1028 LINE",
"1725 1001 LINE",
"1684 963 LINE",
"1640 930 LINE",
"1627 922 LINE",
"1610 912 LINE",
"1596 904 LINE",
"1557 882 LINE",
"1534 868 LINE",
"1586 746 LINE",
"1586 580 LINE",
"1586 484 LINE",
"1540 299 LINE",
"1494 215 LINE",
"1491 209 LINE",
"1480 190 LINE",
"1469 173 LINE",
"1460 160 LINE",
"1459 160 LINE",
"1445 152 LINE",
"1395 77 LINE",
"1255 -6 LINE",
"1096 -44 LINE",
"927 -51 LINE",
"849 -51 LINE",
"826 -51 LINE",
"784 -43 LINE"
);
},
{
closed = 1;
nodes = (
"816 422 LINE",
"817 394 LINE",
"822 322 LINE",
"827 254 LINE",
"832 202 LINE",
"834 195 LINE",
"857 117 LINE",
"859 109 LINE",
"878 102 LINE",
"886 102 LINE",
"908 102 LINE",
"941 186 LINE",
"963 313 LINE",
"976 463 LINE",
"979 529 LINE"
);
},
{
closed = 1;
nodes = (
"918 729 LINE",
"982 766 LINE",
"980 799 LINE",
"973 877 LINE",
"960 943 LINE",
"940 987 LINE",
"925 987 LINE",
"906 987 LINE",
"866 924 LINE",
"857 846 LINE",
"834 673 LINE"
);
}
);
width = 1827;
}
);
unicode = 00F8;
},
{
glyphname = oe;
lastChange = "2016-07-06 09:50:25 +0000";
layers = (
{
layerId = UUID0;
paths = (
{
closed = 1;
nodes = (
"730 -11 LINE",
"679 -11 LINE",
"581 -15 LINE",
"484 -9 LINE",
"387 14 LINE",
"337 41 LINE",
"271 78 LINE",
"180 204 LINE",
"123 349 LINE",
"97 499 LINE",
"97 561 LINE",
"97 634 LINE",
"131 783 LINE",
"195 921 LINE",
"289 1043 LINE",
"409 1133 LINE",
"553 1185 LINE",
"636 1185 LINE",
"654 1185 LINE",
"691 1184 LINE",
"709 1181 LINE",
"712 1183 LINE",
"721 1183 LINE",
"724 1183 LINE",
"790 1183 LINE",
"894 1183 LINE",
"981 1184 LINE",
"1057 1184 LINE",
"1095 1184 LINE",
"1167 1182 LINE",
"1307 1174 LINE",
"1380 1174 LINE",
"1426 1174 LINE",
"1528 1176 LINE",
"1630 1179 LINE",
"1730 1182 LINE",
"1775 1182 LINE",
"1839 1182 LINE",
"1857 1182 LINE",
"1876 1143 LINE",
"1890 1083 LINE",
"1900 1011 LINE",
"1909 979 LINE",
"1913 956 LINE",
"1898 933 LINE",
"1872 923 LINE",
"1839 922 LINE",
"1825 922 LINE",
"1791 922 LINE",
"1733 920 LINE",
"1698 915 LINE",
"1684 913 LINE",
"1625 914 LINE",
"1559 913 LINE",
"1500 905 LINE",
"1487 895 LINE",
"1487 901 LINE",
"1479 901 LINE",
"1466 861 LINE",
"1457 809 LINE",
"1452 756 LINE",
"1452 743 LINE",
"1452 719 LINE",
"1465 705 LINE",
"1481 705 LINE",
"1486 705 LINE",
"1498 708 LINE",
"1501 711 LINE",
"1504 711 LINE",
"1520 707 LINE",
"1524 705 LINE",
"1698 705 LINE",
"1700 707 LINE",
"1709 711 LINE",
"1712 711 LINE",
"1729 713 LINE",
"1755 700 LINE",
"1767 698 LINE",
"1782 696 LINE",
"1802 694 LINE",
"1816 688 LINE",
"1826 672 LINE",
"1831 655 LINE",
"1874 520 LINE",
"1877 502 LINE",
"1843 482 LINE",
"1783 472 LINE",
"1704 469 LINE",
"1663 469 LINE",
"1573 469 LINE",
"1537 469 LINE",
"1488 469 LINE",
"1457 461 LINE",
"1444 439 LINE",
"1444 418 LINE",
"1444 413 LINE",
"1444 405 LINE",
"1445 402 LINE",
"1445 398 LINE",
"1446 395 LINE",
"1446 386 LINE",
"1444 362 LINE",
"1443 351 LINE",
"1441 339 LINE",
"1440 326 LINE",
"1440 317 LINE",
"1441 296 LINE",
"1441 276 LINE",
"1442 260 LINE",
"1442 256 LINE",
"1535 256 LINE",
"1724 268 LINE",
"1816 268 LINE",
"1823 268 LINE",
"1830 250 LINE",
"1835 225 LINE",
"1837 197 LINE",
"1839 188 LINE",
"1844 168 LINE",
"1852 140 LINE",
"1858 112 LINE",
"1861 78 LINE",
"1861 53 LINE",
"1861 51 LINE",
"1860 44 LINE",
"1860 40 LINE",
"1859 36 LINE",
"1859 31 LINE",
"1845 16 LINE",
"1841 15 LINE",
"1837 15 LINE",
"1834 14 LINE",
"1827 14 LINE",
"1825 14 LINE",
"1758 14 LINE",
"1638 8 LINE",
"1565 8 LINE",
"1424 8 LINE",
"1210 5 LINE",
"1046 1 LINE",
"926 -4 LINE",
"834 -8 LINE",
"763 -11 LINE"
);
},
{
closed = 1;
nodes = (
"865 706 LINE",
"865 722 LINE",
"865 777 LINE",
"865 839 LINE",
"865 903 LINE",
"865 955 LINE",
"866 987 LINE",
"866 987 LINE",
"848 987 LINE",
"806 973 LINE",
"770 940 LINE",
"742 886 LINE",
"738 846 LINE",
"709 579 LINE",
"709 575 LINE",
"707 523 LINE",
"707 446 LINE",
"709 357 LINE",
"715 274 LINE",
"727 210 LINE",
"738 197 LINE",
"742 178 LINE",
"769 156 LINE",
"806 145 LINE",
"848 142 LINE",
"867 142 LINE",
"867 142 LINE",
"866 203 LINE",
"865 300 LINE",
"865 419 LINE",
"865 535 LINE",
"865 635 LINE",
"865 664 LINE",
"865 698 LINE"
);
}
);
width = 2016;
}
);
unicode = 0153;
},
{
glyphname = p;
lastChange = "2016-07-06 09:50:25 +0000";
layers = (
{
layerId = UUID0;
paths = (
{
closed = 1;
nodes = (
"119 1141 LINE",
"119 1158 LINE",
"149 1188 LINE",
"166 1188 LINE",
"284 1188 LINE",
"457 1184 LINE",
"520 1184 LINE",
"616 1184 LINE",
"835 1190 LINE",
"968 1190 LINE",
"1017 1190 LINE",
"1128 1176 LINE",
"1237 1142 LINE",
"1337 1083 LINE",
"1414 992 LINE",
"1460 865 LINE",
"1460 780 LINE",
"1460 640 LINE",
"1388 447 LINE",
"1257 327 LINE",
"1073 274 LINE",
"960 274 LINE",
"717 274 LINE",
"717 222 LINE",
"708 175 LINE",
"708 172 LINE",
"708 169 LINE",
"711 145 LINE",
"714 117 LINE",
"717 93 LINE",
"717 90 LINE",
"717 58 LINE",
"704 22 LINE",
"679 4 LINE",
"642 0 LINE",
"618 0 LINE",
"556 0 LINE",
"463 -2 LINE",
"369 -4 LINE",
"257 -6 LINE",
"176 -6 LINE",
"159 -6 LINE",
"140 15 LINE",
"131 47 LINE",
"129 86 LINE",
"129 104 LINE",
"129 145 LINE",
"126 290 LINE",
"122 467 LINE",
"119 661 LINE",
"119 750 LINE"
);
},
{
closed = 1;
nodes = (
"731 494 LINE",
"732 492 LINE",
"741 491 LINE",
"749 490 LINE",
"782 489 LINE",
"813 489 LINE",
"833 489 LINE",
"860 529 LINE",
"878 591 LINE",
"888 668 LINE",
"892 741 LINE",
"893 803 LINE",
"893 819 LINE",
"893 821 LINE",
"892 853 LINE",
"888 898 LINE",
"878 949 LINE",
"860 992 LINE",
"833 1020 LINE",
"813 1020 LINE",
"798 1020 LINE",
"774 975 LINE",
"757 901 LINE",
"745 806 LINE",
"741 757 LINE",
"732 641 LINE"
);
}
);
width = 1518;
}
);
unicode = 0070;
},
{
glyphname = thorn;
lastChange = "2016-07-06 09:50:25 +0000";
layers = (
{
layerId = UUID0;
paths = (
{
closed = 1;
nodes = (
"120 1282 LINE",
"120 1300 LINE",
"122 1339 LINE",
"131 1371 LINE",
"150 1392 LINE",
"167 1392 LINE",
"246 1392 LINE",
"356 1390 LINE",
"448 1388 LINE",
"538 1386 LINE",
"599 1386 LINE",
"623 1386 LINE",
"660 1381 LINE",
"685 1363 LINE",
"698 1327 LINE",
"698 1296 LINE",
"698 1293 LINE",
"698 1269 LINE",
"699 1241 LINE",
"699 1217 LINE",
"699 1214 LINE",
"699 1212 LINE",
"698 1155 LINE",
"697 1116 LINE",
"757 1118 LINE",
"887 1120 LINE",
"959 1120 LINE",
"1008 1120 LINE",
"1119 1106 LINE",
"1228 1072 LINE",
"1328 1013 LINE",
"1405 922 LINE",
"1451 795 LINE",
"1451 710 LINE",
"1451 570 LINE",
"1379 377 LINE",
"1248 257 LINE",
"1064 204 LINE",
"951 204 LINE",
"696 204 LINE",
"696 126 LINE",
"699 55 LINE",
"699 52 LINE",
"699 49 LINE",
"702 25 LINE",
"705 -3 LINE",
"708 -27 LINE",
"708 -30 LINE",
"708 -62 LINE",
"695 -98 LINE",
"670 -116 LINE",
"633 -120 LINE",
"609 -120 LINE",
"547 -120 LINE",
"454 -122 LINE",
"360 -124 LINE",
"248 -126 LINE",
"167 -126 LINE",
"150 -126 LINE",
"131 -106 LINE",
"122 -74 LINE",
"120 -35 LINE",
"120 -16 LINE"
);
},
{
closed = 1;
nodes = (
"722 424 LINE",
"723 422 LINE",
"732 421 LINE",
"740 420 LINE",
"773 419 LINE",
"804 419 LINE",
"824 419 LINE",
"851 459 LINE",
"869 521 LINE",
"879 598 LINE",
"883 671 LINE",
"884 733 LINE",
"884 749 LINE",
"884 752 LINE",
"883 784 LINE",
"875 828 LINE",
"858 879 LINE",
"827 922 LINE",
"779 950 LINE",
"744 950 LINE",
"740 950 LINE",
"734 905 LINE",
"729 831 LINE",
"726 736 LINE",
"725 687 LINE",
"722 571 LINE"
);
}
);
width = 1483;
}
);
unicode = 00FE;
},
{
glyphname = q;
lastChange = "2016-07-06 09:50:25 +0000";
layers = (
{
layerId = UUID0;
paths = (
{
closed = 1;
nodes = (
"1454 616 LINE",
"1454 469 LINE",
"1408 252 LINE",
"1322 99 LINE",
"1199 3 LINE",
"1122 -25 LINE",
"1143 -52 LINE",
"1185 -111 LINE",
"1219 -166 LINE",
"1241 -211 LINE",
"1241 -223 LINE",
"1240 -241 LINE",
"1204 -275 LINE",
"1155 -305 LINE",
"1103 -332 LINE",
"1087 -344 LINE",
"1070 -349 LINE",
"1038 -360 LINE",
"1018 -365 LINE",
"1015 -368 LINE",
"974 -381 LINE",
"927 -395 LINE",
"886 -404 LINE",
"883 -403 LINE",
"881 -411 LINE",
"868 -410 LINE",
"868 -412 LINE",
"867 -412 LINE",
"860 -411 LINE",
"845 -403 LINE",
"822 -385 LINE",
"807 -369 LINE",
"802 -359 LINE",
"796 -358 LINE",
"794 -358 LINE",
"792 -356 LINE",
"789 -354 LINE",
"784 -346 LINE",
"641 -111 LINE",
"638 -106 LINE",
"624 -79 LINE",
"614 -63 LINE",
"541 -58 LINE",
"402 -31 LINE",
"280 24 LINE",
"178 111 LINE",
"104 242 LINE",
"63 421 LINE",
"63 541 LINE",
"63 726 LINE",
"145 988 LINE",
"321 1155 LINE",
"598 1233 LINE",
"792 1233 LINE",
"858 1233 LINE",
"1007 1212 LINE",
"1154 1159 LINE",
"1289 1069 LINE",
"1392 932 LINE",
"1454 742 LINE"
);
},
{
closed = 1;
nodes = (
"678 567 LINE",
"678 539 LINE",
"679 450 LINE",
"683 347 LINE",
"693 242 LINE",
"711 157 LINE",
"739 104 LINE",
"760 104 LINE",
"780 104 LINE",
"809 164 LINE",
"827 258 LINE",
"837 374 LINE",
"841 485 LINE",
"842 577 LINE",
"842 602 LINE",
"842 610 LINE",
"841 685 LINE",
"837 787 LINE",
"827 901 LINE",
"809 998 LINE",
"780 1061 LINE",
"760 1061 LINE",
"739 1061 LINE",
"711 1018 LINE",
"693 945 LINE",
"683 847 LINE",
"679 738 LINE",
"678 622 LINE"
);
}
);
width = 1536;
}
);
unicode = 0071;
},
{
glyphname = r;
lastChange = "2016-07-06 09:50:25 +0000";
layers = (
{
layerId = UUID0;
paths = (
{
closed = 1;
nodes = (
"1336 119 LINE",
"1333 111 LINE",
"1291 81 LINE",
"1233 47 LINE",
"1167 13 LINE",
"1109 -12 LINE",
"1067 -26 LINE",
"1064 -23 LINE",
"1019 20 LINE",
"947 104 LINE",
"875 205 LINE",
"793 334 LINE",
"738 422 LINE",
"735 425 LINE",
"733 425 LINE",
"728 425 LINE",
"715 421 LINE",
"714 421 LINE",
"713 400 LINE",
"711 323 LINE",
"710 232 LINE",
"707 139 LINE",
"703 62 LINE",
"696 14 LINE",
"691 14 LINE",
"684 14 LINE",
"672 16 LINE",
"670 16 LINE",
"585 10 LINE",
"426 0 LINE",
"341 0 LINE",
"330 0 LINE",
"292 1 LINE",
"255 1 LINE",
"228 2 LINE",
"227 2 LINE",
"163 23 LINE",
"157 37 LINE",
"156 37 LINE",
"152 78 LINE",
"147 142 LINE",
"141 223 LINE",
"135 305 LINE",
"130 381 LINE",
"128 408 LINE",
"124 462 LINE",
"114 579 LINE",
"114 633 LINE",
"114 637 LINE",
"116 667 LINE",
"118 703 LINE",
"120 733 LINE",
"120 737 LINE",
"120 740 LINE",
"118 761 LINE",
"116 785 LINE",
"114 806 LINE",
"114 809 LINE",
"114 836 LINE",
"116 880 LINE",
"119 926 LINE",
"122 980 LINE",
"122 1018 LINE",
"122 1024 LINE",
"121 1052 LINE",
"121 1082 LINE",
"120 1110 LINE",
"120 1116 LINE",
"118 1118 LINE",
"114 1125 LINE",
"114 1128 LINE",
"114 1145 LINE",
"144 1165 LINE",
"186 1175 LINE",
"229 1178 LINE",
"241 1178 LINE",
"481 1178 LINE",
"833 1162 LINE",
"1082 1127 LINE",
"1240 1072 LINE",
"1329 991 LINE",
"1362 885 LINE",
"1362 817 LINE",
"1362 749 LINE",
"1322 655 LINE",
"1267 595 LINE",
"1211 561 LINE",
"1196 553 LINE",
"1205 528 LINE",
"1244 464 LINE",
"1292 396 LINE",
"1345 329 LINE",
"1390 270 LINE",
"1421 224 LINE",
"1425 212 LINE",
"1444 204 LINE",
"1422 174 LINE",
"1400 158 LINE",
"1374 140 LINE"
);
},
{
closed = 1;
nodes = (
"701 953 LINE",
"699 889 LINE",
"692 762 LINE",
"692 698 LINE",
"707 698 LINE",
"744 703 LINE",
"781 712 LINE",
"814 725 LINE",
"824 733 LINE",
"839 742 LINE",
"867 762 LINE",
"889 786 LINE",
"902 816 LINE",
"902 834 LINE",
"902 865 LINE",
"882 911 LINE",
"851 939 LINE",
"811 953 LINE",
"791 953 LINE",
"735 953 LINE"
);
}
);
width = 1537;
}
);
unicode = 0072;
},
{
glyphname = s;
lastChange = "2016-07-06 09:50:25 +0000";
layers = (
{
layerId = UUID0;
paths = (
{
closed = 1;
nodes = (
"85 287 LINE",
"85 298 LINE",
"93 315 LINE",
"105 317 LINE",
"240 266 LINE",
"367 266 LINE",
"395 266 LINE",
"464 264 LINE",
"522 272 LINE",
"562 295 LINE",
"562 319 LINE",
"562 354 LINE",
"515 396 LINE",
"449 425 LINE",
"376 446 LINE",
"351 459 LINE",
"349 460 LINE",
"335 468 LINE",
"318 479 LINE",
"300 491 LINE",
"296 494 LINE",
"305 494 LINE",
"285 504 LINE",
"253 522 LINE",
"224 545 LINE",
"224 557 LINE",
"224 567 LINE",
"195 567 LINE",
"151 631 LINE",
"121 718 LINE",
"105 805 LINE",
"105 829 LINE",
"105 933 LINE",
"195 1076 LINE",
"343 1170 LINE",
"533 1222 LINE",
"735 1246 LINE",
"931 1251 LINE",
"1011 1251 LINE",
"1038 1243 LINE",
"1075 1237 LINE",
"1099 1225 LINE",
"1113 1199 LINE",
"1121 1145 LINE",
"1126 1054 LINE",
"1129 983 LINE",
"1137 968 LINE",
"1113 950 LINE",
"1061 940 LINE",
"988 933 LINE",
"910 925 LINE",
"834 911 LINE",
"773 885 LINE",
"736 845 LINE",
"736 815 LINE",
"736 801 LINE",
"743 785 LINE",
"759 774 LINE",
"813 747 LINE",
"918 698 LINE",
"1013 645 LINE",
"1094 587 LINE",
"1153 514 LINE",
"1187 424 LINE",
"1187 367 LINE",
"1187 339 LINE",
"1182 293 LINE",
"1172 268 LINE",
"1146 200 LINE",
"1040 87 LINE",
"905 6 LINE",
"753 -40 LINE",
"681 -41 LINE",
"380 -47 LINE",
"375 -44 LINE",
"336 -37 LINE",
"282 -28 LINE",
"222 -16 LINE",
"170 -2 LINE",
"135 14 LINE",
"134 23 LINE",
"85 276 LINE"
);
}
);
width = 1270;
}
);
unicode = 0073;
},
{
glyphname = germandbls;
lastChange = "2016-07-06 09:50:25 +0000";
layers = (
{
layerId = UUID0;
paths = (
{
closed = 1;
nodes = (
"913 449 LINE",
"969 458 LINE",
"1078 470 LINE",
"1134 479 LINE",
"1161 484 LINE",
"1185 524 LINE",
"1185 544 LINE",
"1185 565 LINE",
"1153 573 LINE",
"1093 610 LINE",
"989 638 LINE",
"931 642 LINE",
"933 886 LINE",
"944 892 LINE",
"970 906 LINE",
"994 919 LINE",
"1011 928 LINE",
"1013 928 LINE",
"1025 932 LINE",
"1055 941 LINE",
"1081 961 LINE",
"1098 996 LINE",
"1098 1025 LINE",
"1098 1044 LINE",
"1046 1066 LINE",
"976 1078 LINE",
"906 1081 LINE",
"889 1081 LINE",
"857 1081 LINE",
"821 1058 LINE",
"804 1018 LINE",
"801 966 LINE",
"801 938 LINE",
"801 936 LINE",
"801 911 LINE",
"801 874 LINE",
"802 831 LINE",
"802 795 LINE",
"802 769 LINE",
"802 768 LINE",
"799 648 LINE",
"799 642 LINE",
"801 596 LINE",
"804 544 LINE",
"806 499 LINE",
"806 494 LINE",
"806 390 LINE",
"806 348 LINE",
"803 276 LINE",
"800 208 LINE",
"798 137 LINE",
"798 95 LINE",
"796 86 LINE",
"789 62 LINE",
"777 41 LINE",
"761 25 LINE",
"751 24 LINE",
"724 19 LINE",
"686 14 LINE",
"653 11 LINE",
"618 11 LINE",
"594 11 LINE",
"459 11 LINE",
"277 11 LINE",
"167 18 LINE",
"121 35 LINE",
"121 51 LINE",
"121 64 LINE",
"122 125 LINE",
"123 201 LINE",
"125 286 LINE",
"126 360 LINE",
"127 417 LINE",
"127 427 LINE",
"127 474 LINE",
"122 562 LINE",
"115 650 LINE",
"110 738 LINE",
"110 785 LINE",
"110 945 LINE",
"159 1165 LINE",
"248 1307 LINE",
"370 1384 LINE",
"518 1420 LINE",
"686 1426 LINE",
"775 1426 LINE",
"804 1426 LINE",
"834 1425 LINE",
"850 1424 LINE",
"860 1423 LINE",
"876 1422 LINE",
"906 1421 LINE",
"935 1421 LINE",
"993 1413 LINE",
"1129 1394 LINE",
"1266 1362 LINE",
"1392 1311 LINE",
"1490 1231 LINE",
"1548 1116 LINE",
"1548 1036 LINE",
"1548 961 LINE",
"1489 855 LINE",
"1427 816 LINE",
"1408 807 LINE",
"1366 794 LINE",
"1358 783 LINE",
"1364 775 LINE",
"1461 756 LINE",
"1593 692 LINE",
"1677 591 LINE",
"1720 448 LINE",
"1729 350 LINE",
"1730 339 LINE",
"1732 319 LINE",
"1732 308 LINE",
"1732 268 LINE",
"1701 187 LINE",
"1629 113 LINE",
"1508 49 LINE",
"1327 3 LINE",
"1081 -24 LINE",
"919 -24 LINE",
"913 -25 LINE"
);
}
);
width = 1812;
}
);
unicode = 00DF;
},
{
glyphname = t;
lastChange = "2016-07-06 09:50:25 +0000";
layers = (
{
layerId = UUID0;
paths = (
{
closed = 1;
nodes = (
"345 786 LINE",
"142 786 LINE",
"116 786 LINE",
"88 846 LINE",
"75 930 LINE",
"73 1020 LINE",
"73 1049 LINE",
"73 1056 LINE",
"75 1098 LINE",
"77 1143 LINE",
"79 1179 LINE",
"79 1180 LINE",
"87 1188 LINE",
"105 1186 LINE",
"145 1186 LINE",
"165 1186 LINE",
"233 1186 LINE",
"369 1188 LINE",
"437 1188 LINE",
"445 1188 LINE",
"503 1188 LINE",
"583 1187 LINE",
"675 1187 LINE",
"760 1186 LINE",
"828 1186 LINE",
"845 1186 LINE",
"848 1187 LINE",
"864 1189 LINE",
"881 1191 LINE",
"897 1192 LINE",
"900 1192 LINE",
"928 1192 LINE",
"988 1186 LINE",
"1019 1186 LINE",
"1034 1186 LINE",
"1111 1188 LINE",
"1154 1188 LINE",
"1177 1188 LINE",
"1220 1187 LINE",
"1253 1184 LINE",
"1273 1178 LINE",
"1273 1174 LINE",
"1273 823 LINE",
"1273 811 LINE",
"1248 783 LINE",
"1236 780 LINE",
"1174 794 LINE",
"1046 795 LINE",
"984 795 LINE",
"964 795 LINE",
"945 749 LINE",
"938 684 LINE",
"939 613 LINE",
"939 588 LINE",
"939 557 LINE",
"941 497 LINE",
"941 471 LINE",
"941 436 LINE",
"935 356 LINE",
"929 276 LINE",
"923 200 LINE",
"923 170 LINE",
"923 101 LINE",
"916 31 LINE",
"893 1 LINE",
"850 -3 LINE",
"814 -6 LINE",
"759 -6 LINE",
"668 -5 LINE",
"572 -5 LINE",
"457 -4 LINE",
"378 -4 LINE",
"369 8 LINE",
"357 60 LINE",
"350 137 LINE",
"347 236 LINE",
"347 295 LINE",
"347 398 LINE",
"351 644 LINE",
"351 780 LINE"
);
}
);
width = 1338;
}
);
unicode = 0074;
},
{
glyphname = tbar;
lastChange = "2016-07-06 09:50:25 +0000";
layers = (
{
layerId = UUID0;
paths = (
{
closed = 1;
nodes = (
"345 786 LINE",
"142 786 LINE",
"116 786 LINE",
"88 846 LINE",
"75 930 LINE",
"73 1020 LINE",
"73 1049 LINE",
"73 1056 LINE",
"75 1098 LINE",
"77 1143 LINE",
"79 1179 LINE",
"79 1180 LINE",
"87 1188 LINE",
"105 1186 LINE",
"125 1186 LINE",
"165 1186 LINE",
"233 1186 LINE",
"369 1188 LINE",
"437 1188 LINE",
"474 1188 LINE",
"503 1188 LINE",
"583 1187 LINE",
"675 1187 LINE",
"760 1186 LINE",
"794 1186 LINE",
"845 1186 LINE",
"848 1187 LINE",
"864 1189 LINE",
"881 1191 LINE",
"897 1192 LINE",
"900 1192 LINE",
"928 1192 LINE",
"988 1186 LINE",
"1019 1186 LINE",
"1034 1186 LINE",
"1111 1188 LINE",
"1154 1188 LINE",
"1177 1188 LINE",
"1220 1187 LINE",
"1253 1184 LINE",
"1273 1178 LINE",
"1273 1174 LINE",
"1273 823 LINE",
"1273 811 LINE",
"1248 783 LINE",
"1236 780 LINE",
"1174 794 LINE",
"1046 795 LINE",
"984 795 LINE",
"964 795 LINE",
"945 749 LINE",
"938 684 LINE",
"938 648 LINE",
"938 646 LINE",
"971 646 LINE",
"982 646 LINE",
"1000 646 LINE",
"1039 643 LINE",
"1072 633 LINE",
"1094 613 LINE",
"1094 595 LINE",
"1094 565 LINE",
"1095 528 LINE",
"1096 502 LINE",
"1097 482 LINE",
"1098 456 LINE",
"1099 420 LINE",
"1099 391 LINE",
"1099 373 LINE",
"1097 334 LINE",
"1087 301 LINE",
"1067 279 LINE",
"1050 279 LINE",
"1010 279 LINE",
"980 280 LINE",
"953 281 LINE",
"929 281 LINE",
"927 259 LINE",
"926 238 LINE",
"923 200 LINE",
"923 170 LINE",
"923 101 LINE",
"916 31 LINE",
"893 1 LINE",
"850 -3 LINE",
"814 -6 LINE",
"759 -6 LINE",
"668 -5 LINE",
"572 -5 LINE",
"457 -4 LINE",
"378 -4 LINE",
"369 8 LINE",
"357 60 LINE",
"350 137 LINE",
"348 186 LINE",
"347 233 LINE",
"347 287 LINE",
"341 287 LINE",
"313 287 LINE",
"268 295 LINE",
"240 318 LINE",
"240 341 LINE",
"240 382 LINE",
"239 445 LINE",
"239 504 LINE",
"238 566 LINE",
"238 607 LINE",
"238 615 LINE",
"247 632 LINE",
"262 646 LINE",
"278 655 LINE",
"286 655 LINE",
"350 655 LINE",
"351 716 LINE",
"351 780 LINE"
);
}
);
width = 1338;
}
);
unicode = 0167;
},
{
glyphname = u;
lastChange = "2016-07-06 09:50:25 +0000";
layers = (
{
layerId = UUID0;
paths = (
{
closed = 1;
nodes = (
"972 6 LINE",
"961 12 LINE",
"948 41 LINE",
"938 70 LINE",
"930 92 LINE",
"924 92 LINE",
"912 92 LINE",
"886 79 LINE",
"860 60 LINE",
"835 38 LINE",
"824 29 LINE",
"795 12 LINE",
"726 -10 LINE",
"661 -24 LINE",
"610 -29 LINE",
"599 -29 LINE",
"564 -29 LINE",
"495 -32 LINE",
"425 -30 LINE",
"357 -19 LINE",
"324 -6 LINE",
"269 15 LINE",
"198 102 LINE",
"155 212 LINE",
"137 338 LINE",
"131 459 LINE",
"134 565 LINE",
"134 602 LINE",
"134 611 LINE",
"135 650 LINE",
"135 691 LINE",
"136 724 LINE",
"136 729 LINE",
"142 743 LINE",
"142 743 LINE",
"145 782 LINE",
"148 844 LINE",
"151 921 LINE",
"154 995 LINE",
"156 1059 LINE",
"156 1077 LINE",
"156 1097 LINE",
"150 1133 LINE",
"150 1153 LINE",
"150 1173 LINE",
"189 1184 LINE",
"212 1184 LINE",
"242 1184 LINE",
"252 1184 LINE",
"269 1185 LINE",
"275 1188 LINE",
"525 1184 LINE",
"525 1182 LINE",
"531 1178 LINE",
"533 1178 LINE",
"546 1184 LINE",
"597 1184 LINE",
"666 1175 LINE",
"708 1146 LINE",
"726 1090 LINE",
"726 1042 LINE",
"726 994 LINE",
"732 910 LINE",
"732 862 LINE",
"732 842 LINE",
"730 799 LINE",
"726 699 LINE",
"723 596 LINE",
"721 499 LINE",
"719 421 LINE",
"718 368 LINE",
"718 362 LINE",
"718 351 LINE",
"717 310 LINE",
"722 269 LINE",
"734 238 LINE",
"746 238 LINE",
"756 238 LINE",
"809 257 LINE",
"865 281 LINE",
"908 304 LINE",
"908 309 LINE",
"908 983 LINE",
"905 1004 LINE",
"902 1035 LINE",
"900 1064 LINE",
"900 1094 LINE",
"900 1112 LINE",
"900 1122 LINE",
"899 1144 LINE",
"903 1162 LINE",
"915 1174 LINE",
"929 1174 LINE",
"932 1174 LINE",
"943 1167 LINE",
"943 1161 LINE",
"943 1159 LINE",
"954 1164 LINE",
"1000 1171 LINE",
"1058 1176 LINE",
"1122 1179 LINE",
"1180 1180 LINE",
"1227 1180 LINE",
"1238 1180 LINE",
"1273 1180 LINE",
"1490 1174 LINE",
"1499 1170 LINE",
"1504 1166 LINE",
"1504 1161 LINE",
"1504 1158 LINE",
"1502 1150 LINE",
"1502 1147 LINE",
"1505 1147 LINE",
"1515 1151 LINE",
"1518 1151 LINE",
"1524 1151 LINE",
"1524 1143 LINE",
"1524 871 LINE",
"1518 340 LINE",
"1504 70 LINE",
"1504 64 LINE",
"1494 47 LINE",
"1480 30 LINE",
"1465 16 LINE",
"1461 12 LINE",
"1458 14 LINE",
"1431 20 LINE",
"1426 20 LINE",
"1424 20 LINE",
"1414 12 LINE",
"1412 12 LINE",
"1350 1 LINE",
"1216 -2 LINE",
"1154 -2 LINE",
"1109 -2 LINE",
"1015 -2 LINE"
);
}
);
width = 1639;
}
);
unicode = 0075;
},
{
glyphname = v;
lastChange = "2016-07-06 09:50:25 +0000";
layers = (
{
layerId = UUID0;
paths = (
{
closed = 1;
nodes = (
"618 2 LINE",
"578 2 LINE",
"510 -6 LINE",
"473 -6 LINE",
"457 -6 LINE",
"429 2 LINE",
"420 2 LINE",
"401 2 LINE",
"395 4 LINE",
"385 18 LINE",
"385 23 LINE",
"221 575 LINE",
"193 681 LINE",
"142 903 LINE",
"119 1010 LINE",
"117 1020 LINE",
"106 1073 LINE",
"102 1127 LINE",
"114 1169 LINE",
"135 1169 LINE",
"145 1169 LINE",
"209 1168 LINE",
"278 1167 LINE",
"332 1166 LINE",
"334 1165 LINE",
"459 1165 LINE",
"459 1164 LINE",
"467 1160 LINE",
"471 1158 LINE",
"475 1157 LINE",
"480 1157 LINE",
"487 1165 LINE",
"500 1165 LINE",
"506 1165 LINE",
"536 1163 LINE",
"566 1161 LINE",
"592 1159 LINE",
"649 1157 LINE",
"672 1157 LINE",
"681 1142 LINE",
"698 1075 LINE",
"716 985 LINE",
"736 877 LINE",
"747 819 LINE",
"747 817 LINE",
"758 757 LINE",
"774 668 LINE",
"792 564 LINE",
"808 475 LINE",
"819 415 LINE",
"819 414 LINE",
"819 406 LINE",
"819 402 LINE",
"820 392 LINE",
"821 387 LINE",
"823 394 LINE",
"824 405 LINE",
"825 408 LINE",
"826 412 LINE",
"827 414 LINE",
"827 415 LINE",
"837 475 LINE",
"852 564 LINE",
"870 668 LINE",
"885 757 LINE",
"895 817 LINE",
"895 819 LINE",
"908 877 LINE",
"929 985 LINE",
"948 1075 LINE",
"966 1142 LINE",
"975 1157 LINE",
"992 1157 LINE",
"1037 1159 LINE",
"1078 1162 LINE",
"1107 1165 LINE",
"1108 1165 LINE",
"1110 1165 LINE",
"1113 1165 LINE",
"1116 1157 LINE",
"1118 1157 LINE",
"1130 1157 LINE",
"1134 1163 LINE",
"1134 1165 LINE",
"1247 1165 LINE",
"1248 1165 LINE",
"1275 1166 LINE",
"1315 1167 LINE",
"1362 1168 LINE",
"1406 1169 LINE",
"1440 1169 LINE",
"1446 1169 LINE",
"1467 1169 LINE",
"1479 1127 LINE",
"1476 1073 LINE",
"1464 1020 LINE",
"1462 1010 LINE",
"1439 903 LINE",
"1388 681 LINE",
"1360 575 LINE",
"1196 23 LINE",
"1196 18 LINE",
"1186 4 LINE",
"1179 2 LINE",
"1163 2 LINE",
"1152 2 LINE",
"1132 -6 LINE",
"1120 -6 LINE",
"1097 -6 LINE",
"1052 2 LINE",
"1026 2 LINE",
"1023 -1 LINE",
"982 -5 LINE",
"923 -7 LINE",
"855 -7 LINE",
"795 -7 LINE",
"752 -6 LINE",
"747 -6 LINE",
"748 -5 LINE",
"709 -3 LINE",
"660 0 LINE",
"619 2 LINE"
);
}
);
width = 1581;
}
);
unicode = 0076;
},
{
glyphname = w;
lastChange = "2016-07-06 09:50:25 +0000";
layers = (
{
layerId = UUID0;
paths = (
{
closed = 1;
nodes = (
"1255 10 LINE",
"1241 10 LINE",
"1212 2 LINE",
"1198 2 LINE",
"1184 2 LINE",
"1167 12 LINE",
"1155 12 LINE",
"1138 10 LINE",
"1126 12 LINE",
"1122 26 LINE",
"1122 31 LINE",
"1007 598 LINE",
"893 31 LINE",
"880 26 LINE",
"876 12 LINE",
"876 10 LINE",
"860 12 LINE",
"854 12 LINE",
"844 2 LINE",
"837 2 LINE",
"806 2 LINE",
"757 10 LINE",
"725 10 LINE",
"723 4 LINE",
"695 0 LINE",
"678 0 LINE",
"641 0 LINE",
"596 3 LINE",
"561 7 LINE",
"528 10 LINE",
"502 10 LINE",
"479 10 LINE",
"434 2 LINE",
"409 2 LINE",
"395 2 LINE",
"366 12 LINE",
"352 12 LINE",
"336 10 LINE",
"322 12 LINE",
"317 26 LINE",
"317 31 LINE",
"198 573 LINE",
"177 677 LINE",
"133 896 LINE",
"114 999 LINE",
"108 1006 LINE",
"101 1031 LINE",
"98 1061 LINE",
"98 1092 LINE",
"98 1106 LINE",
"98 1129 LINE",
"112 1159 LINE",
"129 1159 LINE",
"135 1159 LINE",
"169 1159 LINE",
"212 1158 LINE",
"259 1157 LINE",
"299 1156 LINE",
"325 1155 LINE",
"327 1155 LINE",
"401 1155 LINE",
"412 1154 LINE",
"416 1150 LINE",
"418 1148 LINE",
"418 1147 LINE",
"423 1147 LINE",
"433 1155 LINE",
"442 1155 LINE",
"448 1155 LINE",
"449 1155 LINE",
"477 1152 LINE",
"516 1149 LINE",
"560 1147 LINE",
"577 1147 LINE",
"586 1130 LINE",
"604 1058 LINE",
"622 961 LINE",
"643 843 LINE",
"655 780 LINE",
"655 778 LINE",
"660 750 LINE",
"666 710 LINE",
"675 663 LINE",
"681 624 LINE",
"686 597 LINE",
"686 596 LINE",
"686 593 LINE",
"687 589 LINE",
"688 585 LINE",
"690 575 LINE",
"692 569 LINE",
"694 575 LINE",
"695 585 LINE",
"696 589 LINE",
"697 593 LINE",
"698 596 LINE",
"698 597 LINE",
"703 624 LINE",
"709 663 LINE",
"718 710 LINE",
"724 750 LINE",
"729 778 LINE",
"729 780 LINE",
"742 843 LINE",
"763 961 LINE",
"782 1058 LINE",
"800 1130 LINE",
"809 1147 LINE",
"824 1147 LINE",
"858 1147 LINE",
"878 1149 LINE",
"878 1154 LINE",
"891 1159 LINE",
"899 1159 LINE",
"906 1159 LINE",
"951 1159 LINE",
"1005 1159 LINE",
"1058 1158 LINE",
"1075 1157 LINE",
"1077 1157 LINE",
"1081 1159 LINE",
"1083 1159 LINE",
"1088 1159 LINE",
"1097 1157 LINE",
"1097 1155 LINE",
"1204 1155 LINE",
"1216 1154 LINE",
"1220 1150 LINE",
"1222 1148 LINE",
"1222 1147 LINE",
"1226 1147 LINE",
"1237 1155 LINE",
"1245 1155 LINE",
"1251 1155 LINE",
"1254 1155 LINE",
"1285 1147 LINE",
"1294 1147 LINE",
"1303 1132 LINE",
"1321 1067 LINE",
"1339 978 LINE",
"1360 871 LINE",
"1372 813 LINE",
"1372 811 LINE",
"1377 776 LINE",
"1384 725 LINE",
"1393 665 LINE",
"1400 615 LINE",
"1405 580 LINE",
"1405 580 LINE",
"1404 576 LINE",
"1405 572 LINE",
"1405 568 LINE",
"1407 558 LINE",
"1409 553 LINE",
"1411 558 LINE",
"1412 568 LINE",
"1413 572 LINE",
"1414 576 LINE",
"1415 580 LINE",
"1415 580 LINE",
"1420 615 LINE",
"1427 665 LINE",
"1436 725 LINE",
"1443 776 LINE",
"1448 811 LINE",
"1448 813 LINE",
"1460 871 LINE",
"1480 978 LINE",
"1499 1067 LINE",
"1517 1132 LINE",
"1526 1147 LINE",
"1536 1147 LINE",
"1562 1149 LINE",
"1574 1151 LINE",
"1588 1153 LINE",
"1603 1155 LINE",
"1609 1155 LINE",
"1611 1155 LINE",
"1612 1147 LINE",
"1614 1147 LINE",
"1628 1147 LINE",
"1632 1153 LINE",
"1632 1155 LINE",
"1724 1155 LINE",
"1724 1155 LINE",
"1750 1156 LINE",
"1789 1157 LINE",
"1837 1158 LINE",
"1882 1159 LINE",
"1916 1159 LINE",
"1923 1159 LINE",
"1938 1159 LINE",
"1952 1128 LINE",
"1952 1106 LINE",
"1946 1091 LINE",
"1939 1060 LINE",
"1936 1030 LINE",
"1935 1006 LINE",
"1935 999 LINE",
"1910 885 LINE",
"1849 637 LINE",
"1818 522 LINE",
"1698 31 LINE",
"1684 26 LINE",
"1679 12 LINE",
"1679 10 LINE",
"1665 12 LINE",
"1654 12 LINE",
"1635 2 LINE",
"1624 2 LINE",
"1599 2 LINE",
"1554 10 LINE",
"1530 10 LINE",
"1527 7 LINE",
"1507 3 LINE",
"1479 1 LINE",
"1445 0 LINE",
"1429 0 LINE",
"1391 0 LINE",
"1349 3 LINE",
"1316 7 LINE",
"1283 10 LINE"
);
}
);
width = 2046;
}
);
unicode = 0077;
},
{
glyphname = x;
lastChange = "2016-07-06 09:50:25 +0000";
layers = (
{
layerId = UUID0;
paths = (
{
closed = 1;
nodes = (
"712 98 LINE",
"676 41 LINE",
"635 2 LINE",
"616 6 LINE",
"615 6 LINE",
"601 0 LINE",
"582 -7 LINE",
"563 -12 LINE",
"559 -10 LINE",
"547 -7 LINE",
"494 -5 LINE",
"425 -4 LINE",
"344 -3 LINE",
"264 -2 LINE",
"189 2 LINE",
"160 6 LINE",
"153 6 LINE",
"138 6 LINE",
"139 30 LINE",
"139 39 LINE",
"139 49 LINE",
"155 89 LINE",
"180 140 LINE",
"210 197 LINE",
"240 249 LINE",
"266 293 LINE",
"274 305 LINE",
"279 313 LINE",
"298 348 LINE",
"322 396 LINE",
"350 451 LINE",
"364 479 LINE",
"397 544 LINE",
"434 621 LINE",
"425 636 LINE",
"416 652 LINE",
"408 666 LINE",
"389 698 LINE",
"381 715 LINE",
"378 717 LINE",
"348 765 LINE",
"305 835 LINE",
"256 914 LINE",
"214 984 LINE",
"183 1031 LINE",
"180 1034 LINE",
"172 1045 LINE",
"146 1084 LINE",
"121 1129 LINE",
"102 1176 LINE",
"102 1194 LINE",
"149 1200 LINE",
"150 1200 LINE",
"191 1198 LINE",
"256 1196 LINE",
"339 1193 LINE",
"425 1189 LINE",
"507 1186 LINE",
"573 1184 LINE",
"614 1182 LINE",
"616 1182 LINE",
"623 1182 LINE",
"654 1144 LINE",
"693 1085 LINE",
"735 1016 LINE",
"771 954 LINE",
"796 910 LINE",
"798 905 LINE",
"798 900 LINE",
"803 888 LINE",
"809 878 LINE",
"814 870 LINE",
"815 870 LINE",
"821 875 LINE",
"826 880 LINE",
"834 888 LINE",
"846 905 LINE",
"848 910 LINE",
"873 954 LINE",
"909 1016 LINE",
"951 1085 LINE",
"990 1144 LINE",
"1021 1182 LINE",
"1028 1182 LINE",
"1030 1182 LINE",
"1101 1185 LINE",
"1203 1189 LINE",
"1322 1193 LINE",
"1424 1197 LINE",
"1493 1200 LINE",
"1495 1200 LINE",
"1542 1194 LINE",
"1542 1177 LINE",
"1524 1136 LINE",
"1498 1096 LINE",
"1472 1062 LINE",
"1464 1053 LINE",
"1461 1050 LINE",
"1430 999 LINE",
"1388 926 LINE",
"1339 841 LINE",
"1296 768 LINE",
"1266 717 LINE",
"1263 715 LINE",
"1252 698 LINE",
"1227 666 LINE",
"1216 652 LINE",
"1204 636 LINE",
"1192 621 LINE",
"1222 566 LINE",
"1248 519 LINE",
"1259 499 LINE",
"1281 459 LINE",
"1300 424 LINE",
"1315 397 LINE",
"1319 391 LINE",
"1329 374 LINE",
"1365 313 LINE",
"1406 240 LINE",
"1449 162 LINE",
"1483 91 LINE",
"1505 36 LINE",
"1505 23 LINE",
"1505 13 LINE",
"1506 -10 LINE",
"1491 -10 LINE",
"1485 -10 LINE",
"1457 -10 LINE",
"1385 -8 LINE",
"1307 -6 LINE",
"1231 -5 LINE",
"1165 -5 LINE",
"1115 -7 LINE",
"1104 -10 LINE",
"1098 -12 LINE",
"1079 -7 LINE",
"1059 0 LINE",
"1045 6 LINE",
"1044 6 LINE",
"1042 6 LINE",
"1028 2 LINE",
"1026 2 LINE",
"985 41 LINE",
"985 53 LINE",
"985 59 LINE",
"976 52 LINE",
"966 61 LINE",
"876 221 LINE",
"872 230 LINE",
"856 263 LINE",
"837 294 LINE",
"819 317 LINE",
"815 317 LINE",
"768 221 LINE"
);
}
);
width = 1645;
}
);
unicode = 0078;
},
{
glyphname = y;
lastChange = "2016-07-06 09:50:25 +0000";
layers = (
{
layerId = UUID0;
paths = (
{
closed = 1;
nodes = (
"855 -209 LINE",
"842 -233 LINE",
"821 -254 LINE",
"805 -254 LINE",
"794 -254 LINE",
"765 -245 LINE",
"743 -237 LINE",
"733 -234 LINE",
"703 -222 LINE",
"692 -220 LINE",
"676 -218 LINE",
"652 -202 LINE",
"637 -199 LINE",
"635 -198 LINE",
"620 -196 LINE",
"603 -194 LINE",
"588 -192 LINE",
"587 -191 LINE",
"522 -173 LINE",
"386 -113 LINE",
"321 -87 LINE",
"314 -85 LINE",
"309 -73 LINE",
"309 -66 LINE",
"309 -50 LINE",
"315 -42 LINE",
"331 -16 LINE",
"358 31 LINE",
"383 76 LINE",
"411 121 LINE",
"429 145 LINE",
"436 153 LINE",
"450 182 LINE",
"456 196 LINE",
"463 212 LINE",
"470 229 LINE",
"457 253 LINE",
"414 324 LINE",
"369 394 LINE",
"328 454 LINE",
"316 466 LINE",
"310 477 LINE",
"283 523 LINE",
"249 582 LINE",
"212 645 LINE",
"180 704 LINE",
"154 750 LINE",
"148 761 LINE",
"140 773 LINE",
"109 831 LINE",
"79 894 LINE",
"56 950 LINE",
"56 961 LINE",
"56 970 LINE",
"88 994 LINE",
"133 1019 LINE",
"181 1041 LINE",
"196 1047 LINE",
"241 1066 LINE",
"307 1096 LINE",
"369 1123 LINE",
"436 1151 LINE",
"483 1169 LINE",
"493 1173 LINE",
"515 1175 LINE",
"524 1175 LINE",
"534 1175 LINE",
"555 1160 LINE",
"567 1134 LINE",
"604 1057 LINE",
"678 898 LINE",
"727 804 LINE",
"730 798 LINE",
"738 783 LINE",
"748 770 LINE",
"760 760 LINE",
"766 760 LINE",
"775 760 LINE",
"782 776 LINE",
"923 1142 LINE",
"926 1154 LINE",
"945 1176 LINE",
"971 1190 LINE",
"1000 1196 LINE",
"1013 1192 LINE",
"1056 1180 LINE",
"1159 1145 LINE",
"1263 1103 LINE",
"1359 1057 LINE",
"1395 1035 LINE",
"1416 1022 LINE",
"1426 991 LINE",
"1420 960 LINE",
"1405 933 LINE",
"1400 923 LINE",
"1074 212 LINE",
"1056 173 LINE"
);
}
);
width = 1499;
}
);
unicode = 0079;
},
{
glyphname = z;
lastChange = "2016-07-06 09:50:25 +0000";
layers = (
{
layerId = UUID0;
paths = (
{
closed = 1;
nodes = (
"141 375 LINE",
"247 481 LINE",
"331 570 LINE",
"367 608 LINE",
"435 683 LINE",
"489 747 LINE",
"522 795 LINE",
"522 805 LINE",
"522 813 LINE",
"514 813 LINE",
"178 817 LINE",
"152 817 LINE",
"125 867 LINE",
"112 937 LINE",
"110 1010 LINE",
"110 1034 LINE",
"110 1041 LINE",
"112 1081 LINE",
"114 1124 LINE",
"116 1158 LINE",
"116 1159 LINE",
"125 1169 LINE",
"137 1182 LINE",
"160 1182 LINE",
"171 1182 LINE",
"193 1178 LINE",
"203 1178 LINE",
"268 1178 LINE",
"396 1188 LINE",
"461 1188 LINE",
"589 1188 LINE",
"837 1194 LINE",
"968 1194 LINE",
"1028 1194 LINE",
"1102 1187 LINE",
"1143 1176 LINE",
"1157 1162 LINE",
"1157 1155 LINE",
"1157 870 LINE",
"1157 850 LINE",
"1133 781 LINE",
"1054 664 LINE",
"906 487 LINE",
"782 360 LINE",
"1104 360 LINE",
"1121 360 LINE",
"1149 337 LINE",
"1149 326 LINE",
"1149 39 LINE",
"1149 34 LINE",
"1145 21 LINE",
"1122 9 LINE",
"1071 0 LINE",
"1024 0 LINE",
"712 0 LINE",
"638 0 LINE",
"510 1 LINE",
"387 3 LINE",
"260 4 LINE",
"186 4 LINE",
"171 4 LINE",
"141 34 LINE",
"141 49 LINE"
);
}
);
width = 1274;
}
);
unicode = 007A;
},
{
glyphname = ordfeminine;
lastChange = "2016-07-06 09:50:25 +0000";
layers = (
{
layerId = UUID0;
paths = (
{
closed = 1;
nodes = (
"1268 750 LINE",
"1268 661 LINE",
"1265 559 LINE",
"1261 492 LINE",
"1258 439 LINE",
"1258 398 LINE",
"1258 380 LINE",
"1256 341 LINE",
"1247 309 LINE",
"1228 288 LINE",
"1211 288 LINE",
"1150 288 LINE",
"1066 290 LINE",
"994 292 LINE",
"925 294 LINE",
"879 294 LINE",
"855 294 LINE",
"818 298 LINE",
"793 316 LINE",
"780 352 LINE",
"780 384 LINE",
"780 387 LINE",
"781 411 LINE",
"782 437 LINE",
"781 456 LINE",
"779 454 LINE",
"743 392 LINE",
"669 320 LINE",
"599 284 LINE",
"535 274 LINE",
"507 274 LINE",
"414 274 LINE",
"263 327 LINE",
"156 447 LINE",
"97 640 LINE",
"97 780 LINE",
"97 865 LINE",
"142 992 LINE",
"217 1083 LINE",
"316 1142 LINE",
"423 1176 LINE",
"531 1190 LINE",
"579 1190 LINE",
"664 1190 LINE",
"807 1184 LINE",
"867 1184 LINE",
"930 1184 LINE",
"1103 1188 LINE",
"1221 1188 LINE",
"1238 1188 LINE",
"1268 1158 LINE",
"1268 1141 LINE"
);
},
{
closed = 1;
nodes = (
"796 714 LINE",
"795 799 LINE",
"786 867 LINE",
"782 895 LINE",
"770 950 LINE",
"753 994 LINE",
"729 1020 LINE",
"714 1020 LINE",
"679 1020 LINE",
"631 992 LINE",
"600 949 LINE",
"583 898 LINE",
"575 853 LINE",
"574 821 LINE",
"574 819 LINE",
"574 803 LINE",
"575 741 LINE",
"579 668 LINE",
"589 591 LINE",
"607 529 LINE",
"634 489 LINE",
"654 489 LINE",
"681 489 LINE",
"721 508 LINE",
"751 540 LINE",
"771 580 LINE",
"778 601 LINE",
"794 650 LINE"
);
}
);
width = 1386;
}
);
unicode = 00AA;
},
{
glyphname = pi;
lastChange = "2016-07-06 09:50:25 +0000";
layers = (
{
layerId = UUID0;
paths = (
{
closed = 1;
nodes = (
"294 786 LINE",
"161 786 LINE",
"135 786 LINE",
"107 846 LINE",
"94 930 LINE",
"92 1020 LINE",
"92 1049 LINE",
"92 1056 LINE",
"94 1098 LINE",
"96 1143 LINE",
"98 1179 LINE",
"98 1180 LINE",
"106 1188 LINE",
"124 1186 LINE",
"164 1186 LINE",
"184 1186 LINE",
"236 1186 LINE",
"334 1188 LINE",
"386 1188 LINE",
"392 1188 LINE",
"440 1188 LINE",
"507 1187 LINE",
"584 1187 LINE",
"654 1186 LINE",
"711 1186 LINE",
"724 1186 LINE",
"727 1187 LINE",
"743 1189 LINE",
"760 1191 LINE",
"776 1192 LINE",
"779 1192 LINE",
"798 1192 LINE",
"839 1189 LINE",
"860 1187 LINE",
"861 1188 LINE",
"873 1186 LINE",
"900 1186 LINE",
"914 1186 LINE",
"934 1186 LINE",
"998 1188 LINE",
"1033 1188 LINE",
"1047 1188 LINE",
"1074 1188 LINE",
"1086 1187 LINE",
"1118 1188 LINE",
"1179 1188 LINE",
"1211 1188 LINE",
"1215 1188 LINE",
"1252 1188 LINE",
"1303 1187 LINE",
"1362 1187 LINE",
"1416 1186 LINE",
"1459 1186 LINE",
"1469 1186 LINE",
"1472 1187 LINE",
"1488 1189 LINE",
"1505 1191 LINE",
"1521 1192 LINE",
"1524 1192 LINE",
"1536 1192 LINE",
"1559 1186 LINE",
"1573 1186 LINE",
"1589 1186 LINE",
"1665 1188 LINE",
"1708 1188 LINE",
"1731 1188 LINE",
"1774 1187 LINE",
"1807 1184 LINE",
"1827 1178 LINE",
"1827 1174 LINE",
"1827 823 LINE",
"1827 816 LINE",
"1802 802 LINE",
"1790 800 LINE",
"1776 798 LINE",
"1728 796 LINE",
"1704 796 LINE",
"1645 796 LINE",
"1645 785 LINE",
"1644 737 LINE",
"1644 677 LINE",
"1643 613 LINE",
"1643 588 LINE",
"1643 557 LINE",
"1645 497 LINE",
"1645 471 LINE",
"1645 436 LINE",
"1639 356 LINE",
"1633 276 LINE",
"1627 200 LINE",
"1627 170 LINE",
"1627 101 LINE",
"1620 31 LINE",
"1597 1 LINE",
"1554 -3 LINE",
"1518 -6 LINE",
"1471 -6 LINE",
"1394 -5 LINE",
"1313 -5 LINE",
"1218 -4 LINE",
"1152 -4 LINE",
"1143 8 LINE",
"1131 60 LINE",
"1124 137 LINE",
"1121 236 LINE",
"1121 295 LINE",
"1121 404 LINE",
"1124 659 LINE",
"1125 802 LINE",
"1117 800 LINE",
"1115 800 LINE",
"1084 798 LINE",
"985 796 LINE",
"937 796 LINE",
"820 796 LINE",
"820 785 LINE",
"819 737 LINE",
"819 677 LINE",
"818 613 LINE",
"818 588 LINE",
"818 557 LINE",
"820 497 LINE",
"820 471 LINE",
"820 436 LINE",
"814 356 LINE",
"808 276 LINE",
"802 200 LINE",
"802 170 LINE",
"802 101 LINE",
"795 31 LINE",
"772 1 LINE",
"729 -3 LINE",
"693 -6 LINE",
"646 -6 LINE",
"569 -5 LINE",
"488 -5 LINE",
"393 -4 LINE",
"327 -4 LINE",
"318 8 LINE",
"306 60 LINE",
"299 137 LINE",
"296 236 LINE",
"296 295 LINE",
"296 398 LINE",
"300 644 LINE",
"300 780 LINE"
);
}
);
width = 1920;
}
);
unicode = 03C0;
},
{
glyphname = zero;
lastChange = "2016-07-06 09:50:25 +0000";
layers = (
{
layerId = UUID0;
paths = (
{
closed = 1;
nodes = (
"385 14 LINE",
"362 25 LINE",
"318 44 LINE",
"295 55 LINE",
"282 69 LINE",
"251 87 LINE",
"237 98 LINE",
"206 124 LINE",
"161 199 LINE",
"129 286 LINE",
"110 380 LINE",
"100 471 LINE",
"96 554 LINE",
"96 586 LINE",
"96 637 LINE",
"103 726 LINE",
"117 812 LINE",
"138 900 LINE",
"153 950 LINE",
"165 959 LINE",
"190 1005 LINE",
"212 1053 LINE",
"233 1090 LINE",
"241 1090 LINE",
"250 1091 LINE",
"275 1109 LINE",
"302 1133 LINE",
"331 1159 LINE",
"344 1167 LINE",
"376 1188 LINE",
"448 1210 LINE",
"524 1221 LINE",
"601 1226 LINE",
"639 1231 LINE",
"693 1229 LINE",
"804 1221 LINE",
"910 1209 LINE",
"1007 1192 LINE",
"1046 1182 LINE",
"1044 1183 LINE",
"1089 1170 LINE",
"1146 1150 LINE",
"1194 1124 LINE",
"1194 1112 LINE",
"1194 1094 LINE",
"1217 1094 LINE",
"1266 1052 LINE",
"1307 992 LINE",
"1333 927 LINE",
"1333 905 LINE",
"1350 905 LINE",
"1356 901 LINE",
"1356 887 LINE",
"1367 845 LINE",
"1388 765 LINE",
"1399 723 LINE",
"1399 721 LINE",
"1401 693 LINE",
"1403 652 LINE",
"1405 603 LINE",
"1405 580 LINE",
"1405 522 LINE",
"1398 398 LINE",
"1371 280 LINE",
"1318 173 LINE",
"1272 133 LINE",
"1240 105 LINE",
"1166 60 LINE",
"1132 35 LINE",
"1087 19 LINE",
"999 -13 LINE",
"954 -29 LINE",
"876 -29 LINE",
"715 -49 LINE",
"635 -49 LINE",
"628 -49 LINE",
"586 -43 LINE",
"533 -34 LINE",
"473 -21 LINE",
"422 -7 LINE",
"387 7 LINE"
);
},
{
closed = 1;
nodes = (
"676 311 LINE",
"677 303 LINE",
"697 281 LINE",
"723 261 LINE",
"747 248 LINE",
"753 248 LINE",
"791 248 LINE",
"833 280 LINE",
"854 325 LINE",
"859 375 LINE",
"860 393 LINE",
"861 422 LINE",
"865 484 LINE",
"868 544 LINE",
"870 598 LINE",
"870 621 LINE",
"870 682 LINE",
"840 794 LINE",
"821 856 LINE",
"818 887 LINE",
"793 934 LINE",
"758 934 LINE",
"724 934 LINE",
"685 896 LINE",
"665 840 LINE",
"658 779 LINE",
"655 756 LINE",
"649 706 LINE",
"626 606 LINE",
"626 555 LINE",
"626 518 LINE",
"632 456 LINE",
"645 398 LINE",
"664 342 LINE"
);
}
);
width = 1496;
}
);
unicode = 0030;
},
{
glyphname = one;
lastChange = "2016-07-06 09:50:25 +0000";
layers = (
{
layerId = UUID0;
paths = (
{
closed = 1;
nodes = (
"974 682 LINE",
"974 451 LINE",
"974 404 LINE",
"971 320 LINE",
"966 241 LINE",
"963 165 LINE",
"963 125 LINE",
"963 105 LINE",
"960 61 LINE",
"949 24 LINE",
"927 0 LINE",
"908 0 LINE",
"845 0 LINE",
"747 1 LINE",
"665 2 LINE",
"594 4 LINE",
"523 5 LINE",
"445 6 LINE",
"398 6 LINE",
"371 6 LINE",
"329 11 LINE",
"301 32 LINE",
"286 74 LINE",
"286 111 LINE",
"286 114 LINE",
"289 141 LINE",
"293 173 LINE",
"296 201 LINE",
"296 205 LINE",
"296 211 LINE",
"293 243 LINE",
"289 278 LINE",
"286 305 LINE",
"286 307 LINE",
"285 338 LINE",
"285 427 LINE",
"284 523 LINE",
"283 617 LINE",
"282 692 LINE",
"279 739 LINE",
"277 739 LINE",
"266 739 LINE",
"236 705 LINE",
"198 663 LINE",
"152 629 LINE",
"126 629 LINE",
"106 629 LINE",
"75 656 LINE",
"75 670 LINE",
"75 1063 LINE",
"75 1068 LINE",
"88 1078 LINE",
"114 1093 LINE",
"153 1116 LINE",
"179 1133 LINE",
"236 1170 LINE",
"297 1190 LINE",
"312 1190 LINE",
"398 1190 LINE",
"546 1189 LINE",
"688 1187 LINE",
"835 1186 LINE",
"920 1186 LINE",
"929 1186 LINE",
"949 1176 LINE",
"964 1161 LINE",
"974 1142 LINE",
"974 1133 LINE"
);
}
);
width = 1092;
}
);
unicode = 0031;
},
{
glyphname = two;
lastChange = "2016-07-06 09:50:25 +0000";
layers = (
{
layerId = UUID0;
paths = (
{
closed = 1;
nodes = (
"610 1 LINE",
"565 1 LINE",
"478 0 LINE",
"436 0 LINE",
"368 0 LINE",
"247 4 LINE",
"157 16 LINE",
"104 40 LINE",
"104 61 LINE",
"104 93 LINE",
"134 145 LINE",
"157 168 LINE",
"157 165 LINE",
"187 196 LINE",
"235 251 LINE",
"295 324 LINE",
"353 400 LINE",
"405 474 LINE",
"422 503 LINE",
"434 519 LINE",
"463 569 LINE",
"488 626 LINE",
"506 685 LINE",
"506 711 LINE",
"506 738 LINE",
"491 778 LINE",
"457 803 LINE",
"399 816 LINE",
"356 816 LINE",
"325 816 LINE",
"273 809 LINE",
"220 794 LINE",
"163 771 LINE",
"127 754 LINE",
"125 754 LINE",
"120 800 LINE",
"114 870 LINE",
"108 954 LINE",
"103 1031 LINE",
"100 1089 LINE",
"100 1098 LINE",
"100 1106 LINE",
"101 1109 LINE",
"191 1150 LINE",
"243 1169 LINE",
"359 1197 LINE",
"478 1215 LINE",
"597 1224 LINE",
"651 1224 LINE",
"747 1224 LINE",
"931 1184 LINE",
"1077 1092 LINE",
"1166 943 LINE",
"1166 835 LINE",
"1166 727 LINE",
"1024 523 LINE",
"873 413 LINE",
"919 413 LINE",
"997 415 LINE",
"1042 415 LINE",
"1062 415 LINE",
"1106 412 LINE",
"1143 401 LINE",
"1167 379 LINE",
"1167 360 LINE",
"1167 315 LINE",
"1165 253 LINE",
"1163 202 LINE",
"1161 152 LINE",
"1161 120 LINE",
"1161 93 LINE",
"1156 51 LINE",
"1136 23 LINE",
"1093 8 LINE",
"1056 8 LINE",
"1054 4 LINE",
"1003 0 LINE",
"925 -1 LINE",
"827 -1 LINE",
"729 0 LINE",
"640 1 LINE"
);
}
);
width = 1269;
}
);
unicode = 0032;
},
{
glyphname = three;
lastChange = "2016-07-06 09:50:25 +0000";
layers = (
{
layerId = UUID0;
paths = (
{
closed = 1;
nodes = (
"1155 383 LINE",
"1155 293 LINE",
"1125 160 LINE",
"1082 70 LINE",
"1035 21 LINE",
"1018 14 LINE",
"963 -14 LINE",
"844 -44 LINE",
"721 -57 LINE",
"595 -59 LINE",
"534 -59 LINE",
"527 -59 LINE",
"486 -55 LINE",
"434 -47 LINE",
"376 -38 LINE",
"327 -27 LINE",
"292 -16 LINE",
"290 -11 LINE",
"267 -3 LINE",
"222 7 LINE",
"202 19 LINE",
"188 27 LINE",
"160 44 LINE",
"146 52 LINE",
"166 333 LINE",
"228 319 LINE",
"353 299 LINE",
"406 299 LINE",
"439 299 LINE",
"494 310 LINE",
"535 335 LINE",
"557 377 LINE",
"557 407 LINE",
"557 449 LINE",
"486 488 LINE",
"430 493 LINE",
"387 493 LINE",
"307 490 LINE",
"262 486 LINE",
"260 708 LINE",
"278 708 LINE",
"316 707 LINE",
"336 707 LINE",
"369 707 LINE",
"429 713 LINE",
"476 734 LINE",
"504 774 LINE",
"504 809 LINE",
"504 834 LINE",
"482 867 LINE",
"441 888 LINE",
"386 897 LINE",
"353 897 LINE",
"300 897 LINE",
"175 860 LINE",
"113 833 LINE",
"93 1124 LINE",
"141 1146 LINE",
"260 1183 LINE",
"392 1209 LINE",
"533 1224 LINE",
"604 1224 LINE",
"639 1222 LINE",
"712 1217 LINE",
"782 1208 LINE",
"845 1196 LINE",
"871 1189 LINE",
"869 1190 LINE",
"899 1181 LINE",
"937 1167 LINE",
"968 1149 LINE",
"968 1140 LINE",
"968 1127 LINE",
"989 1127 LINE",
"1023 1090 LINE",
"1050 1041 LINE",
"1070 993 LINE",
"1075 982 LINE",
"1088 954 LINE",
"1095 895 LINE",
"1103 866 LINE",
"1103 837 LINE",
"1088 774 LINE",
"1059 715 LINE",
"1017 663 LINE",
"991 646 LINE",
"1068 601 LINE",
"1155 470 LINE"
);
}
);
width = 1246;
}
);
unicode = 0033;
},
{
glyphname = four;
lastChange = "2016-07-06 09:50:25 +0000";
layers = (
{
layerId = UUID0;
paths = (
{
closed = 1;
nodes = (
"440 1266 LINE",
"462 1266 LINE",
"531 1265 LINE",
"604 1263 LINE",
"670 1261 LINE",
"688 1260 LINE",
"700 1267 LINE",
"745 1270 LINE",
"758 1270 LINE",
"800 1270 LINE",
"879 1264 LINE",
"924 1264 LINE",
"926 1266 LINE",
"930 1266 LINE",
"932 1268 LINE",
"1010 1268 LINE",
"1012 1266 LINE",
"1020 1264 LINE",
"1022 1264 LINE",
"1024 1264 LINE",
"1032 1265 LINE",
"1037 1266 LINE",
"1042 1267 LINE",
"1050 1268 LINE",
"1055 1268 LINE",
"1073 1264 LINE",
"1075 1264 LINE",
"1085 1265 LINE",
"1115 1264 LINE",
"1146 1263 LINE",
"1176 1262 LINE",
"1186 1262 LINE",
"1206 1262 LINE",
"1212 1203 LINE",
"1206 1111 LINE",
"1201 999 LINE",
"1210 946 LINE",
"1211 944 LINE",
"1208 893 LINE",
"1204 789 LINE",
"1200 631 LINE",
"1200 522 LINE",
"1200 485 LINE",
"1345 485 LINE",
"1372 485 LINE",
"1401 437 LINE",
"1415 371 LINE",
"1417 301 LINE",
"1417 279 LINE",
"1417 272 LINE",
"1415 228 LINE",
"1413 181 LINE",
"1411 144 LINE",
"1411 143 LINE",
"1406 136 LINE",
"1384 129 LINE",
"1357 126 LINE",
"1329 125 LINE",
"1319 125 LINE",
"1288 125 LINE",
"1227 125 LINE",
"1196 123 LINE",
"1192 90 LINE",
"1189 50 LINE",
"1190 -15 LINE",
"1185 -62 LINE",
"1166 -88 LINE",
"1143 -88 LINE",
"1141 -88 LINE",
"1138 -84 LINE",
"1136 -84 LINE",
"1133 -84 LINE",
"1125 -86 LINE",
"1121 -87 LINE",
"1117 -89 LINE",
"1112 -90 LINE",
"1097 -90 LINE",
"1077 -88 LINE",
"1064 -86 LINE",
"1053 -84 LINE",
"1046 -84 LINE",
"1044 -84 LINE",
"1036 -88 LINE",
"1034 -90 LINE",
"901 -90 LINE",
"899 -90 LINE",
"873 -96 LINE",
"840 -103 LINE",
"810 -109 LINE",
"805 -109 LINE",
"786 -109 LINE",
"768 -71 LINE",
"760 -21 LINE",
"759 28 LINE",
"758 39 LINE",
"754 115 LINE",
"745 115 LINE",
"671 115 LINE",
"530 115 LINE",
"387 114 LINE",
"239 111 LINE",
"160 109 LINE",
"130 110 LINE",
"93 120 LINE",
"74 132 LINE",
"67 145 LINE",
"67 150 LINE",
"67 216 LINE",
"67 301 LINE",
"71 364 LINE",
"79 418 LINE",
"96 485 LINE",
"123 578 LINE",
"143 649 LINE",
"142 648 LINE",
"167 710 LINE",
"209 811 LINE",
"263 939 LINE",
"321 1071 LINE",
"380 1194 LINE",
"405 1239 LINE",
"412 1245 LINE",
"431 1259 LINE"
);
},
{
closed = 1;
nodes = (
"536 489 LINE",
"583 489 LINE",
"682 487 LINE",
"733 487 LINE",
"733 518 LINE",
"733 1026 LINE",
"718 985 LINE",
"683 888 LINE",
"646 787 LINE",
"609 685 LINE",
"575 593 LINE",
"546 516 LINE"
);
}
);
width = 1490;
}
);
unicode = 0034;
},
{
glyphname = five;
lastChange = "2016-07-06 09:50:25 +0000";
layers = (
{
layerId = UUID0;
paths = (
{
closed = 1;
nodes = (
"1109 403 LINE",
"1109 308 LINE",
"1079 167 LINE",
"1036 73 LINE",
"989 21 LINE",
"972 14 LINE",
"917 -14 LINE",
"798 -44 LINE",
"675 -57 LINE",
"549 -59 LINE",
"488 -59 LINE",
"481 -59 LINE",
"440 -55 LINE",
"388 -47 LINE",
"330 -38 LINE",
"281 -27 LINE",
"246 -16 LINE",
"244 -11 LINE",
"221 -3 LINE",
"176 7 LINE",
"156 19 LINE",
"100 52 LINE",
"113 121 LINE",
"110 194 LINE",
"114 251 LINE",
"120 333 LINE",
"182 319 LINE",
"307 299 LINE",
"360 299 LINE",
"393 299 LINE",
"448 310 LINE",
"489 335 LINE",
"511 377 LINE",
"511 407 LINE",
"511 449 LINE",
"440 488 LINE",
"384 493 LINE",
"330 493 LINE",
"226 490 LINE",
"166 486 LINE",
"159 568 LINE",
"161 602 LINE",
"162 627 LINE",
"162 646 LINE",
"162 663 LINE",
"162 689 LINE",
"163 690 LINE",
"162 741 LINE",
"162 749 LINE",
"152 811 LINE",
"152 877 LINE",
"152 1171 LINE",
"152 1174 LINE",
"162 1189 LINE",
"167 1192 LINE",
"172 1192 LINE",
"178 1190 LINE",
"183 1190 LINE",
"208 1190 LINE",
"253 1200 LINE",
"279 1200 LINE",
"318 1200 LINE",
"396 1192 LINE",
"439 1192 LINE",
"447 1198 LINE",
"537 1198 LINE",
"539 1196 LINE",
"550 1192 LINE",
"552 1192 LINE",
"553 1192 LINE",
"564 1194 LINE",
"576 1196 LINE",
"586 1198 LINE",
"587 1198 LINE",
"592 1198 LINE",
"612 1194 LINE",
"615 1192 LINE",
"938 1192 LINE",
"940 1190 LINE",
"951 1186 LINE",
"953 1186 LINE",
"955 1186 LINE",
"971 1188 LINE",
"989 1190 LINE",
"1005 1192 LINE",
"1007 1192 LINE",
"1020 1192 LINE",
"1037 1148 LINE",
"1048 1076 LINE",
"1053 984 LINE",
"1053 936 LINE",
"1053 924 LINE",
"1032 914 LINE",
"1003 910 LINE",
"971 911 LINE",
"961 911 LINE",
"939 911 LINE",
"919 911 LINE",
"896 908 LINE",
"875 905 LINE",
"848 903 LINE",
"826 903 LINE",
"806 903 LINE",
"767 903 LINE",
"761 905 LINE",
"747 897 LINE",
"747 889 LINE",
"731 826 LINE",
"727 760 LINE",
"770 755 LINE",
"849 742 LINE",
"880 733 LINE",
"878 734 LINE",
"908 725 LINE",
"946 711 LINE",
"977 693 LINE",
"977 684 LINE",
"977 671 LINE",
"998 671 LINE",
"1032 634 LINE",
"1059 585 LINE",
"1079 537 LINE",
"1084 526 LINE",
"1090 514 LINE",
"1100 483 LINE",
"1106 449 LINE",
"1109 416 LINE"
);
}
);
width = 1205;
}
);
unicode = 0035;
},
{
glyphname = six;
lastChange = "2016-07-06 09:50:25 +0000";
layers = (
{
layerId = UUID0;
paths = (
{
closed = 1;
nodes = (
"717 745 LINE",
"782 767 LINE",
"905 787 LINE",
"963 787 LINE",
"1036 787 LINE",
"1165 756 LINE",
"1217 724 LINE",
"1297 678 LINE",
"1390 522 LINE",
"1390 414 LINE",
"1390 306 LINE",
"1289 142 LINE",
"1120 33 LINE",
"901 -22 LINE",
"783 -22 LINE",
"698 -22 LINE",
"529 12 LINE",
"374 82 LINE",
"240 186 LINE",
"141 326 LINE",
"85 502 LINE",
"85 608 LINE",
"85 687 LINE",
"99 830 LINE",
"124 893 LINE",
"152 965 LINE",
"247 1090 LINE",
"301 1139 LINE",
"404 1206 LINE",
"675 1276 LINE",
"840 1276 LINE",
"908 1276 LINE",
"1045 1255 LINE",
"1119 1234 LINE",
"1151 1222 LINE",
"1219 1197 LINE",
"1248 1174 LINE",
"1256 1168 LINE",
"1280 1158 LINE",
"1295 1129 LINE",
"1290 1068 LINE",
"1269 1010 LINE",
"1251 968 LINE",
"1229 914 LINE",
"1204 884 LINE",
"1169 878 LINE",
"1139 885 LINE",
"1101 897 LINE",
"1011 914 LINE",
"965 914 LINE",
"904 914 LINE",
"820 895 LINE",
"766 865 LINE",
"736 828 LINE",
"722 790 LINE",
"718 756 LINE"
);
},
{
closed = 1;
nodes = (
"874 308 LINE",
"920 308 LINE",
"981 354 LINE",
"981 407 LINE",
"981 451 LINE",
"926 484 LINE",
"887 484 LINE",
"858 484 LINE",
"802 473 LINE",
"780 467 LINE",
"754 460 LINE",
"731 451 LINE",
"751 373 LINE",
"826 308 LINE"
);
}
);
width = 1476;
}
);
unicode = 0036;
},
{
glyphname = seven;
lastChange = "2016-07-06 09:50:25 +0000";
layers = (
{
layerId = UUID0;
paths = (
{
closed = 1;
nodes = (
"479 707 LINE",
"424 708 LINE",
"334 711 LINE",
"256 712 LINE",
"186 713 LINE",
"151 713 LINE",
"122 713 LINE",
"91 780 LINE",
"76 874 LINE",
"74 972 LINE",
"74 1004 LINE",
"74 1011 LINE",
"76 1058 LINE",
"78 1108 LINE",
"80 1148 LINE",
"80 1149 LINE",
"85 1156 LINE",
"110 1165 LINE",
"139 1168 LINE",
"169 1169 LINE",
"180 1169 LINE",
"242 1169 LINE",
"356 1182 LINE",
"418 1182 LINE",
"579 1182 LINE",
"893 1183 LINE",
"1061 1188 LINE",
"1092 1186 LINE",
"1132 1175 LINE",
"1153 1162 LINE",
"1161 1148 LINE",
"1161 1143 LINE",
"1161 815 LINE",
"1161 787 LINE",
"1138 724 LINE",
"1095 636 LINE",
"1034 515 LINE",
"995 430 LINE",
"990 418 LINE",
"969 363 LINE",
"929 270 LINE",
"865 137 LINE",
"817 49 LINE",
"766 -45 LINE",
"755 -65 LINE",
"741 -87 LINE",
"729 -106 LINE",
"692 -155 LINE",
"668 -180 LINE",
"661 -186 LINE",
"639 -197 LINE",
"627 -197 LINE",
"597 -197 LINE",
"509 -163 LINE",
"413 -110 LINE",
"317 -45 LINE",
"241 19 LINE",
"194 75 LINE",
"194 92 LINE",
"194 96 LINE",
"216 146 LINE",
"252 224 LINE",
"299 323 LINE",
"349 429 LINE",
"399 533 LINE",
"442 623 LINE",
"473 691 LINE"
);
}
);
width = 1226;
}
);
unicode = 0037;
},
{
glyphname = eight;
lastChange = "2016-07-06 09:50:25 +0000";
layers = (
{
layerId = UUID0;
paths = (
{
closed = 1;
nodes = (
"99 383 LINE",
"99 426 LINE",
"108 502 LINE",
"134 568 LINE",
"182 623 LINE",
"220 646 LINE",
"194 663 LINE",
"152 715 LINE",
"123 774 LINE",
"108 837 LINE",
"108 866 LINE",
"108 923 LINE",
"141 1025 LINE",
"172 1068 LINE",
"185 1085 LINE",
"214 1105 LINE",
"231 1119 LINE",
"249 1133 LINE",
"293 1165 LINE",
"315 1174 LINE",
"370 1202 LINE",
"494 1228 LINE",
"625 1235 LINE",
"759 1232 LINE",
"823 1232 LINE",
"863 1232 LINE",
"950 1226 LINE",
"1032 1212 LINE",
"1108 1189 LINE",
"1138 1171 LINE",
"1210 1143 LINE",
"1304 1072 LINE",
"1323 1043 LINE",
"1345 1004 LINE",
"1371 913 LINE",
"1371 870 LINE",
"1371 841 LINE",
"1358 777 LINE",
"1332 716 LINE",
"1292 663 LINE",
"1266 646 LINE",
"1343 601 LINE",
"1430 470 LINE",
"1430 383 LINE",
"1430 321 LINE",
"1416 268 LINE",
"1398 201 LINE",
"1320 106 LINE",
"1266 73 LINE",
"1237 55 LINE",
"1171 28 LINE",
"1134 17 LINE",
"1120 13 LINE",
"1091 6 LINE",
"1076 3 LINE",
"1056 -2 LINE",
"1014 -2 LINE",
"992 -5 LINE",
"972 -7 LINE",
"931 -16 LINE",
"911 -18 LINE",
"879 -20 LINE",
"813 -22 LINE",
"779 -22 LINE",
"724 -22 LINE",
"616 -16 LINE",
"562 -9 LINE",
"474 2 LINE",
"325 48 LINE",
"260 86 LINE",
"249 92 LINE",
"217 105 LINE",
"208 112 LINE",
"172 135 LINE",
"128 192 LINE",
"106 259 LINE",
"99 338 LINE"
);
},
{
closed = 1;
nodes = (
"741 546 LINE",
"717 546 LINE",
"684 476 LINE",
"684 397 LINE",
"684 329 LINE",
"698 249 LINE",
"722 209 LINE",
"755 198 LINE",
"774 198 LINE",
"790 198 LINE",
"819 210 LINE",
"840 250 LINE",
"852 329 LINE",
"852 397 LINE",
"852 476 LINE",
"809 546 LINE",
"775 546 LINE"
);
},
{
closed = 1;
nodes = (
"743 1007 LINE",
"732 1006 LINE",
"702 1001 LINE",
"675 971 LINE",
"657 907 LINE",
"657 849 LINE",
"657 801 LINE",
"671 745 LINE",
"695 715 LINE",
"727 707 LINE",
"745 707 LINE",
"764 707 LINE",
"796 718 LINE",
"817 750 LINE",
"829 805 LINE",
"829 849 LINE",
"829 903 LINE",
"813 964 LINE",
"788 996 LINE",
"758 1005 LINE"
);
}
);
width = 1520;
}
);
unicode = 0038;
},
{
glyphname = nine;
lastChange = "2016-07-06 09:50:25 +0000";
layers = (
{
layerId = UUID0;
paths = (
{
closed = 1;
nodes = (
"759 509 LINE",
"694 487 LINE",
"571 467 LINE",
"513 467 LINE",
"440 467 LINE",
"311 498 LINE",
"259 530 LINE",
"179 576 LINE",
"86 732 LINE",
"86 840 LINE",
"86 948 LINE",
"187 1112 LINE",
"356 1221 LINE",
"575 1276 LINE",
"693 1276 LINE",
"778 1276 LINE",
"947 1242 LINE",
"1102 1172 LINE",
"1236 1068 LINE",
"1335 928 LINE",
"1391 752 LINE",
"1391 646 LINE",
"1391 567 LINE",
"1377 424 LINE",
"1352 361 LINE",
"1324 289 LINE",
"1229 164 LINE",
"1175 115 LINE",
"1072 48 LINE",
"801 -22 LINE",
"636 -22 LINE",
"568 -22 LINE",
"431 -1 LINE",
"357 20 LINE",
"325 32 LINE",
"257 57 LINE",
"228 80 LINE",
"220 86 LINE",
"196 96 LINE",
"181 125 LINE",
"186 186 LINE",
"207 244 LINE",
"225 286 LINE",
"247 340 LINE",
"272 370 LINE",
"307 376 LINE",
"337 369 LINE",
"375 357 LINE",
"465 340 LINE",
"511 340 LINE",
"572 340 LINE",
"656 359 LINE",
"710 389 LINE",
"740 426 LINE",
"754 464 LINE",
"758 498 LINE"
);
},
{
closed = 1;
nodes = (
"602 946 LINE",
"556 946 LINE",
"495 900 LINE",
"495 847 LINE",
"495 825 LINE",
"510 796 LINE",
"535 778 LINE",
"569 770 LINE",
"589 770 LINE",
"618 770 LINE",
"674 780 LINE",
"696 786 LINE",
"722 793 LINE",
"745 803 LINE",
"725 881 LINE",
"650 946 LINE"
);
}
);
width = 1476;
}
);
unicode = 0039;
},
{
glyphname = onesuperior;
lastChange = "2016-07-06 09:50:25 +0000";
layers = (
{
layerId = UUID0;
paths = (
{
closed = 1;
nodes = (
"679 1005 LINE",
"679 850 LINE",
"679 787 LINE",
"671 684 LINE",
"671 631 LINE",
"671 617 LINE",
"669 588 LINE",
"662 563 LINE",
"647 547 LINE",
"634 547 LINE",
"571 547 LINE",
"484 548 LINE",
"411 550 LINE",
"340 551 LINE",
"292 551 LINE",
"274 551 LINE",
"245 554 LINE",
"226 568 LINE",
"216 597 LINE",
"216 622 LINE",
"216 624 LINE",
"218 642 LINE",
"221 663 LINE",
"223 682 LINE",
"223 685 LINE",
"223 689 LINE",
"221 711 LINE",
"218 734 LINE",
"216 752 LINE",
"216 753 LINE",
"215 774 LINE",
"215 833 LINE",
"215 898 LINE",
"214 962 LINE",
"213 1013 LINE",
"211 1044 LINE",
"210 1044 LINE",
"203 1044 LINE",
"183 1021 LINE",
"157 993 LINE",
"126 970 LINE",
"109 970 LINE",
"95 970 LINE",
"75 988 LINE",
"75 997 LINE",
"75 1262 LINE",
"75 1269 LINE",
"110 1286 LINE",
"145 1309 LINE",
"183 1334 LINE",
"223 1347 LINE",
"234 1347 LINE",
"292 1347 LINE",
"391 1346 LINE",
"487 1345 LINE",
"585 1344 LINE",
"642 1344 LINE",
"655 1344 LINE",
"679 1321 LINE",
"679 1309 LINE"
);
}
);
width = 796;
}
);
unicode = 00B9;
},
{
glyphname = twosuperior;
lastChange = "2016-07-06 09:50:25 +0000";
layers = (
{
layerId = UUID0;
paths = (
{
closed = 1;
nodes = (
"471 487 LINE",
"439 487 LINE",
"376 486 LINE",
"345 486 LINE",
"295 486 LINE",
"208 489 LINE",
"142 498 LINE",
"104 516 LINE",
"104 531 LINE",
"104 553 LINE",
"126 591 LINE",
"143 609 LINE",
"143 607 LINE",
"165 629 LINE",
"200 669 LINE",
"243 721 LINE",
"286 776 LINE",
"324 830 LINE",
"336 851 LINE",
"344 863 LINE",
"364 899 LINE",
"382 940 LINE",
"395 983 LINE",
"395 1002 LINE",
"395 1042 LINE",
"350 1079 LINE",
"288 1079 LINE",
"265 1079 LINE",
"226 1074 LINE",
"189 1063 LINE",
"147 1047 LINE",
"121 1035 LINE",
"120 1035 LINE",
"116 1068 LINE",
"111 1119 LINE",
"107 1180 LINE",
"103 1235 LINE",
"101 1276 LINE",
"101 1283 LINE",
"101 1290 LINE",
"102 1292 LINE",
"167 1322 LINE",
"205 1336 LINE",
"289 1356 LINE",
"376 1369 LINE",
"462 1375 LINE",
"502 1375 LINE",
"571 1375 LINE",
"705 1346 LINE",
"810 1279 LINE",
"875 1171 LINE",
"875 1093 LINE",
"875 1015 LINE",
"772 867 LINE",
"662 786 LINE",
"695 786 LINE",
"753 788 LINE",
"786 788 LINE",
"800 788 LINE",
"832 786 LINE",
"859 777 LINE",
"876 761 LINE",
"876 748 LINE",
"876 715 LINE",
"874 670 LINE",
"873 633 LINE",
"871 598 LINE",
"871 574 LINE",
"871 554 LINE",
"868 524 LINE",
"854 503 LINE",
"823 492 LINE",
"796 492 LINE",
"794 489 LINE",
"757 486 LINE",
"700 485 LINE",
"629 485 LINE",
"558 486 LINE",
"493 487 LINE"
);
}
);
width = 978;
}
);
unicode = 00B2;
},
{
glyphname = threesuperior;
lastChange = "2016-07-06 09:50:25 +0000";
layers = (
{
layerId = UUID0;
paths = (
{
closed = 1;
nodes = (
"873 761 LINE",
"873 695 LINE",
"851 597 LINE",
"820 531 LINE",
"785 494 LINE",
"773 489 LINE",
"732 469 LINE",
"645 447 LINE",
"553 437 LINE",
"461 436 LINE",
"416 436 LINE",
"408 436 LINE",
"353 443 LINE",
"291 453 LINE",
"240 465 LINE",
"237 471 LINE",
"220 477 LINE",
"187 484 LINE",
"172 493 LINE",
"150 506 LINE",
"132 518 LINE",
"146 724 LINE",
"191 713 LINE",
"284 699 LINE",
"322 699 LINE",
"371 699 LINE",
"433 734 LINE",
"433 778 LINE",
"433 809 LINE",
"381 838 LINE",
"340 841 LINE",
"308 841 LINE",
"249 839 LINE",
"216 837 LINE",
"215 999 LINE",
"229 999 LINE",
"256 998 LINE",
"271 998 LINE",
"295 998 LINE",
"339 1003 LINE",
"374 1018 LINE",
"394 1048 LINE",
"394 1074 LINE",
"394 1111 LINE",
"332 1138 LINE",
"283 1138 LINE",
"245 1138 LINE",
"152 1112 LINE",
"107 1092 LINE",
"92 1305 LINE",
"128 1321 LINE",
"215 1349 LINE",
"313 1368 LINE",
"416 1379 LINE",
"468 1379 LINE",
"521 1377 LINE",
"626 1365 LINE",
"664 1354 LINE",
"663 1354 LINE",
"685 1348 LINE",
"712 1337 LINE",
"735 1323 LINE",
"735 1317 LINE",
"735 1307 LINE",
"750 1307 LINE",
"776 1280 LINE",
"796 1244 LINE",
"811 1209 LINE",
"815 1201 LINE",
"824 1180 LINE",
"830 1138 LINE",
"835 1116 LINE",
"835 1095 LINE",
"824 1048 LINE",
"803 1004 LINE",
"772 966 LINE",
"753 954 LINE",
"810 921 LINE",
"873 824 LINE"
);
}
);
width = 964;
}
);
unicode = 00B3;
},
{
glyphname = foursuperior;
lastChange = "2016-07-06 09:50:25 +0000";
layers = (
{
layerId = UUID0;
paths = (
{
closed = 1;
nodes = (
"324 1368 LINE",
"339 1368 LINE",
"387 1367 LINE",
"437 1366 LINE",
"483 1364 LINE",
"495 1364 LINE",
"504 1369 LINE",
"535 1371 LINE",
"544 1371 LINE",
"573 1371 LINE",
"627 1367 LINE",
"659 1367 LINE",
"660 1368 LINE",
"663 1368 LINE",
"664 1369 LINE",
"718 1369 LINE",
"719 1368 LINE",
"725 1367 LINE",
"726 1367 LINE",
"727 1367 LINE",
"733 1367 LINE",
"737 1368 LINE",
"741 1368 LINE",
"746 1369 LINE",
"750 1369 LINE",
"762 1367 LINE",
"763 1367 LINE",
"770 1367 LINE",
"791 1367 LINE",
"812 1366 LINE",
"833 1365 LINE",
"840 1365 LINE",
"853 1365 LINE",
"857 1324 LINE",
"854 1261 LINE",
"850 1183 LINE",
"856 1147 LINE",
"857 1144 LINE",
"849 1005 LINE",
"849 854 LINE",
"849 828 LINE",
"950 828 LINE",
"968 828 LINE",
"988 795 LINE",
"997 750 LINE",
"999 701 LINE",
"999 686 LINE",
"999 681 LINE",
"998 651 LINE",
"996 618 LINE",
"995 592 LINE",
"995 592 LINE",
"992 587 LINE",
"977 582 LINE",
"958 579 LINE",
"939 579 LINE",
"932 579 LINE",
"910 579 LINE",
"868 579 LINE",
"847 578 LINE",
"844 555 LINE",
"842 528 LINE",
"842 482 LINE",
"839 450 LINE",
"826 432 LINE",
"810 432 LINE",
"809 432 LINE",
"807 435 LINE",
"805 435 LINE",
"801 435 LINE",
"795 433 LINE",
"789 431 LINE",
"767 431 LINE",
"753 435 LINE",
"743 435 LINE",
"742 435 LINE",
"736 432 LINE",
"735 431 LINE",
"643 431 LINE",
"642 431 LINE",
"623 427 LINE",
"601 422 LINE",
"580 418 LINE",
"576 418 LINE",
"563 418 LINE",
"550 444 LINE",
"546 479 LINE",
"545 512 LINE",
"544 520 LINE",
"541 572 LINE",
"535 572 LINE",
"433 572 LINE",
"239 571 LINE",
"130 568 LINE",
"89 570 LINE",
"66 590 LINE",
"66 597 LINE",
"66 642 LINE",
"66 701 LINE",
"69 745 LINE",
"74 782 LINE",
"86 828 LINE",
"105 893 LINE",
"119 942 LINE",
"118 941 LINE",
"135 984 LINE",
"164 1054 LINE",
"202 1142 LINE",
"242 1233 LINE",
"283 1318 LINE",
"300 1349 LINE",
"305 1354 LINE",
"318 1363 LINE"
);
},
{
closed = 1;
nodes = (
"390 831 LINE",
"422 831 LINE",
"492 830 LINE",
"527 830 LINE",
"527 851 LINE",
"527 1202 LINE",
"512 1160 LINE",
"473 1054 LINE",
"435 950 LINE",
"401 859 LINE"
);
}
);
width = 1072;
}
);
unicode = 2074;
},
{
glyphname = fraction;
lastChange = "2016-07-06 09:50:25 +0000";
layers = (
{
layerId = UUID0;
paths = (
{
closed = 1;
nodes = (
"454 1319 LINE",
"460 1339 LINE",
"469 1362 LINE",
"477 1382 LINE",
"501 1432 LINE",
"519 1460 LINE",
"527 1466 LINE",
"549 1479 LINE",
"566 1479 LINE",
"599 1480 LINE",
"697 1460 LINE",
"805 1426 LINE",
"914 1383 LINE",
"1002 1339 LINE",
"1060 1299 LINE",
"1064 1286 LINE",
"1064 1280 LINE",
"1048 1222 LINE",
"1023 1139 LINE",
"991 1040 LINE",
"961 947 LINE",
"935 869 LINE",
"929 848 LINE",
"921 823 LINE",
"894 744 LINE",
"862 648 LINE",
"826 544 LINE",
"790 443 LINE",
"756 354 LINE",
"742 322 LINE",
"658 80 LINE",
"652 60 LINE",
"643 37 LINE",
"635 17 LINE",
"612 -34 LINE",
"595 -61 LINE",
"584 -75 LINE",
"561 -80 LINE",
"546 -80 LINE",
"513 -82 LINE",
"415 -62 LINE",
"307 -28 LINE",
"198 16 LINE",
"110 60 LINE",
"51 100 LINE",
"48 113 LINE",
"47 118 LINE",
"63 176 LINE",
"89 259 LINE",
"120 357 LINE",
"150 451 LINE",
"176 530 LINE",
"183 551 LINE",
"195 587 LINE",
"230 684 LINE",
"268 789 LINE",
"306 895 LINE",
"340 988 LINE",
"365 1059 LINE",
"370 1077 LINE"
);
}
);
width = 1113;
}
);
unicode = 2044;
},
{
glyphname = onehalf;
lastChange = "2016-07-06 09:50:25 +0000";
layers = (
{
layerId = UUID0;
paths = (
{
closed = 1;
nodes = (
"1327 408 LINE",
"1306 336 LINE",
"1268 202 LINE",
"1234 91 LINE",
"1202 9 LINE",
"1186 -10 LINE",
"1168 -10 LINE",
"1124 -13 LINE",
"1084 -16 LINE",
"1056 -18 LINE",
"1055 -18 LINE",
"1049 -18 LINE",
"1036 -18 LINE",
"1026 -10 LINE",
"1018 -10 LINE",
"1013 -11 LINE",
"1009 -13 LINE",
"1000 -17 LINE",
"1000 -18 LINE",
"798 -18 LINE",
"796 -19 LINE",
"765 -21 LINE",
"727 -22 LINE",
"692 -23 LINE",
"686 -23 LINE",
"664 -23 LINE",
"648 13 LINE",
"648 39 LINE",
"648 56 LINE",
"653 94 LINE",
"660 129 LINE",
"667 158 LINE",
"669 166 LINE",
"686 230 LINE",
"726 363 LINE",
"767 497 LINE",
"809 630 LINE",
"828 694 LINE",
"1036 1362 LINE",
"1036 1364 LINE",
"1043 1371 LINE",
"1051 1377 LINE",
"1058 1382 LINE",
"1058 1384 LINE",
"1065 1384 LINE",
"1069 1382 LINE",
"1075 1382 LINE",
"1106 1382 LINE",
"1171 1395 LINE",
"1206 1395 LINE",
"1234 1395 LINE",
"1315 1396 LINE",
"1394 1395 LINE",
"1456 1390 LINE",
"1465 1384 LINE",
"1479 1383 LINE",
"1496 1382 LINE",
"1501 1382 LINE",
"1511 1382 LINE",
"1518 1384 LINE",
"1534 1384 LINE",
"1543 1384 LINE",
"1555 1344 LINE",
"1564 1283 LINE",
"1568 1210 LINE",
"1568 1178 LINE",
"1568 1153 LINE",
"1565 1113 LINE",
"1563 1102 LINE",
"1509 958 LINE",
"1499 931 LINE",
"1480 879 LINE",
"1465 838 LINE",
"1456 812 LINE",
"1456 811 LINE",
"1455 810 LINE",
"1436 751 LINE",
"1408 662 LINE",
"1375 560 LINE",
"1347 471 LINE",
"1327 410 LINE"
);
},
{
closed = 1;
nodes = (
"1938 -1 LINE",
"1906 -1 LINE",
"1843 -2 LINE",
"1812 -2 LINE",
"1762 -2 LINE",
"1675 1 LINE",
"1609 10 LINE",
"1571 28 LINE",
"1571 43 LINE",
"1571 65 LINE",
"1593 103 LINE",
"1610 121 LINE",
"1612 121 LINE",
"1635 145 LINE",
"1670 185 LINE",
"1713 236 LINE",
"1754 290 LINE",
"1791 342 LINE",
"1803 363 LINE",
"1811 375 LINE",
"1831 411 LINE",
"1849 452 LINE",
"1862 495 LINE",
"1862 514 LINE",
"1862 554 LINE",
"1817 591 LINE",
"1755 591 LINE",
"1732 591 LINE",
"1693 586 LINE",
"1656 575 LINE",
"1614 559 LINE",
"1588 547 LINE",
"1587 547 LINE",
"1583 580 LINE",
"1578 631 LINE",
"1574 692 LINE",
"1570 747 LINE",
"1568 788 LINE",
"1568 795 LINE",
"1568 802 LINE",
"1569 804 LINE",
"1634 834 LINE",
"1672 848 LINE",
"1756 868 LINE",
"1843 881 LINE",
"1929 887 LINE",
"1969 887 LINE",
"2038 887 LINE",
"2172 858 LINE",
"2277 791 LINE",
"2342 683 LINE",
"2342 605 LINE",
"2342 527 LINE",
"2239 379 LINE",
"2129 298 LINE",
"2162 298 LINE",
"2220 300 LINE",
"2253 300 LINE",
"2267 300 LINE",
"2299 298 LINE",
"2326 289 LINE",
"2343 273 LINE",
"2343 260 LINE",
"2343 227 LINE",
"2341 182 LINE",
"2340 145 LINE",
"2338 110 LINE",
"2338 86 LINE",
"2338 58 LINE",
"2334 23 LINE",
"2298 4 LINE",
"2217 -3 LINE",
"2140 -3 LINE",
"2113 -3 LINE",
"2057 -2 LINE",
"2003 -2 LINE",
"1955 -1 LINE"
);
},
{
closed = 1;
nodes = (
"678 1005 LINE",
"678 939 LINE",
"675 836 LINE",
"672 749 LINE",
"670 672 LINE",
"670 631 LINE",
"670 617 LINE",
"668 588 LINE",
"661 563 LINE",
"646 547 LINE",
"633 547 LINE",
"570 547 LINE",
"483 548 LINE",
"410 550 LINE",
"339 551 LINE",
"291 551 LINE",
"273 551 LINE",
"244 554 LINE",
"225 568 LINE",
"215 597 LINE",
"215 622 LINE",
"215 624 LINE",
"217 642 LINE",
"220 663 LINE",
"222 682 LINE",
"222 685 LINE",
"222 689 LINE",
"220 711 LINE",
"217 734 LINE",
"215 752 LINE",
"215 753 LINE",
"214 774 LINE",
"214 833 LINE",
"214 898 LINE",
"213 962 LINE",
"212 1013 LINE",
"210 1044 LINE",
"209 1044 LINE",
"202 1044 LINE",
"182 1021 LINE",
"156 993 LINE",
"125 970 LINE",
"108 970 LINE",
"94 970 LINE",
"74 988 LINE",
"74 997 LINE",
"74 1262 LINE",
"74 1269 LINE",
"109 1286 LINE",
"144 1309 LINE",
"182 1334 LINE",
"222 1347 LINE",
"233 1347 LINE",
"291 1347 LINE",
"390 1346 LINE",
"486 1345 LINE",
"584 1344 LINE",
"641 1344 LINE",
"654 1344 LINE",
"678 1321 LINE",
"678 1309 LINE"
);
}
);
width = 2418;
}
);
unicode = 00BD;
},
{
glyphname = onequarter;
lastChange = "2016-07-06 09:50:25 +0000";
layers = (
{
layerId = UUID0;
paths = (
{
closed = 1;
nodes = (
"679 1005 LINE",
"679 939 LINE",
"676 836 LINE",
"673 749 LINE",
"671 672 LINE",
"671 631 LINE",
"671 617 LINE",
"669 588 LINE",
"662 563 LINE",
"647 547 LINE",
"634 547 LINE",
"571 547 LINE",
"484 548 LINE",
"411 550 LINE",
"340 551 LINE",
"292 551 LINE",
"274 551 LINE",
"245 554 LINE",
"226 568 LINE",
"216 597 LINE",
"216 622 LINE",
"216 624 LINE",
"218 642 LINE",
"221 663 LINE",
"223 682 LINE",
"223 685 LINE",
"223 689 LINE",
"221 711 LINE",
"218 734 LINE",
"216 752 LINE",
"216 753 LINE",
"215 774 LINE",
"215 833 LINE",
"215 898 LINE",
"214 962 LINE",
"213 1013 LINE",
"211 1044 LINE",
"210 1044 LINE",
"203 1044 LINE",
"183 1021 LINE",
"157 993 LINE",
"126 970 LINE",
"109 970 LINE",
"95 970 LINE",
"75 988 LINE",
"75 997 LINE",
"75 1262 LINE",
"75 1269 LINE",
"110 1286 LINE",
"145 1309 LINE",
"183 1334 LINE",
"223 1347 LINE",
"234 1347 LINE",
"292 1347 LINE",
"391 1346 LINE",
"487 1345 LINE",
"585 1344 LINE",
"642 1344 LINE",
"655 1344 LINE",
"679 1321 LINE",
"679 1309 LINE"
);
},
{
closed = 1;
nodes = (
"1328 408 LINE",
"1307 336 LINE",
"1269 202 LINE",
"1235 91 LINE",
"1203 9 LINE",
"1187 -10 LINE",
"1169 -10 LINE",
"1125 -13 LINE",
"1085 -16 LINE",
"1057 -18 LINE",
"1056 -18 LINE",
"1050 -18 LINE",
"1037 -18 LINE",
"1027 -10 LINE",
"1019 -10 LINE",
"1014 -11 LINE",
"1010 -13 LINE",
"1001 -17 LINE",
"1001 -18 LINE",
"799 -18 LINE",
"797 -19 LINE",
"766 -21 LINE",
"728 -22 LINE",
"693 -23 LINE",
"687 -23 LINE",
"665 -23 LINE",
"649 13 LINE",
"649 39 LINE",
"649 56 LINE",
"654 94 LINE",
"661 129 LINE",
"668 158 LINE",
"670 166 LINE",
"687 230 LINE",
"727 363 LINE",
"768 497 LINE",
"810 630 LINE",
"829 694 LINE",
"1037 1362 LINE",
"1037 1364 LINE",
"1044 1371 LINE",
"1052 1377 LINE",
"1059 1382 LINE",
"1059 1384 LINE",
"1066 1384 LINE",
"1070 1382 LINE",
"1076 1382 LINE",
"1107 1382 LINE",
"1172 1395 LINE",
"1207 1395 LINE",
"1235 1395 LINE",
"1316 1396 LINE",
"1395 1395 LINE",
"1457 1390 LINE",
"1466 1384 LINE",
"1480 1383 LINE",
"1497 1382 LINE",
"1502 1382 LINE",
"1512 1382 LINE",
"1519 1384 LINE",
"1535 1384 LINE",
"1544 1384 LINE",
"1556 1344 LINE",
"1565 1283 LINE",
"1569 1210 LINE",
"1569 1178 LINE",
"1569 1153 LINE",
"1566 1113 LINE",
"1564 1102 LINE",
"1510 958 LINE",
"1500 931 LINE",
"1481 879 LINE",
"1466 838 LINE",
"1457 812 LINE",
"1457 811 LINE",
"1457 810 LINE",
"1437 751 LINE",
"1409 662 LINE",
"1376 560 LINE",
"1348 471 LINE",
"1328 410 LINE"
);
},
{
closed = 1;
nodes = (
"1725 925 LINE",
"1740 925 LINE",
"1788 924 LINE",
"1838 923 LINE",
"1884 921 LINE",
"1896 921 LINE",
"1905 926 LINE",
"1936 928 LINE",
"1945 928 LINE",
"1974 928 LINE",
"2028 924 LINE",
"2060 924 LINE",
"2061 925 LINE",
"2064 925 LINE",
"2065 926 LINE",
"2080 926 LINE",
"2110 924 LINE",
"2127 924 LINE",
"2128 924 LINE",
"2134 924 LINE",
"2138 925 LINE",
"2142 925 LINE",
"2147 926 LINE",
"2151 926 LINE",
"2163 924 LINE",
"2164 924 LINE",
"2173 924 LINE",
"2189 924 LINE",
"2229 922 LINE",
"2241 922 LINE",
"2251 922 LINE",
"2258 900 LINE",
"2258 881 LINE",
"2258 858 LINE",
"2253 797 LINE",
"2253 765 LINE",
"2253 748 LINE",
"2257 716 LINE",
"2257 700 LINE",
"2257 686 LINE",
"2250 547 LINE",
"2250 411 LINE",
"2250 385 LINE",
"2351 385 LINE",
"2369 385 LINE",
"2389 352 LINE",
"2398 307 LINE",
"2400 258 LINE",
"2400 243 LINE",
"2400 238 LINE",
"2399 208 LINE",
"2397 175 LINE",
"2396 149 LINE",
"2396 149 LINE",
"2391 140 LINE",
"2355 134 LINE",
"2310 133 LINE",
"2264 135 LINE",
"2248 135 LINE",
"2245 112 LINE",
"2243 85 LINE",
"2243 39 LINE",
"2240 7 LINE",
"2227 -11 LINE",
"2211 -11 LINE",
"2210 -11 LINE",
"2208 -8 LINE",
"2206 -8 LINE",
"2202 -8 LINE",
"2196 -10 LINE",
"2190 -12 LINE",
"2168 -12 LINE",
"2154 -8 LINE",
"2144 -8 LINE",
"2143 -8 LINE",
"2137 -11 LINE",
"2136 -12 LINE",
"2044 -12 LINE",
"2043 -12 LINE",
"2024 -16 LINE",
"2002 -21 LINE",
"1981 -25 LINE",
"1977 -25 LINE",
"1964 -25 LINE",
"1951 1 LINE",
"1947 36 LINE",
"1946 69 LINE",
"1945 77 LINE",
"1942 129 LINE",
"1936 129 LINE",
"1834 129 LINE",
"1640 128 LINE",
"1531 125 LINE",
"1490 127 LINE",
"1467 147 LINE",
"1467 154 LINE",
"1467 199 LINE",
"1467 258 LINE",
"1470 302 LINE",
"1475 339 LINE",
"1487 385 LINE",
"1506 450 LINE",
"1520 499 LINE",
"1519 498 LINE",
"1536 541 LINE",
"1565 611 LINE",
"1603 699 LINE",
"1643 790 LINE",
"1684 875 LINE",
"1701 906 LINE",
"1706 911 LINE",
"1719 920 LINE"
);
},
{
closed = 1;
nodes = (
"1791 388 LINE",
"1823 388 LINE",
"1893 387 LINE",
"1928 387 LINE",
"1928 759 LINE",
"1913 717 LINE",
"1874 611 LINE",
"1836 507 LINE",
"1802 416 LINE"
);
}
);
width = 2468;
}
);
unicode = 00BC;
},
{
glyphname = threequarters;
lastChange = "2016-07-06 09:50:25 +0000";
layers = (
{
layerId = UUID0;
paths = (
{
closed = 1;
nodes = (
"1482 408 LINE",
"1461 336 LINE",
"1423 202 LINE",
"1389 91 LINE",
"1357 9 LINE",
"1341 -10 LINE",
"1323 -10 LINE",
"1279 -13 LINE",
"1239 -16 LINE",
"1211 -18 LINE",
"1210 -18 LINE",
"1204 -18 LINE",
"1191 -18 LINE",
"1181 -10 LINE",
"1173 -10 LINE",
"1168 -11 LINE",
"1164 -13 LINE",
"1155 -17 LINE",
"1155 -18 LINE",
"953 -18 LINE",
"951 -19 LINE",
"920 -21 LINE",
"882 -22 LINE",
"847 -23 LINE",
"841 -23 LINE",
"819 -23 LINE",
"803 13 LINE",
"803 39 LINE",
"803 56 LINE",
"808 94 LINE",
"815 129 LINE",
"822 158 LINE",
"824 166 LINE",
"841 230 LINE",
"881 363 LINE",
"922 497 LINE",
"964 630 LINE",
"983 694 LINE",
"1191 1362 LINE",
"1191 1364 LINE",
"1198 1371 LINE",
"1206 1377 LINE",
"1213 1382 LINE",
"1213 1384 LINE",
"1220 1384 LINE",
"1224 1382 LINE",
"1230 1382 LINE",
"1261 1382 LINE",
"1326 1395 LINE",
"1361 1395 LINE",
"1384 1395 LINE",
"1448 1396 LINE",
"1482 1396 LINE",
"1530 1396 LINE",
"1609 1392 LINE",
"1620 1384 LINE",
"1634 1383 LINE",
"1651 1382 LINE",
"1656 1382 LINE",
"1666 1382 LINE",
"1673 1384 LINE",
"1689 1384 LINE",
"1698 1384 LINE",
"1710 1344 LINE",
"1719 1283 LINE",
"1723 1210 LINE",
"1723 1178 LINE",
"1723 1153 LINE",
"1720 1113 LINE",
"1718 1102 LINE",
"1664 958 LINE",
"1654 931 LINE",
"1635 879 LINE",
"1620 838 LINE",
"1611 812 LINE",
"1611 811 LINE",
"1610 810 LINE",
"1591 751 LINE",
"1563 662 LINE",
"1530 560 LINE",
"1502 471 LINE",
"1482 410 LINE"
);
},
{
closed = 1;
nodes = (
"856 761 LINE",
"856 695 LINE",
"834 597 LINE",
"803 531 LINE",
"768 494 LINE",
"756 489 LINE",
"715 469 LINE",
"628 447 LINE",
"536 437 LINE",
"444 436 LINE",
"399 436 LINE",
"391 436 LINE",
"336 443 LINE",
"274 453 LINE",
"223 465 LINE",
"220 471 LINE",
"191 481 LINE",
"144 498 LINE",
"115 518 LINE",
"129 724 LINE",
"174 713 LINE",
"267 699 LINE",
"305 699 LINE",
"354 699 LINE",
"416 734 LINE",
"416 778 LINE",
"416 809 LINE",
"364 838 LINE",
"323 841 LINE",
"291 841 LINE",
"232 839 LINE",
"199 837 LINE",
"198 999 LINE",
"212 999 LINE",
"239 998 LINE",
"254 998 LINE",
"278 998 LINE",
"322 1003 LINE",
"357 1018 LINE",
"377 1048 LINE",
"377 1074 LINE",
"377 1111 LINE",
"315 1138 LINE",
"266 1138 LINE",
"228 1138 LINE",
"135 1112 LINE",
"90 1092 LINE",
"75 1305 LINE",
"111 1321 LINE",
"198 1349 LINE",
"296 1368 LINE",
"399 1379 LINE",
"451 1379 LINE",
"504 1377 LINE",
"609 1365 LINE",
"647 1354 LINE",
"651 1352 LINE",
"674 1345 LINE",
"699 1334 LINE",
"718 1318 LINE",
"718 1307 LINE",
"733 1307 LINE",
"759 1280 LINE",
"780 1244 LINE",
"794 1209 LINE",
"798 1201 LINE",
"807 1180 LINE",
"813 1138 LINE",
"818 1116 LINE",
"818 1095 LINE",
"807 1048 LINE",
"786 1004 LINE",
"755 966 LINE",
"736 954 LINE",
"793 921 LINE",
"856 824 LINE"
);
},
{
closed = 1;
nodes = (
"1847 933 LINE",
"1863 933 LINE",
"1917 932 LINE",
"1973 931 LINE",
"2024 929 LINE",
"2038 929 LINE",
"2047 934 LINE",
"2078 936 LINE",
"2087 936 LINE",
"2116 936 LINE",
"2170 932 LINE",
"2202 932 LINE",
"2203 933 LINE",
"2206 933 LINE",
"2207 934 LINE",
"2222 934 LINE",
"2252 932 LINE",
"2269 932 LINE",
"2271 932 LINE",
"2287 932 LINE",
"2296 933 LINE",
"2307 933 LINE",
"2319 934 LINE",
"2333 934 LINE",
"2383 930 LINE",
"2403 930 LINE",
"2413 930 LINE",
"2419 908 LINE",
"2419 888 LINE",
"2419 866 LINE",
"2414 806 LINE",
"2414 774 LINE",
"2414 749 LINE",
"2415 735 LINE",
"2416 737 LINE",
"2417 746 LINE",
"2419 741 LINE",
"2420 712 LINE",
"2421 641 LINE",
"2422 517 LINE",
"2422 419 LINE",
"2422 393 LINE",
"2523 393 LINE",
"2541 393 LINE",
"2561 360 LINE",
"2570 315 LINE",
"2572 266 LINE",
"2572 251 LINE",
"2572 246 LINE",
"2571 216 LINE",
"2569 183 LINE",
"2568 157 LINE",
"2568 157 LINE",
"2562 147 LINE",
"2521 142 LINE",
"2495 142 LINE",
"2475 142 LINE",
"2434 143 LINE",
"2420 143 LINE",
"2417 120 LINE",
"2415 93 LINE",
"2415 47 LINE",
"2412 15 LINE",
"2399 -3 LINE",
"2383 -3 LINE",
"2382 -3 LINE",
"2380 0 LINE",
"2378 0 LINE",
"2374 0 LINE",
"2368 -2 LINE",
"2362 -4 LINE",
"2340 -4 LINE",
"2326 0 LINE",
"2316 0 LINE",
"2312 -2 LINE",
"2308 -4 LINE",
"2186 -4 LINE",
"2185 -4 LINE",
"2166 -8 LINE",
"2144 -13 LINE",
"2123 -17 LINE",
"2119 -17 LINE",
"2106 -17 LINE",
"2093 9 LINE",
"2089 44 LINE",
"2088 77 LINE",
"2087 85 LINE",
"2084 137 LINE",
"2078 137 LINE",
"1976 137 LINE",
"1782 136 LINE",
"1673 133 LINE",
"1632 135 LINE",
"1609 155 LINE",
"1609 162 LINE",
"1609 207 LINE",
"1609 266 LINE",
"1612 310 LINE",
"1617 347 LINE",
"1629 393 LINE",
"1648 458 LINE",
"1662 507 LINE",
"1661 506 LINE",
"1676 549 LINE",
"1702 619 LINE",
"1736 707 LINE",
"1772 798 LINE",
"1808 883 LINE",
"1823 914 LINE",
"1827 919 LINE",
"1840 928 LINE"
);
},
{
closed = 1;
nodes = (
"1933 396 LINE",
"1965 396 LINE",
"2035 395 LINE",
"2070 395 LINE",
"2070 767 LINE",
"2055 725 LINE",
"2016 619 LINE",
"1978 515 LINE",
"1944 424 LINE"
);
}
);
width = 2643;
}
);
unicode = 00BE;
},
{
glyphname = asterisk;
lastChange = "2016-07-06 09:50:25 +0000";
layers = (
{
layerId = UUID0;
paths = (
{
closed = 1;
nodes = (
"192 794 LINE",
"331 887 LINE",
"192 980 LINE",
"170 995 LINE",
"125 1023 LINE",
"94 1053 LINE",
"84 1086 LINE",
"97 1105 LINE",
"113 1130 LINE",
"140 1170 LINE",
"164 1209 LINE",
"190 1249 LINE",
"207 1274 LINE",
"216 1287 LINE",
"258 1294 LINE",
"270 1286 LINE",
"317 1255 LINE",
"401 1198 LINE",
"447 1168 LINE",
"447 1270 LINE",
"447 1297 LINE",
"446 1350 LINE",
"454 1392 LINE",
"475 1419 LINE",
"498 1419 LINE",
"528 1419 LINE",
"576 1420 LINE",
"622 1420 LINE",
"670 1421 LINE",
"700 1421 LINE",
"708 1421 LINE",
"724 1412 LINE",
"737 1399 LINE",
"745 1383 LINE",
"745 1376 LINE",
"745 1154 LINE",
"768 1168 LINE",
"805 1192 LINE",
"816 1199 LINE",
"819 1201 LINE",
"837 1216 LINE",
"857 1234 LINE",
"875 1249 LINE",
"878 1251 LINE",
"904 1268 LINE",
"940 1277 LINE",
"969 1267 LINE",
"992 1239 LINE",
"1005 1220 LINE",
"1015 1204 LINE",
"1034 1180 LINE",
"1053 1154 LINE",
"1075 1123 LINE",
"1090 1101 LINE",
"1099 1087 LINE",
"1093 1061 LINE",
"1072 1035 LINE",
"1042 1012 LINE",
"1028 1003 LINE",
"985 974 LINE",
"902 917 LINE",
"859 887 LINE",
"902 857 LINE",
"985 800 LINE",
"1028 771 LINE",
"1042 762 LINE",
"1072 739 LINE",
"1093 713 LINE",
"1099 686 LINE",
"1090 673 LINE",
"1075 651 LINE",
"1053 620 LINE",
"1034 594 LINE",
"1015 570 LINE",
"1005 554 LINE",
"992 535 LINE",
"969 507 LINE",
"940 497 LINE",
"904 506 LINE",
"878 523 LINE",
"875 524 LINE",
"857 540 LINE",
"837 558 LINE",
"819 573 LINE",
"816 575 LINE",
"739 623 LINE",
"738 581 LINE",
"737 501 LINE",
"737 459 LINE",
"737 442 LINE",
"734 405 LINE",
"725 373 LINE",
"706 353 LINE",
"690 353 LINE",
"663 353 LINE",
"625 355 LINE",
"593 356 LINE",
"562 358 LINE",
"543 358 LINE",
"520 358 LINE",
"484 362 LINE",
"460 380 LINE",
"447 415 LINE",
"447 446 LINE",
"447 449 LINE",
"450 473 LINE",
"453 500 LINE",
"456 524 LINE",
"456 527 LINE",
"456 539 LINE",
"455 583 LINE",
"454 610 LINE",
"270 488 LINE",
"258 480 LINE",
"216 487 LINE",
"207 500 LINE",
"190 525 LINE",
"164 565 LINE",
"140 604 LINE",
"113 644 LINE",
"97 669 LINE",
"84 688 LINE",
"94 721 LINE",
"125 751 LINE",
"170 779 LINE"
);
}
);
width = 1176;
}
);
unicode = 002A;
},
{
glyphname = backslash;
lastChange = "2016-07-06 09:50:25 +0000";
layers = (
{
layerId = UUID0;
paths = (
{
closed = 1;
nodes = (
"333 408 LINE",
"333 410 LINE",
"313 471 LINE",
"285 560 LINE",
"252 662 LINE",
"224 751 LINE",
"204 810 LINE",
"204 811 LINE",
"204 812 LINE",
"195 838 LINE",
"180 879 LINE",
"160 931 LINE",
"150 958 LINE",
"126 1021 LINE",
"97 1102 LINE",
"85 1156 LINE",
"70 1257 LINE",
"73 1336 LINE",
"98 1384 LINE",
"126 1384 LINE",
"144 1378 LINE",
"152 1380 LINE",
"155 1381 LINE",
"160 1383 LINE",
"159 1384 LINE",
"195 1384 LINE",
"200 1388 LINE",
"236 1393 LINE",
"247 1393 LINE",
"248 1393 LINE",
"259 1390 LINE",
"272 1387 LINE",
"284 1384 LINE",
"286 1384 LINE",
"289 1384 LINE",
"300 1391 LINE",
"300 1393 LINE",
"314 1393 LINE",
"352 1395 LINE",
"390 1395 LINE",
"424 1390 LINE",
"433 1384 LINE",
"447 1384 LINE",
"470 1395 LINE",
"484 1395 LINE",
"519 1395 LINE",
"584 1382 LINE",
"615 1382 LINE",
"621 1382 LINE",
"625 1384 LINE",
"632 1384 LINE",
"632 1382 LINE",
"639 1377 LINE",
"647 1371 LINE",
"654 1364 LINE",
"654 1362 LINE",
"871 694 LINE",
"909 566 LINE",
"986 294 LINE",
"1021 166 LINE",
"1023 157 LINE",
"1031 122 LINE",
"1039 80 LINE",
"1043 36 LINE",
"1038 0 LINE",
"1021 -23 LINE",
"1004 -23 LINE",
"998 -23 LINE",
"963 -22 LINE",
"925 -21 LINE",
"894 -19 LINE",
"892 -18 LINE",
"660 -18 LINE",
"660 -17 LINE",
"654 -15 LINE",
"651 -13 LINE",
"647 -11 LINE",
"642 -10 LINE",
"634 -10 LINE",
"624 -18 LINE",
"611 -18 LINE",
"605 -18 LINE",
"604 -18 LINE",
"576 -16 LINE",
"536 -13 LINE",
"492 -10 LINE",
"474 -10 LINE",
"458 9 LINE",
"426 91 LINE",
"392 202 LINE",
"354 336 LINE"
);
}
);
width = 1120;
}
);
unicode = 005C;
},
